<?xml version="1.0" standalone="no"?>
<!DOCTYPE svg PUBLIC "-//W3C//DTD SVG 1.1//EN" "http://www.w3.org/Graphics/SVG/1.1/DTD/svg11.dtd" >
<svg xmlns="http://www.w3.org/2000/svg" xmlns:xlink="http://www.w3.org/1999/xlink" version="1.1">
<metadata>
Created by FontForge 20230101 at Mon Jan 22 11:25:11 2018
 By Webmaster
Copyright (c) 2017 by Ani Petrova. All rights reserved.
</metadata>
<defs>
<font id="KardinalPro-ExtraBold" horiz-adv-x="381" >
  <font-face 
    font-family="KardinalPro ExtraBold"
    font-weight="800"
    font-stretch="normal"
    units-per-em="1000"
    panose-1="0 0 9 0 0 0 0 0 0 0"
    ascent="775"
    descent="-225"
    x-height="455"
    cap-height="700"
    bbox="-711 -311 1333 1137"
    underline-thickness="50"
    underline-position="-100"
    unicode-range="U+0020-25CA"
  />
<missing-glyph horiz-adv-x="524" 
 />
    <glyph glyph-name="f_f" unicode="ff" horiz-adv-x="618" 
d="M516.5 571q-12.5 -16 -12.5 -53v-63h99v-116h-99v-231q0 -66 7 -108h-152v339h-128v-231q0 -66 7 -108h-152v339h-62v116h62v68q0 93 44 138t134 45q69 0 138 -33q42 43 124 43q66 0 130 -30l-31 -116q-28 17 -66 17q-30 0 -42.5 -16zM359 538q0 17 2 25q-33 14 -69 14
q-33 0 -47 -17t-14 -56v-49h128v83z" />
    <glyph glyph-name="f_f_i" unicode="ffi" horiz-adv-x="823" 
d="M86 339h-62v116h62v68q0 93 44 138t133 45q76 0 147 -37q50 47 147 47q112 0 197 -41l-41 -117q-34 15 -64 22t-65 7q-39 0 -59.5 -19t-20.5 -61v-52h273v-347q0 -68 7 -108h-152v339h-128v-231q0 -66 7 -108h-152v339h-128v-231q0 -66 7 -108h-152v339zM359 455v70
q0 22 4 37q-34 15 -70 15q-33 0 -47.5 -16.5t-14.5 -56.5v-49h128z" />
    <glyph glyph-name="f_f_l" unicode="ffl" horiz-adv-x="917" 
d="M684.5 32q-33.5 42 -33.5 136v334q0 46 -3 79q-37 7 -65 7q-39 0 -59 -18.5t-20 -60.5v-54h87v-116h-87v-231q0 -66 7 -108h-152v339h-128v-231q0 -66 7 -108h-152v339h-62v116h62v68q0 93 44 138t133 45q73 0 147 -36q50 46 152 46q55 0 109.5 -11.5t124.5 -32.5v-489
q0 -38 8.5 -51.5t30.5 -13.5q29 0 54 11l25 -114q-21 -11 -54.5 -18t-65.5 -7q-76 0 -109.5 42zM359 455v70q0 22 4 37q-34 15 -70 15q-33 0 -47.5 -16.5t-14.5 -56.5v-49h128z" />
    <glyph glyph-name=".notdef" horiz-adv-x="524" 
 />
    <glyph glyph-name="space" unicode=" " horiz-adv-x="175" 
 />
    <glyph glyph-name="A" unicode="A" horiz-adv-x="629" 
d="M181 573q27 87 31 127h201l220 -700h-185q-5 44 -19 98l-21 72h-186l-21 -71q-14 -54 -19 -99h-184zM377 304l-30 104q-15 59 -27 134h-3q-15 -76 -31 -134l-30 -104h121z" />
    <glyph glyph-name="Aacute" unicode="&#xc1;" horiz-adv-x="629" 
d="M181 573q27 87 31 127h201l220 -700h-185q-5 44 -19 98l-21 72h-186l-21 -71q-14 -54 -19 -99h-184zM377 304l-30 104q-15 59 -27 134h-3q-15 -76 -31 -134l-30 -104h121zM271 850q19 37 26 58h147l-67 -96q-25 -34 -33 -53h-121z" />
    <glyph glyph-name="Abreve" unicode="&#x102;" horiz-adv-x="629" 
d="M181 573q27 87 31 127h201l220 -700h-185q-5 44 -19 98l-21 72h-186l-21 -71q-14 -54 -19 -99h-184zM377 304l-30 104q-15 59 -27 134h-3q-15 -76 -31 -134l-30 -104h121zM206.5 792q-38.5 35 -38.5 107h92q0 -55 55 -55q56 0 56 55h92q0 -71 -39 -106.5t-109 -35.5
t-108.5 35z" />
    <glyph glyph-name="Acircumflex" unicode="&#xc2;" horiz-adv-x="629" 
d="M181 573q27 87 31 127h201l220 -700h-185q-5 44 -19 98l-21 72h-186l-21 -71q-14 -54 -19 -99h-184zM377 304l-30 104q-15 59 -27 134h-3q-15 -76 -31 -134l-30 -104h121zM348.5 782.5q-9.5 13.5 -12.5 17.5l-19 29h-2l-20 -29q-16 -22 -25 -42h-124l69 92q22 26 37 57
h121l111 -149h-122q-4 11 -13.5 24.5z" />
    <glyph glyph-name="Adieresis" unicode="&#xc4;" horiz-adv-x="629" 
d="M181 573q27 87 31 127h201l220 -700h-185q-5 44 -19 98l-21 72h-186l-21 -71q-14 -54 -19 -99h-184zM377 304l-30 104q-15 59 -27 134h-3q-15 -76 -31 -134l-30 -104h121zM155.5 780.5q-20.5 20.5 -20.5 51.5t20.5 50.5t51.5 19.5q32 0 52 -19.5t20 -50.5t-20.5 -51.5
t-51.5 -20.5t-51.5 20.5zM370 781q-20 20 -20 51t20 50.5t52 19.5t52 -19.5t20 -50.5t-20 -51t-52 -20t-52 20z" />
    <glyph glyph-name="Agrave" unicode="&#xc0;" horiz-adv-x="629" 
d="M181 573q27 87 31 127h201l220 -700h-185q-5 44 -19 98l-21 72h-186l-21 -71q-14 -54 -19 -99h-184zM377 304l-30 104q-15 59 -27 134h-3q-15 -76 -31 -134l-30 -104h121zM302 758q-7 14 -33 53l-68 96h147q11 -29 26 -58l48 -91h-120z" />
    <glyph glyph-name="Amacron" unicode="&#x100;" horiz-adv-x="629" 
d="M181 573q27 87 31 127h201l220 -700h-185q-5 44 -19 98l-21 72h-186l-21 -71q-14 -54 -19 -99h-184zM377 304l-30 104q-15 59 -27 134h-3q-15 -76 -31 -134l-30 -104h121zM169 866h196q50 0 96 6v-95h-196q-43 0 -96 -5v94z" />
    <glyph glyph-name="Aogonek" unicode="&#x104;" horiz-adv-x="629" 
d="M181 573q27 87 31 127h201l220 -700h-185q-5 44 -19 98l-21 72h-186l-21 -71q-14 -54 -19 -99h-184zM377 304l-30 104q-15 59 -27 134h-3q-15 -76 -31 -134l-30 -104h121zM435.5 -199.5q-22.5 20.5 -22.5 57.5q0 41 28 77t71 65h87q-38 -33 -60.5 -63.5t-22.5 -49.5
q0 -20 20 -20q18 0 36 10l19 -71q-41 -26 -96 -26q-37 0 -59.5 20.5z" />
    <glyph glyph-name="Aring" unicode="&#xc5;" horiz-adv-x="629" 
d="M181 573q27 87 31 127h201l220 -700h-185q-5 44 -19 98l-21 72h-186l-21 -71q-14 -54 -19 -99h-184zM377 304l-30 104q-15 59 -27 134h-3q-15 -76 -31 -134l-30 -104h121zM388 784q-29 -29 -74 -29q-46 0 -74.5 26.5t-28.5 71.5q0 44 29 71.5t75 27.5t74 -26t28 -70
q0 -43 -29 -72zM347.5 887q-13.5 14 -33.5 14q-21 0 -33.5 -14t-12.5 -33t12.5 -32.5t33.5 -13.5q22 0 34.5 13t12.5 33q0 19 -13.5 33z" />
    <glyph glyph-name="Aringacute" unicode="&#x1fa;" horiz-adv-x="629" 
d="M181 573q27 87 31 127h201l220 -700h-185q-5 44 -19 98l-21 72h-186l-21 -71q-14 -54 -19 -99h-184zM377 304l-30 104q-15 59 -27 134h-3q-15 -76 -31 -134l-30 -104h121zM388 784q-29 -29 -74 -29q-46 0 -74.5 26.5t-28.5 71.5q0 44 29 71.5t75 27.5t74 -26t28 -70
q0 -43 -29 -72zM347.5 887q-13.5 14 -33.5 14q-21 0 -33.5 -14t-12.5 -33t12.5 -32.5t33.5 -13.5q22 0 34.5 13t12.5 33q0 19 -13.5 33zM271 1079q19 37 26 58h147l-67 -96q-25 -34 -33 -53h-121z" />
    <glyph glyph-name="Atilde" unicode="&#xc3;" horiz-adv-x="629" 
d="M181 573q27 87 31 127h201l220 -700h-185q-5 44 -19 98l-21 72h-186l-21 -71q-14 -54 -19 -99h-184zM377 304l-30 104q-15 59 -27 134h-3q-15 -76 -31 -134l-30 -104h121zM339.5 773.5q-17.5 7.5 -38.5 20.5q-9 6 -17.5 10.5t-15.5 4.5q-15 0 -20.5 -9.5t-5.5 -26.5h-82
q0 120 90 120q26 0 43.5 -7.5t38.5 -20.5q23 -15 34 -15q14 0 19.5 8.5t6.5 27.5h81q0 -120 -90 -120q-26 0 -43.5 7.5z" />
    <glyph glyph-name="AE" unicode="&#xc6;" horiz-adv-x="881" 
d="M270 573q3 7 19 39q31 67 37 88h506v-144q-42 6 -105 6h-152v-137h239v-137q-37 7 -105 7h-134v-77q0 -44 3 -80h156q64 0 106 6v-144h-419v173h-167l-35 -74q-23 -48 -38 -99h-187zM421 307v149q0 36 4 114h-3q-22 -65 -37 -100l-76 -163h112z" />
    <glyph glyph-name="AEacute" unicode="&#x1fc;" horiz-adv-x="881" 
d="M270 573q3 7 19 39q31 67 37 88h506v-144q-42 6 -105 6h-152v-137h239v-137q-37 7 -105 7h-134v-77q0 -44 3 -80h156q64 0 106 6v-144h-419v173h-167l-35 -74q-23 -48 -38 -99h-187zM421 307v149q0 36 4 114h-3q-22 -65 -37 -100l-76 -163h112zM553 850q19 37 26 58h147
l-67 -96q-25 -34 -33 -53h-121z" />
    <glyph glyph-name="B" unicode="B" horiz-adv-x="569" 
d="M512 531q0 -54 -25 -93t-71 -60v-4q60 -13 92.5 -55.5t32.5 -104.5q0 -106 -64 -160t-184 -54h-231v593q0 72 -7 107h217q240 0 240 -169zM215 571v-149h50q95 0 95 79q0 36 -21.5 53t-68.5 17h-55zM215 302v-102q0 -28 3 -66h58q56 0 83 21.5t27 67.5q0 79 -100 79h-71z
" />
    <glyph glyph-name="C" unicode="C" horiz-adv-x="602" 
d="M180 33q-69 43 -105 123.5t-36 192.5q0 110 39 191.5t111 125.5t170 44q132 0 207 -60l-55 -129q-36 23 -70.5 33.5t-76.5 10.5q-78 0 -120.5 -56t-42.5 -159q0 -102 40 -158t115 -56q93 0 165 57l55 -131q-85 -72 -231 -72q-96 0 -165 43z" />
    <glyph glyph-name="Cacute" unicode="&#x106;" horiz-adv-x="602" 
d="M180 33q-69 43 -105 123.5t-36 192.5q0 110 39 191.5t111 125.5t170 44q132 0 207 -60l-55 -129q-36 23 -70.5 33.5t-76.5 10.5q-78 0 -120.5 -56t-42.5 -159q0 -102 40 -158t115 -56q93 0 165 57l55 -131q-85 -72 -231 -72q-96 0 -165 43zM301 850q19 37 26 58h147
l-67 -96q-25 -34 -33 -53h-121z" />
    <glyph glyph-name="Ccaron" unicode="&#x10c;" horiz-adv-x="602" 
d="M180 33q-69 43 -105 123.5t-36 192.5q0 110 39 191.5t111 125.5t170 44q132 0 207 -60l-55 -129q-36 23 -70.5 33.5t-76.5 10.5q-78 0 -120.5 -56t-42.5 -159q0 -102 40 -158t115 -56q93 0 165 57l55 -131q-85 -72 -231 -72q-96 0 -165 43zM324 865l19 -29h2l21 29
q18 25 25 42h123l-69 -92q-28 -38 -37 -57h-121l-111 149h123q5 -13 25 -42z" />
    <glyph glyph-name="Ccedilla" unicode="&#xc7;" horiz-adv-x="602" 
d="M180 33q-69 43 -105 123.5t-36 192.5q0 110 39 191.5t111 125.5t170 44q132 0 207 -60l-55 -129q-36 23 -70.5 33.5t-76.5 10.5q-78 0 -120.5 -56t-42.5 -159q0 -102 40 -158t115 -56q93 0 165 57l55 -131q-85 -72 -231 -72q-96 0 -165 43zM358 -45q38 -2 59.5 -23.5
t21.5 -58.5q0 -44 -31.5 -69t-78.5 -25q-29 0 -54.5 8t-41.5 19l17 67q34 -23 68 -23q16 0 25.5 7t9.5 20q0 32 -78 31l42 117h67z" />
    <glyph glyph-name="Ccircumflex" unicode="&#x108;" horiz-adv-x="602" 
d="M180 33q-69 43 -105 123.5t-36 192.5q0 110 39 191.5t111 125.5t170 44q132 0 207 -60l-55 -129q-36 23 -70.5 33.5t-76.5 10.5q-78 0 -120.5 -56t-42.5 -159q0 -102 40 -158t115 -56q93 0 165 57l55 -131q-85 -72 -231 -72q-96 0 -165 43zM378.5 782.5
q-9.5 13.5 -12.5 17.5l-19 29h-2l-20 -29q-16 -22 -25 -42h-124l69 92q22 26 37 57h121l111 -149h-122q-4 11 -13.5 24.5z" />
    <glyph glyph-name="Cdotaccent" unicode="&#x10a;" horiz-adv-x="602" 
d="M180 33q-69 43 -105 123.5t-36 192.5q0 110 39 191.5t111 125.5t170 44q132 0 207 -60l-55 -129q-36 23 -70.5 33.5t-76.5 10.5q-78 0 -120.5 -56t-42.5 -159q0 -102 40 -158t115 -56q93 0 165 57l55 -131q-85 -72 -231 -72q-96 0 -165 43zM285 781q-23 22 -23 59t23 59
t60 22t60 -22t23 -59t-23 -59t-60 -22t-60 22z" />
    <glyph glyph-name="D" unicode="D" horiz-adv-x="682" 
d="M552.5 617q91.5 -83 91.5 -251q0 -177 -93.5 -271.5t-264.5 -94.5h-224v593q0 72 -7 107h221q185 0 276.5 -83zM216 558v-319q0 -51 2 -97h47q114 0 165.5 53.5t51.5 166.5q0 102 -47 149t-156 47h-63z" />
    <glyph glyph-name="Eth" unicode="&#xd0;" horiz-adv-x="690" 
d="M560 617q91 -83 91 -251q0 -178 -93 -272t-264 -94h-224v306h-64v110h64v177q0 60 -7 107h220q186 0 277 -83zM438.5 196.5q51.5 54.5 51.5 168.5q-1 100 -48.5 146.5t-154.5 46.5h-63v-142h128v-110h-128v-67q0 -51 2 -97h46q115 0 166.5 54.5z" />
    <glyph glyph-name="Dcaron" unicode="&#x10e;" horiz-adv-x="682" 
d="M552.5 617q91.5 -83 91.5 -251q0 -177 -93.5 -271.5t-264.5 -94.5h-224v593q0 72 -7 107h221q185 0 276.5 -83zM216 558v-319q0 -51 2 -97h47q114 0 165.5 53.5t51.5 166.5q0 102 -47 149t-156 47h-63zM269 865l19 -29h2l21 29q18 25 25 42h123l-69 -92q-28 -38 -37 -57
h-121l-111 149h123q5 -13 25 -42z" />
    <glyph glyph-name="Dcroat" unicode="&#x110;" horiz-adv-x="690" 
d="M560 617q91 -83 91 -251q0 -178 -93 -272t-264 -94h-224v306h-64v110h64v177q0 60 -7 107h220q186 0 277 -83zM438.5 196.5q51.5 54.5 51.5 168.5q-1 100 -48.5 146.5t-154.5 46.5h-63v-142h128v-110h-128v-67q0 -51 2 -97h46q115 0 166.5 54.5z" />
    <glyph glyph-name="E" unicode="E" horiz-adv-x="522" 
d="M62 593q0 72 -7 107h418v-144q-42 6 -105 6h-152v-137h239v-137q-37 7 -105 7h-134v-75q0 -46 3 -82h156q64 0 106 6v-144h-419v593z" />
    <glyph glyph-name="Eacute" unicode="&#xc9;" horiz-adv-x="522" 
d="M62 593q0 72 -7 107h418v-144q-42 6 -105 6h-152v-137h239v-137q-37 7 -105 7h-134v-75q0 -46 3 -82h156q64 0 106 6v-144h-419v593zM220 850q19 37 26 58h147l-67 -96q-25 -34 -33 -53h-121z" />
    <glyph glyph-name="Ecaron" unicode="&#x11a;" horiz-adv-x="522" 
d="M62 593q0 72 -7 107h418v-144q-42 6 -105 6h-152v-137h239v-137q-37 7 -105 7h-134v-75q0 -46 3 -82h156q64 0 106 6v-144h-419v593zM243 865l19 -29h2l21 29q18 25 25 42h123l-69 -92q-28 -38 -37 -57h-121l-111 149h123q5 -13 25 -42z" />
    <glyph glyph-name="Ecircumflex" unicode="&#xca;" horiz-adv-x="522" 
d="M62 593q0 72 -7 107h418v-144q-42 6 -105 6h-152v-137h239v-137q-37 7 -105 7h-134v-75q0 -46 3 -82h156q64 0 106 6v-144h-419v593zM297.5 782.5q-9.5 13.5 -12.5 17.5l-19 29h-2l-20 -29q-16 -22 -25 -42h-124l69 92q22 26 37 57h121l111 -149h-122q-4 11 -13.5 24.5z
" />
    <glyph glyph-name="Edieresis" unicode="&#xcb;" horiz-adv-x="522" 
d="M62 593q0 72 -7 107h418v-144q-42 6 -105 6h-152v-137h239v-137q-37 7 -105 7h-134v-75q0 -46 3 -82h156q64 0 106 6v-144h-419v593zM104.5 780.5q-20.5 20.5 -20.5 51.5t20.5 50.5t51.5 19.5q32 0 52 -19.5t20 -50.5t-20.5 -51.5t-51.5 -20.5t-51.5 20.5zM319 781
q-20 20 -20 51t20 50.5t52 19.5t52 -19.5t20 -50.5t-20 -51t-52 -20t-52 20z" />
    <glyph glyph-name="Edotaccent" unicode="&#x116;" horiz-adv-x="522" 
d="M62 593q0 72 -7 107h418v-144q-42 6 -105 6h-152v-137h239v-137q-37 7 -105 7h-134v-75q0 -46 3 -82h156q64 0 106 6v-144h-419v593zM204 781q-23 22 -23 59t23 59t60 22t60 -22t23 -59t-23 -59t-60 -22t-60 22z" />
    <glyph glyph-name="Egrave" unicode="&#xc8;" horiz-adv-x="522" 
d="M62 593q0 72 -7 107h418v-144q-42 6 -105 6h-152v-137h239v-137q-37 7 -105 7h-134v-75q0 -46 3 -82h156q64 0 106 6v-144h-419v593zM251 758q-7 14 -33 53l-68 96h147q11 -29 26 -58l48 -91h-120z" />
    <glyph glyph-name="Emacron" unicode="&#x112;" horiz-adv-x="522" 
d="M62 593q0 72 -7 107h418v-144q-42 6 -105 6h-152v-137h239v-137q-37 7 -105 7h-134v-75q0 -46 3 -82h156q64 0 106 6v-144h-419v593zM118 866h196q50 0 96 6v-95h-196q-43 0 -96 -5v94z" />
    <glyph glyph-name="Eogonek" unicode="&#x118;" horiz-adv-x="522" 
d="M62 593q0 72 -7 107h418v-144q-42 6 -105 6h-152v-137h239v-137q-37 7 -105 7h-134v-75q0 -46 3 -82h156q64 0 106 6v-144h-419v593zM313.5 -199.5q-22.5 20.5 -22.5 57.5q0 41 28 77t71 65h87q-38 -33 -60.5 -63.5t-22.5 -49.5q0 -20 20 -20q18 0 36 10l19 -71
q-41 -26 -96 -26q-37 0 -59.5 20.5z" />
    <glyph glyph-name="F" unicode="F" horiz-adv-x="487" 
d="M62 593q0 70 -7 107h400v-144q-33 6 -105 6h-134v-153h221v-137q-33 6 -105 6h-116v-177q0 -25 2 -54.5t5 -46.5h-161v593z" />
    <glyph glyph-name="G" unicode="G" horiz-adv-x="663" 
d="M485 693.5q60 -16.5 104 -46.5l-56 -129q-34 22 -76 34.5t-86 12.5q-80 0 -125 -56.5t-45 -153.5q0 -107 42.5 -163.5t122.5 -56.5q62 0 100 19v105h-99v125h246v-323q-101 -71 -251 -71q-158 0 -240.5 93t-82.5 269q0 109 39 190t111.5 124.5t172.5 43.5q63 0 123 -16.5
z" />
    <glyph glyph-name="Gbreve" unicode="&#x11e;" horiz-adv-x="663" 
d="M485 693.5q60 -16.5 104 -46.5l-56 -129q-34 22 -76 34.5t-86 12.5q-80 0 -125 -56.5t-45 -153.5q0 -107 42.5 -163.5t122.5 -56.5q62 0 100 19v105h-99v125h246v-323q-101 -71 -251 -71q-158 0 -240.5 93t-82.5 269q0 109 39 190t111.5 124.5t172.5 43.5q63 0 123 -16.5
zM238.5 792q-38.5 35 -38.5 107h92q0 -55 55 -55q56 0 56 55h92q0 -71 -39 -106.5t-109 -35.5t-108.5 35z" />
    <glyph glyph-name="Gcommaaccent" unicode="&#x122;" horiz-adv-x="663" 
d="M485 693.5q60 -16.5 104 -46.5l-56 -129q-34 22 -76 34.5t-86 12.5q-80 0 -125 -56.5t-45 -153.5q0 -107 42.5 -163.5t122.5 -56.5q62 0 100 19v105h-99v125h246v-323q-101 -71 -251 -71q-158 0 -240.5 93t-82.5 269q0 109 39 190t111.5 124.5t172.5 43.5q63 0 123 -16.5
zM281 -282q35 64 40 102q-20 5 -32 19.5t-12 37.5q0 29 19 46.5t50 17.5t49 -19.5t18 -52.5q0 -39 -19.5 -89.5t-48.5 -90.5z" />
    <glyph glyph-name="Gdotaccent" unicode="&#x120;" horiz-adv-x="663" 
d="M485 693.5q60 -16.5 104 -46.5l-56 -129q-34 22 -76 34.5t-86 12.5q-80 0 -125 -56.5t-45 -153.5q0 -107 42.5 -163.5t122.5 -56.5q62 0 100 19v105h-99v125h246v-323q-101 -71 -251 -71q-158 0 -240.5 93t-82.5 269q0 109 39 190t111.5 124.5t172.5 43.5q63 0 123 -16.5
zM287 781q-23 22 -23 59t23 59t60 22t60 -22t23 -59t-23 -59t-60 -22t-60 22z" />
    <glyph glyph-name="H" unicode="H" horiz-adv-x="676" 
d="M614 107q0 -25 2 -56t5 -51h-161v291h-244v-184q0 -71 7 -107h-161v593q0 70 -7 107h161v-264h244v157q0 70 -7 107h161v-593z" />
    <glyph glyph-name="Hbar" unicode="&#x126;" horiz-adv-x="676" 
d="M62 535h-56v79h56v6q0 17 -2 40.5t-5 39.5h161v-86h244v6q0 17 -2 40.5t-5 39.5h161v-86h56v-79h-56v-428q0 -25 2 -56t5 -51h-161v291h-244v-184q0 -25 2 -56.5t5 -50.5h-161v535zM460 436v99h-244v-99h244z" />
    <glyph glyph-name="I" unicode="I" horiz-adv-x="278" 
d="M218 50.5q2 -31.5 5 -50.5h-161v593q0 70 -7 107h161v-593q0 -25 2 -56.5z" />
    <glyph glyph-name="IJ" unicode="&#x132;" horiz-adv-x="567" 
d="M218 50.5q2 -31.5 5 -50.5h-161v593q0 70 -7 107h161v-593q0 -25 2 -56.5zM344 700h161v-614q0 -146 -57 -209.5t-182 -63.5l-28 141q57 0 85 36t28 115v488q0 72 -7 107z" />
    <glyph glyph-name="Iacute" unicode="&#xcd;" horiz-adv-x="278" 
d="M218 50.5q2 -31.5 5 -50.5h-161v593q0 70 -7 107h161v-593q0 -25 2 -56.5zM95 850q19 37 26 58h147l-67 -96q-25 -34 -33 -53h-121z" />
    <glyph glyph-name="Ibreve" unicode="&#x12c;" horiz-adv-x="278" 
d="M218 50.5q2 -31.5 5 -50.5h-161v593q0 70 -7 107h161v-593q0 -25 2 -56.5zM30.5 792q-38.5 35 -38.5 107h92q0 -55 55 -55q56 0 56 55h92q0 -71 -39 -106.5t-109 -35.5t-108.5 35z" />
    <glyph glyph-name="Icircumflex" unicode="&#xce;" horiz-adv-x="278" 
d="M218 50.5q2 -31.5 5 -50.5h-161v593q0 70 -7 107h161v-593q0 -25 2 -56.5zM172.5 782.5q-9.5 13.5 -12.5 17.5l-19 29h-2l-20 -29q-16 -22 -25 -42h-124l69 92q22 26 37 57h121l111 -149h-122q-4 11 -13.5 24.5z" />
    <glyph glyph-name="Idieresis" unicode="&#xcf;" horiz-adv-x="278" 
d="M218 50.5q2 -31.5 5 -50.5h-161v593q0 70 -7 107h161v-593q0 -25 2 -56.5zM-20.5 780.5q-20.5 20.5 -20.5 51.5t20.5 50.5t51.5 19.5q32 0 52 -19.5t20 -50.5t-20.5 -51.5t-51.5 -20.5t-51.5 20.5zM194 781q-20 20 -20 51t20 50.5t52 19.5t52 -19.5t20 -50.5t-20 -51
t-52 -20t-52 20z" />
    <glyph glyph-name="Idotaccent" unicode="&#x130;" horiz-adv-x="278" 
d="M218 50.5q2 -31.5 5 -50.5h-161v593q0 70 -7 107h161v-593q0 -25 2 -56.5zM79 781q-23 22 -23 59t23 59t60 22t60 -22t23 -59t-23 -59t-60 -22t-60 22z" />
    <glyph glyph-name="Igrave" unicode="&#xcc;" horiz-adv-x="278" 
d="M218 50.5q2 -31.5 5 -50.5h-161v593q0 70 -7 107h161v-593q0 -25 2 -56.5zM126 758q-7 14 -33 53l-68 96h147q11 -29 26 -58l48 -91h-120z" />
    <glyph glyph-name="Imacron" unicode="&#x12a;" horiz-adv-x="278" 
d="M218 50.5q2 -31.5 5 -50.5h-161v593q0 70 -7 107h161v-593q0 -25 2 -56.5zM-7 866h196q50 0 96 6v-95h-196q-43 0 -96 -5v94z" />
    <glyph glyph-name="Iogonek" unicode="&#x12e;" horiz-adv-x="278" 
d="M218 50.5q2 -31.5 5 -50.5h-161v593q0 70 -7 107h161v-593q0 -25 2 -56.5zM48.5 -199.5q-22.5 20.5 -22.5 57.5q0 41 28 77t71 65h87q-38 -33 -60.5 -63.5t-22.5 -49.5q0 -20 20 -20q18 0 36 10l19 -71q-41 -26 -96 -26q-37 0 -59.5 20.5z" />
    <glyph glyph-name="Itilde" unicode="&#x128;" horiz-adv-x="278" 
d="M218 50.5q2 -31.5 5 -50.5h-161v593q0 70 -7 107h161v-593q0 -25 2 -56.5zM163.5 773.5q-17.5 7.5 -38.5 20.5q-9 6 -17.5 10.5t-15.5 4.5q-15 0 -20.5 -9.5t-5.5 -26.5h-82q0 120 90 120q26 0 43.5 -7.5t38.5 -20.5q23 -15 34 -15q14 0 19.5 8.5t6.5 27.5h81
q0 -120 -90 -120q-26 0 -43.5 7.5z" />
    <glyph glyph-name="J" unicode="J" horiz-adv-x="289" 
d="M66 700h161v-614q0 -146 -57 -209.5t-182 -63.5l-28 141q57 0 85 36t28 115v488q0 72 -7 107z" />
    <glyph glyph-name="K" unicode="K" horiz-adv-x="626" 
d="M62 593q0 72 -7 107h161v-272h45l112 178q29 49 45 94h189l-197 -326l234 -374h-200q-21 51 -49 92l-106 164q-19 27 -46 27h-27v-176q0 -28 2 -59.5t5 -47.5h-161v593z" />
    <glyph glyph-name="Kcommaaccent" unicode="&#x136;" horiz-adv-x="626" 
d="M62 593q0 72 -7 107h161v-272h45l112 178q29 49 45 94h189l-197 -326l234 -374h-200q-21 51 -49 92l-106 164q-19 27 -46 27h-27v-176q0 -28 2 -59.5t5 -47.5h-161v593zM257 -282q35 64 40 102q-20 5 -32 19.5t-12 37.5q0 29 19 46.5t50 17.5t49 -19.5t18 -52.5
q0 -39 -19.5 -89.5t-48.5 -90.5z" />
    <glyph glyph-name="L" unicode="L" horiz-adv-x="484" 
d="M216 249q0 -69 4 -104h148q69 0 106 7v-152h-412v593q0 70 -7 107h161v-451z" />
    <glyph glyph-name="Lacute" unicode="&#x139;" horiz-adv-x="484" 
d="M216 249q0 -69 4 -104h148q69 0 106 7v-152h-412v593q0 70 -7 107h161v-451zM95 850q19 37 26 58h147l-67 -96q-25 -34 -33 -53h-121z" />
    <glyph glyph-name="Lcaron" unicode="&#x13d;" horiz-adv-x="484" 
d="M298 653q5 53 4 70h122l-24 -101q-11 -50 -13 -68h-100zM216 249q0 -69 4 -104h148q69 0 106 7v-152h-412v593q0 70 -7 107h161v-451z" />
    <glyph glyph-name="Lcommaaccent" unicode="&#x13b;" horiz-adv-x="484" 
d="M216 249q0 -69 4 -104h148q69 0 106 7v-152h-412v593q0 70 -7 107h161v-451zM192 -282q35 64 40 102q-20 5 -32 19.5t-12 37.5q0 29 19 46.5t50 17.5t49 -19.5t18 -52.5q0 -39 -19.5 -89.5t-48.5 -90.5z" />
    <glyph glyph-name="Ldot" unicode="&#x13f;" horiz-adv-x="484" 
d="M62 593q0 70 -7 107h161v-451q0 -69 4 -104h148q69 0 106 7v-152h-412v593zM327.5 305.5q-22.5 22.5 -22.5 53.5t22 53t54 22t54 -22t22 -53t-22 -53.5t-54 -22.5q-31 0 -53.5 22.5z" />
    <glyph glyph-name="Lslash" unicode="&#x141;" horiz-adv-x="488" 
d="M479 152v-152h-412v267l-78 -38v92l78 38v234q0 70 -7 107h161v-266l128 63v-92l-128 -62v-94q0 -65 3 -104h149q68 0 106 7z" />
    <glyph glyph-name="M" unicode="M" horiz-adv-x="882" 
d="M98 578q6 80 5 122h212l95 -362q17 -68 31 -174h3q13 88 35 174l96 362h215q-2 -65 5 -132l55 -568h-166l1 39q0 35 -3 71l-15 219q-7 100 -7 171h-3l-127 -500h-173l-123 500h-3q0 -71 -6 -175l-16 -212q-2 -24 -2 -66q0 -32 1 -47h-164z" />
    <glyph glyph-name="N" unicode="N" horiz-adv-x="683" 
d="M621 107q0 -70 7 -107h-191l-160 299q-34 64 -64 156h-3q6 -80 6 -136v-212q0 -70 7 -107h-161v593q0 70 -7 107h194l170 -338q18 -36 39 -103l14 -40h3q-8 65 -8 127v247q0 70 -7 107h161v-593z" />
    <glyph glyph-name="Nacute" unicode="&#x143;" horiz-adv-x="683" 
d="M621 107q0 -70 7 -107h-191l-160 299q-34 64 -64 156h-3q6 -80 6 -136v-212q0 -70 7 -107h-161v593q0 70 -7 107h194l170 -338q18 -36 39 -103l14 -40h3q-8 65 -8 127v247q0 70 -7 107h161v-593zM296 850q19 37 26 58h147l-67 -96q-25 -34 -33 -53h-121z" />
    <glyph glyph-name="Ncaron" unicode="&#x147;" horiz-adv-x="683" 
d="M621 107q0 -70 7 -107h-191l-160 299q-34 64 -64 156h-3q6 -80 6 -136v-212q0 -70 7 -107h-161v593q0 70 -7 107h194l170 -338q18 -36 39 -103l14 -40h3q-8 65 -8 127v247q0 70 -7 107h161v-593zM319 865l19 -29h2l21 29q18 25 25 42h123l-69 -92q-28 -38 -37 -57h-121
l-111 149h123q5 -13 25 -42z" />
    <glyph glyph-name="Ncommaaccent" unicode="&#x145;" horiz-adv-x="683" 
d="M621 107q0 -70 7 -107h-191l-160 299q-34 64 -64 156h-3q6 -80 6 -136v-212q0 -70 7 -107h-161v593q0 70 -7 107h194l170 -338q18 -36 39 -103l14 -40h3q-8 65 -8 127v247q0 70 -7 107h161v-593zM284 -282q35 64 40 102q-20 5 -32 19.5t-12 37.5q0 29 19 46.5t50 17.5
t49 -19.5t18 -52.5q0 -39 -19.5 -89.5t-48.5 -90.5z" />
    <glyph glyph-name="Eng" unicode="&#x14a;" horiz-adv-x="683" 
d="M621 700v-683q0 -126 -47 -186.5t-148 -65.5l-32 132q33 8 53 33t20 64v6h-30l-160 299q-30 58 -64 156h-3q6 -80 6 -136v-212q0 -70 7 -107h-161v593q0 70 -7 107h194l170 -338q18 -36 39 -103l14 -40h3q-8 65 -8 127v247q0 70 -7 107h161z" />
    <glyph glyph-name="Ntilde" unicode="&#xd1;" horiz-adv-x="683" 
d="M621 107q0 -70 7 -107h-191l-160 299q-34 64 -64 156h-3q6 -80 6 -136v-212q0 -70 7 -107h-161v593q0 70 -7 107h194l170 -338q18 -36 39 -103l14 -40h3q-8 65 -8 127v247q0 70 -7 107h161v-593zM364.5 773.5q-17.5 7.5 -38.5 20.5q-9 6 -17.5 10.5t-15.5 4.5
q-15 0 -20.5 -9.5t-5.5 -26.5h-82q0 120 90 120q26 0 43.5 -7.5t38.5 -20.5q23 -15 34 -15q14 0 19.5 8.5t6.5 27.5h81q0 -120 -90 -120q-26 0 -43.5 7.5z" />
    <glyph glyph-name="O" unicode="O" horiz-adv-x="702" 
d="M183.5 33q-70.5 43 -107.5 124t-37 193t37 193t107 124t168 43t168.5 -43t107.5 -124t37 -193t-37 -193t-107.5 -124t-168.5 -43q-97 0 -167.5 43zM462 191.5q39 56.5 39 158.5t-39 158.5t-111 56.5q-71 0 -110.5 -57t-39.5 -158t39.5 -158t110.5 -57q72 0 111 56.5z" />
    <glyph glyph-name="Oacute" unicode="&#xd3;" horiz-adv-x="702" 
d="M183.5 33q-70.5 43 -107.5 124t-37 193t37 193t107 124t168 43t168.5 -43t107.5 -124t37 -193t-37 -193t-107.5 -124t-168.5 -43q-97 0 -167.5 43zM462 191.5q39 56.5 39 158.5t-39 158.5t-111 56.5q-71 0 -110.5 -57t-39.5 -158t39.5 -158t110.5 -57q72 0 111 56.5z
M307 850q19 37 26 58h147l-67 -96q-25 -34 -33 -53h-121z" />
    <glyph glyph-name="Obreve" unicode="&#x14e;" horiz-adv-x="702" 
d="M183.5 33q-70.5 43 -107.5 124t-37 193t37 193t107 124t168 43t168.5 -43t107.5 -124t37 -193t-37 -193t-107.5 -124t-168.5 -43q-97 0 -167.5 43zM462 191.5q39 56.5 39 158.5t-39 158.5t-111 56.5q-71 0 -110.5 -57t-39.5 -158t39.5 -158t110.5 -57q72 0 111 56.5z
M242.5 792q-38.5 35 -38.5 107h92q0 -55 55 -55q56 0 56 55h92q0 -71 -39 -106.5t-109 -35.5t-108.5 35z" />
    <glyph glyph-name="Ocircumflex" unicode="&#xd4;" horiz-adv-x="702" 
d="M183.5 33q-70.5 43 -107.5 124t-37 193t37 193t107 124t168 43t168.5 -43t107.5 -124t37 -193t-37 -193t-107.5 -124t-168.5 -43q-97 0 -167.5 43zM462 191.5q39 56.5 39 158.5t-39 158.5t-111 56.5q-71 0 -110.5 -57t-39.5 -158t39.5 -158t110.5 -57q72 0 111 56.5z
M384.5 782.5q-9.5 13.5 -12.5 17.5l-19 29h-2l-20 -29q-16 -22 -25 -42h-124l69 92q22 26 37 57h121l111 -149h-122q-4 11 -13.5 24.5z" />
    <glyph glyph-name="Odieresis" unicode="&#xd6;" horiz-adv-x="702" 
d="M183.5 33q-70.5 43 -107.5 124t-37 193t37 193t107 124t168 43t168.5 -43t107.5 -124t37 -193t-37 -193t-107.5 -124t-168.5 -43q-97 0 -167.5 43zM462 191.5q39 56.5 39 158.5t-39 158.5t-111 56.5q-71 0 -110.5 -57t-39.5 -158t39.5 -158t110.5 -57q72 0 111 56.5z
M191.5 780.5q-20.5 20.5 -20.5 51.5t20.5 50.5t51.5 19.5q32 0 52 -19.5t20 -50.5t-20.5 -51.5t-51.5 -20.5t-51.5 20.5zM406 781q-20 20 -20 51t20 50.5t52 19.5t52 -19.5t20 -50.5t-20 -51t-52 -20t-52 20z" />
    <glyph glyph-name="Ograve" unicode="&#xd2;" horiz-adv-x="702" 
d="M183.5 33q-70.5 43 -107.5 124t-37 193t37 193t107 124t168 43t168.5 -43t107.5 -124t37 -193t-37 -193t-107.5 -124t-168.5 -43q-97 0 -167.5 43zM462 191.5q39 56.5 39 158.5t-39 158.5t-111 56.5q-71 0 -110.5 -57t-39.5 -158t39.5 -158t110.5 -57q72 0 111 56.5z
M338 758q-7 14 -33 53l-68 96h147q11 -29 26 -58l48 -91h-120z" />
    <glyph glyph-name="Ohungarumlaut" unicode="&#x150;" horiz-adv-x="702" 
d="M183.5 33q-70.5 43 -107.5 124t-37 193t37 193t107 124t168 43t168.5 -43t107.5 -124t37 -193t-37 -193t-107.5 -124t-168.5 -43q-97 0 -167.5 43zM462 191.5q39 56.5 39 158.5t-39 158.5t-111 56.5q-71 0 -110.5 -57t-39.5 -158t39.5 -158t110.5 -57q72 0 111 56.5z
M238 851l10.5 24.5t11.5 31.5h138l-50 -86q-24 -42 -32 -63h-121zM411 851q16 34 22 56h138l-50 -86q-6 -12 -10 -18q-16 -30 -22 -45h-120z" />
    <glyph glyph-name="Omacron" unicode="&#x14c;" horiz-adv-x="702" 
d="M183.5 33q-70.5 43 -107.5 124t-37 193t37 193t107 124t168 43t168.5 -43t107.5 -124t37 -193t-37 -193t-107.5 -124t-168.5 -43q-97 0 -167.5 43zM462 191.5q39 56.5 39 158.5t-39 158.5t-111 56.5q-71 0 -110.5 -57t-39.5 -158t39.5 -158t110.5 -57q72 0 111 56.5z
M205 866h196q50 0 96 6v-95h-196q-43 0 -96 -5v94z" />
    <glyph glyph-name="Oslash" unicode="&#xd8;" horiz-adv-x="702" 
d="M642.5 502.5q21.5 -67.5 21.5 -152.5q0 -112 -37 -193t-107.5 -124t-168.5 -43q-104 0 -180 51l-37 -53l-57 39l43 60q-81 95 -81 263q0 112 37 193t107 124t168 43q104 0 176 -49l41 58l57 -39l-45 -64q41 -46 62.5 -113.5zM222 230l215 305q-34 30 -86 30
q-71 0 -110.5 -57t-39.5 -158q0 -70 21 -120zM462 191.5q39 56.5 39 158.5q0 75 -22 125l-217 -307q35 -33 89 -33q72 0 111 56.5z" />
    <glyph glyph-name="Oslashacute" unicode="&#x1fe;" horiz-adv-x="702" 
d="M642.5 502.5q21.5 -67.5 21.5 -152.5q0 -112 -37 -193t-107.5 -124t-168.5 -43q-104 0 -180 51l-37 -53l-57 39l43 60q-81 95 -81 263q0 112 37 193t107 124t168 43q104 0 176 -49l41 58l57 -39l-45 -64q41 -46 62.5 -113.5zM222 230l215 305q-34 30 -86 30
q-71 0 -110.5 -57t-39.5 -158q0 -70 21 -120zM462 191.5q39 56.5 39 158.5q0 75 -22 125l-217 -307q35 -33 89 -33q72 0 111 56.5zM307 850q19 37 26 58h147l-67 -96q-25 -34 -33 -53h-121z" />
    <glyph glyph-name="Otilde" unicode="&#xd5;" horiz-adv-x="702" 
d="M183.5 33q-70.5 43 -107.5 124t-37 193t37 193t107 124t168 43t168.5 -43t107.5 -124t37 -193t-37 -193t-107.5 -124t-168.5 -43q-97 0 -167.5 43zM462 191.5q39 56.5 39 158.5t-39 158.5t-111 56.5q-71 0 -110.5 -57t-39.5 -158t39.5 -158t110.5 -57q72 0 111 56.5z
M375.5 773.5q-17.5 7.5 -38.5 20.5q-9 6 -17.5 10.5t-15.5 4.5q-15 0 -20.5 -9.5t-5.5 -26.5h-82q0 120 90 120q26 0 43.5 -7.5t38.5 -20.5q23 -15 34 -15q14 0 19.5 8.5t6.5 27.5h81q0 -120 -90 -120q-26 0 -43.5 7.5z" />
    <glyph glyph-name="OE" unicode="&#x152;" horiz-adv-x="904" 
d="M183 33q-70 43 -107 124t-37 193t36.5 193t106.5 124t168 43q57 0 98 -10h407v-144q-42 6 -105 6h-152v-137h239v-137q-37 7 -105 7h-134v-77q0 -44 3 -80h156q64 0 106 6v-144h-415q-43 -10 -97 -10q-98 0 -168 43zM444 150v401q-39 14 -93 14q-71 0 -110.5 -57
t-39.5 -158t39.5 -158t110.5 -57q56 0 93 15z" />
    <glyph glyph-name="P" unicode="P" horiz-adv-x="547" 
d="M459 645q68 -55 68 -170t-70 -179t-195 -64h-47v-125q0 -72 7 -107h-160v593q0 72 -7 107h195q141 0 209 -55zM215 566v-201h34q61 0 92.5 27t31.5 81q-1 93 -107 93h-51z" />
    <glyph glyph-name="Thorn" unicode="&#xde;" horiz-adv-x="547" 
d="M459 543.5q68 -55.5 68 -169.5q0 -115 -70 -179t-193 -64h-49v-24q0 -72 7 -107h-160v593q0 70 -7 107h160v-101h39q137 0 205 -55.5zM373 372q-1 93 -107 93h-51v-201h34q124 0 124 108z" />
    <glyph glyph-name="Q" unicode="Q" horiz-adv-x="703" 
d="M473 -85q-41 40 -73 58.5t-71 18.5q-84 0 -149.5 42t-103 123t-37.5 193t37 193t107.5 124t167.5 43q98 0 168.5 -42.5t107.5 -122.5t37 -189q0 -237 -161 -310v-2q13 -3 28.5 -10.5t31.5 -16.5q37 -22 69.5 -35t75.5 -16l-48 -128q-109 2 -187 77zM462 191.5
q39 56.5 39 158.5q0 101 -39.5 158t-110.5 57t-110.5 -57t-39.5 -158t39.5 -158t110.5 -57q72 0 111 56.5z" />
    <glyph glyph-name="R" unicode="R" horiz-adv-x="582" 
d="M468.5 648q64.5 -52 64.5 -165q0 -63 -31 -116.5t-89 -80.5l176 -286h-183q-20 52 -48 96l-72 119q-10 18 -18 24t-22 6h-31v-138q0 -67 6 -107h-159v592q0 73 -7 108h208q141 0 205.5 -52zM215 566v-196h49q57 0 86.5 27t29.5 78q0 91 -104 91h-61z" />
    <glyph glyph-name="Racute" unicode="&#x154;" horiz-adv-x="582" 
d="M468.5 648q64.5 -52 64.5 -165q0 -63 -31 -116.5t-89 -80.5l176 -286h-183q-20 52 -48 96l-72 119q-10 18 -18 24t-22 6h-31v-138q0 -67 6 -107h-159v592q0 73 -7 108h208q141 0 205.5 -52zM215 566v-196h49q57 0 86.5 27t29.5 78q0 91 -104 91h-61zM229 850q19 37 26 58
h147l-67 -96q-25 -34 -33 -53h-121z" />
    <glyph glyph-name="Rcaron" unicode="&#x158;" horiz-adv-x="582" 
d="M468.5 648q64.5 -52 64.5 -165q0 -63 -31 -116.5t-89 -80.5l176 -286h-183q-20 52 -48 96l-72 119q-10 18 -18 24t-22 6h-31v-138q0 -67 6 -107h-159v592q0 73 -7 108h208q141 0 205.5 -52zM215 566v-196h49q57 0 86.5 27t29.5 78q0 91 -104 91h-61zM252 865l19 -29h2
l21 29q18 25 25 42h123l-69 -92q-28 -38 -37 -57h-121l-111 149h123q5 -13 25 -42z" />
    <glyph glyph-name="Rcommaaccent" unicode="&#x156;" horiz-adv-x="582" 
d="M468.5 648q64.5 -52 64.5 -165q0 -63 -31 -116.5t-89 -80.5l176 -286h-183q-20 52 -48 96l-72 119q-10 18 -18 24t-22 6h-31v-138q0 -67 6 -107h-159v592q0 73 -7 108h208q141 0 205.5 -52zM215 566v-196h49q57 0 86.5 27t29.5 78q0 91 -104 91h-61zM240 -282
q35 64 40 102q-20 5 -32 19.5t-12 37.5q0 29 19 46.5t50 17.5t49 -19.5t18 -52.5q0 -39 -19.5 -89.5t-48.5 -90.5z" />
    <glyph glyph-name="S" unicode="S" horiz-adv-x="537" 
d="M385.5 692.5q53.5 -17.5 91.5 -49.5l-55 -128q-31 26 -69 41t-75 15q-34 0 -53 -16t-19 -45q0 -31 25.5 -50.5t95.5 -46.5q99 -37 140 -84t41 -125q0 -102 -65.5 -158t-180.5 -56q-128 0 -231 70l46 136q37 -29 87 -47t96 -18q42 0 64 16.5t22 47.5q0 30 -28 51t-104 48
q-90 30 -130.5 79t-40.5 130q0 96 61 151.5t167 55.5q61 0 114.5 -17.5z" />
    <glyph glyph-name="Sacute" unicode="&#x15a;" horiz-adv-x="537" 
d="M385.5 692.5q53.5 -17.5 91.5 -49.5l-55 -128q-31 26 -69 41t-75 15q-34 0 -53 -16t-19 -45q0 -31 25.5 -50.5t95.5 -46.5q99 -37 140 -84t41 -125q0 -102 -65.5 -158t-180.5 -56q-128 0 -231 70l46 136q37 -29 87 -47t96 -18q42 0 64 16.5t22 47.5q0 30 -28 51t-104 48
q-90 30 -130.5 79t-40.5 130q0 96 61 151.5t167 55.5q61 0 114.5 -17.5zM227 850q19 37 26 58h147l-67 -96q-25 -34 -33 -53h-121z" />
    <glyph glyph-name="Scaron" unicode="&#x160;" horiz-adv-x="537" 
d="M385.5 692.5q53.5 -17.5 91.5 -49.5l-55 -128q-31 26 -69 41t-75 15q-34 0 -53 -16t-19 -45q0 -31 25.5 -50.5t95.5 -46.5q99 -37 140 -84t41 -125q0 -102 -65.5 -158t-180.5 -56q-128 0 -231 70l46 136q37 -29 87 -47t96 -18q42 0 64 16.5t22 47.5q0 30 -28 51t-104 48
q-90 30 -130.5 79t-40.5 130q0 96 61 151.5t167 55.5q61 0 114.5 -17.5zM250 865l19 -29h2l21 29q18 25 25 42h123l-69 -92q-28 -38 -37 -57h-121l-111 149h123q5 -13 25 -42z" />
    <glyph glyph-name="Scedilla" unicode="&#x15e;" horiz-adv-x="537" 
d="M385.5 692.5q53.5 -17.5 91.5 -49.5l-55 -128q-31 26 -69 41t-75 15q-34 0 -53 -16t-19 -45q0 -31 25.5 -50.5t95.5 -46.5q99 -37 140 -84t41 -125q0 -102 -65.5 -158t-180.5 -56q-128 0 -231 70l46 136q37 -29 87 -47t96 -18q42 0 64 16.5t22 47.5q0 30 -28 51t-104 48
q-90 30 -130.5 79t-40.5 130q0 96 61 151.5t167 55.5q61 0 114.5 -17.5zM301 -43q38 -2 59.5 -23.5t21.5 -58.5q0 -44 -31.5 -69t-78.5 -25q-29 0 -54.5 8t-41.5 19l17 67q34 -23 68 -23q16 0 25.5 7t9.5 20q0 32 -78 31l42 117h67z" />
    <glyph glyph-name="Scommaaccent" unicode="&#x218;" horiz-adv-x="537" 
d="M385.5 692.5q53.5 -17.5 91.5 -49.5l-55 -128q-31 26 -69 41t-75 15q-34 0 -53 -16t-19 -45q0 -31 25.5 -50.5t95.5 -46.5q99 -37 140 -84t41 -125q0 -102 -65.5 -158t-180.5 -56q-128 0 -231 70l46 136q37 -29 87 -47t96 -18q42 0 64 16.5t22 47.5q0 30 -28 51t-104 48
q-90 30 -130.5 79t-40.5 130q0 96 61 151.5t167 55.5q61 0 114.5 -17.5zM213 -282q35 64 40 102q-20 5 -32 19.5t-12 37.5q0 29 19 46.5t50 17.5t49 -19.5t18 -52.5q0 -39 -19.5 -89.5t-48.5 -90.5z" />
    <glyph glyph-name="uni1E9E" unicode="&#x1e9e;" horiz-adv-x="655" 
d="M260 37l29 127q24 -16 48.5 -24.5t54.5 -8.5q34 0 53.5 24.5t19.5 64.5q0 46 -25 65.5t-75 19.5h-52v86l97 169v3h-194v-462q0 -27 2 -57.5t5 -43.5h-161v585q0 70 -7 115h511v-119l-66 -105q-27 -45 -43 -65v-3q76 -1 122.5 -51t46.5 -134q0 -104 -50.5 -168.5
t-146.5 -64.5q-98 0 -169 47z" />
    <glyph glyph-name="T" unicode="T" horiz-adv-x="516" 
d="M180 447q0 58 -4 108h-67q-66 0 -105 -7v152h507v-152q-37 7 -105 7h-70v-448q0 -26 2 -57t5 -50h-163v447z" />
    <glyph glyph-name="Tbar" unicode="&#x166;" horiz-adv-x="516" 
d="M336 555v-152h92v-109h-92v-187q0 -26 2 -57t5 -50h-163v294l-94 1v109l94 -1v152h-71q-66 0 -105 -7v152h507v-152q-37 7 -105 7h-70z" />
    <glyph glyph-name="Tcaron" unicode="&#x164;" horiz-adv-x="516" 
d="M180 447q0 58 -4 108h-67q-66 0 -105 -7v152h507v-152q-37 7 -105 7h-70v-448q0 -26 2 -57t5 -50h-163v447zM237 865l19 -29h2l21 29q18 25 25 42h123l-69 -92q-28 -38 -37 -57h-121l-111 149h123q5 -13 25 -42z" />
    <glyph glyph-name="uni0162" unicode="&#x162;" horiz-adv-x="516" 
d="M180 447q0 58 -4 108h-67q-66 0 -105 -7v152h507v-152q-37 7 -105 7h-70v-448q0 -26 2 -57t5 -50h-163v447zM289 -43q38 -2 59.5 -23.5t21.5 -58.5q0 -44 -31.5 -69t-78.5 -25q-29 0 -54.5 8t-41.5 19l17 67q34 -23 68 -23q16 0 25.5 7t9.5 20q0 32 -78 31l42 117h67z
" />
    <glyph glyph-name="uni021A" unicode="&#x21a;" horiz-adv-x="516" 
d="M180 447q0 58 -4 108h-67q-66 0 -105 -7v152h507v-152q-37 7 -105 7h-70v-448q0 -26 2 -57t5 -50h-163v447zM201 -282q35 64 40 102q-20 5 -32 19.5t-12 37.5q0 29 19 46.5t50 17.5t49 -19.5t18 -52.5q0 -39 -19.5 -89.5t-48.5 -90.5z" />
    <glyph glyph-name="U" unicode="U" horiz-adv-x="665" 
d="M123 63q-66 73 -66 231v299q0 72 -7 107h161v-364q0 -76 11.5 -119.5t37.5 -62.5t72 -19t72.5 19t38 62t11.5 120v257q0 72 -7 107h161v-406q0 -158 -66 -231t-210 -73q-143 0 -209 73z" />
    <glyph glyph-name="Uacute" unicode="&#xda;" horiz-adv-x="665" 
d="M123 63q-66 73 -66 231v299q0 72 -7 107h161v-364q0 -76 11.5 -119.5t37.5 -62.5t72 -19t72.5 19t38 62t11.5 120v257q0 72 -7 107h161v-406q0 -158 -66 -231t-210 -73q-143 0 -209 73zM278 850q19 37 26 58h147l-67 -96q-25 -34 -33 -53h-121z" />
    <glyph glyph-name="Ubreve" unicode="&#x16c;" horiz-adv-x="665" 
d="M123 63q-66 73 -66 231v299q0 72 -7 107h161v-364q0 -76 11.5 -119.5t37.5 -62.5t72 -19t72.5 19t38 62t11.5 120v257q0 72 -7 107h161v-406q0 -158 -66 -231t-210 -73q-143 0 -209 73zM213.5 792q-38.5 35 -38.5 107h92q0 -55 55 -55q56 0 56 55h92q0 -71 -39 -106.5
t-109 -35.5t-108.5 35z" />
    <glyph glyph-name="Ucircumflex" unicode="&#xdb;" horiz-adv-x="665" 
d="M123 63q-66 73 -66 231v299q0 72 -7 107h161v-364q0 -76 11.5 -119.5t37.5 -62.5t72 -19t72.5 19t38 62t11.5 120v257q0 72 -7 107h161v-406q0 -158 -66 -231t-210 -73q-143 0 -209 73zM355.5 782.5q-9.5 13.5 -12.5 17.5l-19 29h-2l-20 -29q-16 -22 -25 -42h-124l69 92
q22 26 37 57h121l111 -149h-122q-4 11 -13.5 24.5z" />
    <glyph glyph-name="Udieresis" unicode="&#xdc;" horiz-adv-x="665" 
d="M123 63q-66 73 -66 231v299q0 72 -7 107h161v-364q0 -76 11.5 -119.5t37.5 -62.5t72 -19t72.5 19t38 62t11.5 120v257q0 72 -7 107h161v-406q0 -158 -66 -231t-210 -73q-143 0 -209 73zM162.5 780.5q-20.5 20.5 -20.5 51.5t20.5 50.5t51.5 19.5q32 0 52 -19.5t20 -50.5
t-20.5 -51.5t-51.5 -20.5t-51.5 20.5zM377 781q-20 20 -20 51t20 50.5t52 19.5t52 -19.5t20 -50.5t-20 -51t-52 -20t-52 20z" />
    <glyph glyph-name="Ugrave" unicode="&#xd9;" horiz-adv-x="665" 
d="M123 63q-66 73 -66 231v299q0 72 -7 107h161v-364q0 -76 11.5 -119.5t37.5 -62.5t72 -19t72.5 19t38 62t11.5 120v257q0 72 -7 107h161v-406q0 -158 -66 -231t-210 -73q-143 0 -209 73zM309 758q-7 14 -33 53l-68 96h147q11 -29 26 -58l48 -91h-120z" />
    <glyph glyph-name="Uhungarumlaut" unicode="&#x170;" horiz-adv-x="665" 
d="M123 63q-66 73 -66 231v299q0 72 -7 107h161v-364q0 -76 11.5 -119.5t37.5 -62.5t72 -19t72.5 19t38 62t11.5 120v257q0 72 -7 107h161v-406q0 -158 -66 -231t-210 -73q-143 0 -209 73zM209 851l10.5 24.5t11.5 31.5h138l-50 -86q-24 -42 -32 -63h-121zM382 851
q16 34 22 56h138l-50 -86q-6 -12 -10 -18q-16 -30 -22 -45h-120z" />
    <glyph glyph-name="Umacron" unicode="&#x16a;" horiz-adv-x="665" 
d="M123 63q-66 73 -66 231v299q0 72 -7 107h161v-364q0 -76 11.5 -119.5t37.5 -62.5t72 -19t72.5 19t38 62t11.5 120v257q0 72 -7 107h161v-406q0 -158 -66 -231t-210 -73q-143 0 -209 73zM176 866h196q50 0 96 6v-95h-196q-43 0 -96 -5v94z" />
    <glyph glyph-name="Uogonek" unicode="&#x172;" horiz-adv-x="665" 
d="M608 700v-406q0 -92 -22 -154.5t-67 -98.5q-45 -41 -76.5 -85t-31.5 -69q0 -20 20 -20q17 0 37 10l19 -71q-21 -13 -43.5 -19.5t-53.5 -6.5q-37 0 -59.5 20.5t-22.5 57.5q0 61 73 134q-32 -2 -49 -2q-143 0 -209 73t-66 231v299q0 72 -7 107h161v-364q0 -76 11.5 -119.5
t37.5 -62.5t72 -19t72.5 19t38 62t11.5 120v257q0 72 -7 107h161z" />
    <glyph glyph-name="Uring" unicode="&#x16e;" horiz-adv-x="665" 
d="M123 63q-66 73 -66 231v299q0 72 -7 107h161v-364q0 -76 11.5 -119.5t37.5 -62.5t72 -19t72.5 19t38 62t11.5 120v257q0 72 -7 107h161v-406q0 -158 -66 -231t-210 -73q-143 0 -209 73zM395 784q-29 -29 -74 -29q-46 0 -74.5 26.5t-28.5 71.5q0 44 29 71.5t75 27.5
t74 -26t28 -70q0 -43 -29 -72zM354.5 887q-13.5 14 -33.5 14q-21 0 -33.5 -14t-12.5 -33t12.5 -32.5t33.5 -13.5q22 0 34.5 13t12.5 33q0 19 -13.5 33z" />
    <glyph glyph-name="Utilde" unicode="&#x168;" horiz-adv-x="665" 
d="M123 63q-66 73 -66 231v299q0 72 -7 107h161v-364q0 -76 11.5 -119.5t37.5 -62.5t72 -19t72.5 19t38 62t11.5 120v257q0 72 -7 107h161v-406q0 -158 -66 -231t-210 -73q-143 0 -209 73zM346.5 773.5q-17.5 7.5 -38.5 20.5q-9 6 -17.5 10.5t-15.5 4.5q-15 0 -20.5 -9.5
t-5.5 -26.5h-82q0 120 90 120q26 0 43.5 -7.5t38.5 -20.5q23 -15 34 -15q14 0 19.5 8.5t6.5 27.5h81q0 -120 -90 -120q-26 0 -43.5 7.5z" />
    <glyph glyph-name="V" unicode="V" horiz-adv-x="615" 
d="M64 500l-7 23q-34 116 -62 177h177q15 -46 46 -159l58 -224q22 -82 33 -150h4q19 93 35 149l61 228q23 84 31 156h172q-14 -79 -50 -192l-157 -508h-191z" />
    <glyph glyph-name="W" unicode="W" horiz-adv-x="944" 
d="M50 530q-19 91 -45 170h172q14 -54 34 -163l40 -217q4 -22 10 -66l9 -62h3q4 22 17 83l10 45l87 380h180l86 -381q14 -59 27 -127h3l21 128l41 219q18 99 19 161h169q-6 -65 -32 -177l-121 -523h-193l-79 367q-19 84 -29 148h-3q-12 -65 -32 -149l-85 -366h-193z" />
    <glyph glyph-name="Wacute" unicode="&#x1e82;" horiz-adv-x="944" 
d="M50 530q-19 91 -45 170h172q14 -54 34 -163l40 -217q4 -22 10 -66l9 -62h3q4 22 17 83l10 45l87 380h180l86 -381q14 -59 27 -127h3l21 128l41 219q18 99 19 161h169q-6 -65 -32 -177l-121 -523h-193l-79 367q-19 84 -29 148h-3q-12 -65 -32 -149l-85 -366h-193zM433 850
q19 37 26 58h147l-67 -96q-25 -34 -33 -53h-121z" />
    <glyph glyph-name="Wcircumflex" unicode="&#x174;" horiz-adv-x="944" 
d="M50 530q-19 91 -45 170h172q14 -54 34 -163l40 -217q4 -22 10 -66l9 -62h3q4 22 17 83l10 45l87 380h180l86 -381q14 -59 27 -127h3l21 128l41 219q18 99 19 161h169q-6 -65 -32 -177l-121 -523h-193l-79 367q-19 84 -29 148h-3q-12 -65 -32 -149l-85 -366h-193z
M510.5 782.5q-9.5 13.5 -12.5 17.5l-19 29h-2l-20 -29q-16 -22 -25 -42h-124l69 92q22 26 37 57h121l111 -149h-122q-4 11 -13.5 24.5z" />
    <glyph glyph-name="Wdieresis" unicode="&#x1e84;" horiz-adv-x="944" 
d="M50 530q-19 91 -45 170h172q14 -54 34 -163l40 -217q4 -22 10 -66l9 -62h3q4 22 17 83l10 45l87 380h180l86 -381q14 -59 27 -127h3l21 128l41 219q18 99 19 161h169q-6 -65 -32 -177l-121 -523h-193l-79 367q-19 84 -29 148h-3q-12 -65 -32 -149l-85 -366h-193z
M317.5 780.5q-20.5 20.5 -20.5 51.5t20.5 50.5t51.5 19.5q32 0 52 -19.5t20 -50.5t-20.5 -51.5t-51.5 -20.5t-51.5 20.5zM532 781q-20 20 -20 51t20 50.5t52 19.5t52 -19.5t20 -50.5t-20 -51t-52 -20t-52 20z" />
    <glyph glyph-name="Wgrave" unicode="&#x1e80;" horiz-adv-x="944" 
d="M50 530q-19 91 -45 170h172q14 -54 34 -163l40 -217q4 -22 10 -66l9 -62h3q4 22 17 83l10 45l87 380h180l86 -381q14 -59 27 -127h3l21 128l41 219q18 99 19 161h169q-6 -65 -32 -177l-121 -523h-193l-79 367q-19 84 -29 148h-3q-12 -65 -32 -149l-85 -366h-193zM464 758
q-7 14 -33 53l-68 96h147q11 -29 26 -58l48 -91h-120z" />
    <glyph glyph-name="X" unicode="X" horiz-adv-x="635" 
d="M32 58.5q19 32.5 38 62.5l143 231l-136 237q-36 64 -76 111h185q23 -30 52 -82l37 -66q19 -35 41 -85h2q8 19 44 86l34 61q31 55 41 86h178q-10 -27 -51 -96q-7 -11 -12.5 -20.5t-10.5 -17.5l-123 -212l141 -235q37 -62 84 -119h-188q-22 28 -52 79l-38 64q-34 61 -49 92
h-2q-22 -43 -52 -92l-38 -62q-32 -54 -42 -81h-181q12 26 31 58.5z" />
    <glyph glyph-name="Y" unicode="Y" horiz-adv-x="591" 
d="M226 282l-152 287l-14 25q-35 67 -63 106h183q16 -26 47 -98l34 -74q11 -24 20 -49l20 -49h3q7 18 27 65l13 32l32 75q30 69 35 98h177q-15 -46 -61 -137l-147 -281v-171q0 -55 7 -111h-161v282z" />
    <glyph glyph-name="Yacute" unicode="&#xdd;" horiz-adv-x="591" 
d="M226 282l-152 287l-14 25q-35 67 -63 106h183q16 -26 47 -98l34 -74q11 -24 20 -49l20 -49h3q7 18 27 65l13 32l32 75q30 69 35 98h177q-15 -46 -61 -137l-147 -281v-171q0 -55 7 -111h-161v282zM256 850q19 37 26 58h147l-67 -96q-25 -34 -33 -53h-121z" />
    <glyph glyph-name="Ycircumflex" unicode="&#x176;" horiz-adv-x="591" 
d="M226 282l-152 287l-14 25q-35 67 -63 106h183q16 -26 47 -98l34 -74q11 -24 20 -49l20 -49h3q7 18 27 65l13 32l32 75q30 69 35 98h177q-15 -46 -61 -137l-147 -281v-171q0 -55 7 -111h-161v282zM333.5 782.5q-9.5 13.5 -12.5 17.5l-19 29h-2l-20 -29q-16 -22 -25 -42
h-124l69 92q22 26 37 57h121l111 -149h-122q-4 11 -13.5 24.5z" />
    <glyph glyph-name="Ydieresis" unicode="&#x178;" horiz-adv-x="591" 
d="M226 282l-152 287l-14 25q-35 67 -63 106h183q16 -26 47 -98l34 -74q11 -24 20 -49l20 -49h3q7 18 27 65l13 32l32 75q30 69 35 98h177q-15 -46 -61 -137l-147 -281v-171q0 -55 7 -111h-161v282zM140.5 780.5q-20.5 20.5 -20.5 51.5t20.5 50.5t51.5 19.5q32 0 52 -19.5
t20 -50.5t-20.5 -51.5t-51.5 -20.5t-51.5 20.5zM355 781q-20 20 -20 51t20 50.5t52 19.5t52 -19.5t20 -50.5t-20 -51t-52 -20t-52 20z" />
    <glyph glyph-name="Ygrave" unicode="&#x1ef2;" horiz-adv-x="591" 
d="M226 282l-152 287l-14 25q-35 67 -63 106h183q16 -26 47 -98l34 -74q11 -24 20 -49l20 -49h3q7 18 27 65l13 32l32 75q30 69 35 98h177q-15 -46 -61 -137l-147 -281v-171q0 -55 7 -111h-161v282zM287 758q-7 14 -33 53l-68 96h147q11 -29 26 -58l48 -91h-120z" />
    <glyph glyph-name="Z" unicode="Z" horiz-adv-x="543" 
d="M22 128l240 341l23 31l39 52v3h-174q-76 0 -104 -7v152h474v-127l-238 -343q-29 -42 -61 -82v-3h181q81 0 113 7v-152h-493v128z" />
    <glyph glyph-name="Zacute" unicode="&#x179;" horiz-adv-x="543" 
d="M22 128l240 341l23 31l39 52v3h-174q-76 0 -104 -7v152h474v-127l-238 -343q-29 -42 -61 -82v-3h181q81 0 113 7v-152h-493v128zM228 850q19 37 26 58h147l-67 -96q-25 -34 -33 -53h-121z" />
    <glyph glyph-name="Zcaron" unicode="&#x17d;" horiz-adv-x="543" 
d="M22 128l240 341l23 31l39 52v3h-174q-76 0 -104 -7v152h474v-127l-238 -343q-29 -42 -61 -82v-3h181q81 0 113 7v-152h-493v128zM251 865l19 -29h2l21 29q18 25 25 42h123l-69 -92q-28 -38 -37 -57h-121l-111 149h123q5 -13 25 -42z" />
    <glyph glyph-name="Zdotaccent" unicode="&#x17b;" horiz-adv-x="543" 
d="M22 128l240 341l23 31l39 52v3h-174q-76 0 -104 -7v152h474v-127l-238 -343q-29 -42 -61 -82v-3h181q81 0 113 7v-152h-493v128zM212 781q-23 22 -23 59t23 59t60 22t60 -22t23 -59t-23 -59t-60 -22t-60 22z" />
    <glyph glyph-name="a" unicode="a" horiz-adv-x="455" 
d="M54.5 21.5q-32.5 31.5 -32.5 86.5q0 71 58.5 112t161.5 41h19v19q0 62 -61 62q-30 0 -57.5 -9t-57.5 -28l-28 112q36 21 83 34.5t93 13.5q87 0 130 -42.5t43 -128.5v-188q0 -71 8 -106h-132q-9 16 -12 43q-50 -53 -127 -53q-56 0 -88.5 31.5zM261 113v72h-25
q-35 0 -56.5 -16t-21.5 -43q0 -19 10 -29t29 -10q31 0 64 26z" />
    <glyph glyph-name="aacute" unicode="&#xe1;" horiz-adv-x="455" 
d="M54.5 21.5q-32.5 31.5 -32.5 86.5q0 71 58.5 112t161.5 41h19v19q0 62 -61 62q-30 0 -57.5 -9t-57.5 -28l-28 112q36 21 83 34.5t93 13.5q87 0 130 -42.5t43 -128.5v-188q0 -71 8 -106h-132q-9 16 -12 43q-50 -53 -127 -53q-56 0 -88.5 31.5zM261 113v72h-25
q-35 0 -56.5 -16t-21.5 -43q0 -19 10 -29t29 -10q31 0 64 26zM196 613q23 47 30 65h148l-72 -104q-26 -35 -38 -60h-121z" />
    <glyph glyph-name="abreve" unicode="&#x103;" horiz-adv-x="455" 
d="M54.5 21.5q-32.5 31.5 -32.5 86.5q0 71 58.5 112t161.5 41h19v19q0 62 -61 62q-30 0 -57.5 -9t-57.5 -28l-28 112q36 21 83 34.5t93 13.5q87 0 130 -42.5t43 -128.5v-188q0 -71 8 -106h-132q-9 16 -12 43q-50 -53 -127 -53q-56 0 -88.5 31.5zM261 113v72h-25
q-35 0 -56.5 -16t-21.5 -43q0 -19 10 -29t29 -10q31 0 64 26zM118.5 541.5q-38.5 35.5 -38.5 107.5h92q0 -57 55 -57q56 0 56 57h92q0 -72 -39 -107.5t-109 -35.5t-108.5 35.5z" />
    <glyph glyph-name="acircumflex" unicode="&#xe2;" horiz-adv-x="455" 
d="M54.5 21.5q-32.5 31.5 -32.5 86.5q0 71 58.5 112t161.5 41h19v19q0 62 -61 62q-30 0 -57.5 -9t-57.5 -28l-28 112q36 21 83 34.5t93 13.5q87 0 130 -42.5t43 -128.5v-188q0 -71 8 -106h-132q-9 16 -12 43q-50 -53 -127 -53q-56 0 -88.5 31.5zM261 113v72h-25
q-35 0 -56.5 -16t-21.5 -43q0 -19 10 -29t29 -10q31 0 64 26zM125 614q3 6 16 27t18 37h132l101 -164h-123q-3 13 -21 48l-19 37h-2l-20 -38q-17 -32 -21 -47h-123z" />
    <glyph glyph-name="adieresis" unicode="&#xe4;" horiz-adv-x="455" 
d="M54.5 21.5q-32.5 31.5 -32.5 86.5q0 71 58.5 112t161.5 41h19v19q0 62 -61 62q-30 0 -57.5 -9t-57.5 -28l-28 112q36 21 83 34.5t93 13.5q87 0 130 -42.5t43 -128.5v-188q0 -71 8 -106h-132q-9 16 -12 43q-50 -53 -127 -53q-56 0 -88.5 31.5zM261 113v72h-25
q-35 0 -56.5 -16t-21.5 -43q0 -19 10 -29t29 -10q31 0 64 26zM81.5 530q-20.5 20 -20.5 52q0 31 20.5 51t52.5 20t52 -20t20 -51q0 -32 -20 -52t-52 -20t-52.5 20zM267.5 530q-20.5 20 -20.5 52q0 31 20.5 51t52.5 20t52 -20t20 -51q0 -32 -20 -52t-52 -20t-52.5 20z" />
    <glyph glyph-name="agrave" unicode="&#xe0;" horiz-adv-x="455" 
d="M54.5 21.5q-32.5 31.5 -32.5 86.5q0 71 58.5 112t161.5 41h19v19q0 62 -61 62q-30 0 -57.5 -9t-57.5 -28l-28 112q36 21 83 34.5t93 13.5q87 0 130 -42.5t43 -128.5v-188q0 -71 8 -106h-132q-9 16 -12 43q-50 -53 -127 -53q-56 0 -88.5 31.5zM261 113v72h-25
q-35 0 -56.5 -16t-21.5 -43q0 -19 10 -29t29 -10q31 0 64 26zM147 574l-73 104h149q11 -30 30 -65l52 -99h-120q-8 18 -38 60z" />
    <glyph glyph-name="amacron" unicode="&#x101;" horiz-adv-x="455" 
d="M54.5 21.5q-32.5 31.5 -32.5 86.5q0 71 58.5 112t161.5 41h19v19q0 62 -61 62q-30 0 -57.5 -9t-57.5 -28l-28 112q36 21 83 34.5t93 13.5q87 0 130 -42.5t43 -128.5v-188q0 -71 8 -106h-132q-9 16 -12 43q-50 -53 -127 -53q-56 0 -88.5 31.5zM261 113v72h-25
q-35 0 -56.5 -16t-21.5 -43q0 -19 10 -29t29 -10q31 0 64 26zM81 621h196q50 0 96 6v-95h-196q-43 0 -96 -5v94z" />
    <glyph glyph-name="aogonek" unicode="&#x105;" horiz-adv-x="455" 
d="M54.5 21.5q-32.5 31.5 -32.5 86.5q0 71 58.5 112t161.5 41h19v19q0 62 -61 62q-30 0 -57.5 -9t-57.5 -28l-28 112q36 21 83 34.5t93 13.5q87 0 130 -42.5t43 -128.5v-188q0 -71 8 -106h-132q-9 16 -12 43q-50 -53 -127 -53q-56 0 -88.5 31.5zM261 113v72h-25
q-35 0 -56.5 -16t-21.5 -43q0 -19 10 -29t29 -10q31 0 64 26zM241.5 -199.5q-22.5 20.5 -22.5 57.5q0 41 28 77t71 65h87q-38 -33 -60.5 -63.5t-22.5 -49.5q0 -20 20 -20q18 0 36 10l19 -71q-41 -26 -96 -26q-37 0 -59.5 20.5z" />
    <glyph glyph-name="aring" unicode="&#xe5;" horiz-adv-x="455" 
d="M54.5 21.5q-32.5 31.5 -32.5 86.5q0 71 58.5 112t161.5 41h19v19q0 62 -61 62q-30 0 -57.5 -9t-57.5 -28l-28 112q36 21 83 34.5t93 13.5q87 0 130 -42.5t43 -128.5v-188q0 -71 8 -106h-132q-9 16 -12 43q-50 -53 -127 -53q-56 0 -88.5 31.5zM261 113v72h-25
q-35 0 -56.5 -16t-21.5 -43q0 -19 10 -29t29 -10q31 0 64 26zM300 531q-29 -29 -74 -29q-46 0 -74.5 26.5t-28.5 70.5q0 45 29 72.5t75 27.5q47 0 74.5 -26.5t27.5 -70.5q0 -42 -29 -71zM259.5 633.5q-13.5 14.5 -33.5 14.5q-21 0 -33.5 -14t-12.5 -34q0 -19 12.5 -32
t33.5 -13q22 0 34.5 13t12.5 32t-13.5 33.5z" />
    <glyph glyph-name="aringacute" unicode="&#x1fb;" horiz-adv-x="455" 
d="M54.5 21.5q-32.5 31.5 -32.5 86.5q0 71 58.5 112t161.5 41h19v19q0 62 -61 62q-30 0 -57.5 -9t-57.5 -28l-28 112q36 21 83 34.5t93 13.5q87 0 130 -42.5t43 -128.5v-188q0 -71 8 -106h-132q-9 16 -12 43q-50 -53 -127 -53q-56 0 -88.5 31.5zM261 113v72h-25
q-35 0 -56.5 -16t-21.5 -43q0 -19 10 -29t29 -10q31 0 64 26zM300 531q-29 -29 -74 -29q-46 0 -74.5 26.5t-28.5 70.5q0 45 29 72.5t75 27.5q47 0 74.5 -26.5t27.5 -70.5q0 -42 -29 -71zM259.5 633.5q-13.5 14.5 -33.5 14.5q-21 0 -33.5 -14t-12.5 -34q0 -19 12.5 -32
t33.5 -13q22 0 34.5 13t12.5 32t-13.5 33.5zM196 835q23 47 30 65h148l-72 -104q-26 -35 -38 -60h-121z" />
    <glyph glyph-name="atilde" unicode="&#xe3;" horiz-adv-x="455" 
d="M54.5 21.5q-32.5 31.5 -32.5 86.5q0 71 58.5 112t161.5 41h19v19q0 62 -61 62q-30 0 -57.5 -9t-57.5 -28l-28 112q36 21 83 34.5t93 13.5q87 0 130 -42.5t43 -128.5v-188q0 -71 8 -106h-132q-9 16 -12 43q-50 -53 -127 -53q-56 0 -88.5 31.5zM261 113v72h-25
q-35 0 -56.5 -16t-21.5 -43q0 -19 10 -29t29 -10q31 0 64 26zM253.5 530.5q-17.5 7.5 -38.5 20.5q-9 6 -17.5 10.5t-15.5 4.5q-15 0 -20.5 -9.5t-5.5 -26.5h-82q0 120 90 120q26 0 43.5 -7.5t38.5 -20.5q23 -15 34 -15q14 0 19.5 8.5t6.5 27.5h81q0 -120 -90 -120
q-26 0 -43.5 7.5z" />
    <glyph glyph-name="ae" unicode="&#xe6;" horiz-adv-x="701" 
d="M54.5 22q-32.5 32 -32.5 87q0 72 58.5 112t160.5 40h19v19q0 33 -15 47.5t-50 14.5q-52 0 -110 -37l-28 112q35 22 79 35t89 13q85 0 122 -60h2q53 60 135 60q97 0 144 -70t45 -203h-267q5 -44 26 -65.5t62 -21.5q33 0 68.5 11t66.5 29l29 -103q-77 -52 -188 -52
q-113 0 -167 70q-68 -70 -160 -70q-56 0 -88.5 32zM535 261q0 91 -57 91q-30 0 -49 -25t-23 -66h129zM273 117q-13 35 -13 74h-19q-35 0 -58.5 -15.5t-23.5 -45.5q0 -43 41 -43q40 0 73 30z" />
    <glyph glyph-name="aeacute" unicode="&#x1fd;" horiz-adv-x="701" 
d="M54.5 22q-32.5 32 -32.5 87q0 72 58.5 112t160.5 40h19v19q0 33 -15 47.5t-50 14.5q-52 0 -110 -37l-28 112q35 22 79 35t89 13q85 0 122 -60h2q53 60 135 60q97 0 144 -70t45 -203h-267q5 -44 26 -65.5t62 -21.5q33 0 68.5 11t66.5 29l29 -103q-77 -52 -188 -52
q-113 0 -167 70q-68 -70 -160 -70q-56 0 -88.5 32zM535 261q0 91 -57 91q-30 0 -49 -25t-23 -66h129zM273 117q-13 35 -13 74h-19q-35 0 -58.5 -15.5t-23.5 -45.5q0 -43 41 -43q40 0 73 30zM321 613q23 47 30 65h148l-72 -104q-26 -35 -38 -60h-121z" />
    <glyph glyph-name="b" unicode="b" horiz-adv-x="501" 
d="M191 410q74 55 139 55q75 0 110 -55t35 -172q0 -122 -42.5 -185t-124.5 -63q-38 0 -70 16.5t-56 44.5q-1 -14 -4.5 -28.5t-7.5 -22.5h-131q7 40 7 109v493q0 68 -7 108l152 10v-310zM191 311v-170q32 -23 67 -23q34 0 52 30t18 89q0 55 -14.5 77t-48.5 22q-36 0 -74 -25z
" />
    <glyph glyph-name="c" unicode="c" horiz-adv-x="401" 
d="M322.5 455q35.5 -10 62.5 -29l-44 -119q-36 29 -85 29q-40 0 -62.5 -29t-22.5 -79q0 -56 21 -83t63 -27q50 0 89 27l34 -117q-58 -38 -146 -38q-99 0 -154 60.5t-55 168.5q0 116 60 181t164 65q40 0 75.5 -10z" />
    <glyph glyph-name="cacute" unicode="&#x107;" horiz-adv-x="401" 
d="M322.5 455q35.5 -10 62.5 -29l-44 -119q-36 29 -85 29q-40 0 -62.5 -29t-22.5 -79q0 -56 21 -83t63 -27q50 0 89 27l34 -117q-58 -38 -146 -38q-99 0 -154 60.5t-55 168.5q0 116 60 181t164 65q40 0 75.5 -10zM198 613q23 47 30 65h148l-72 -104q-26 -35 -38 -60h-121z
" />
    <glyph glyph-name="ccaron" unicode="&#x10d;" horiz-adv-x="401" 
d="M322.5 455q35.5 -10 62.5 -29l-44 -119q-36 29 -85 29q-40 0 -62.5 -29t-22.5 -79q0 -56 21 -83t63 -27q50 0 89 27l34 -117q-58 -38 -146 -38q-99 0 -154 60.5t-55 168.5q0 116 60 181t164 65q40 0 75.5 -10zM332 578q-3 -6 -16 -27t-18 -37h-132l-101 164h123
q5 -17 21 -48l20 -37h1l20 38q17 32 21 47h123z" />
    <glyph glyph-name="ccedilla" unicode="&#xe7;" horiz-adv-x="401" 
d="M322.5 455q35.5 -10 62.5 -29l-44 -119q-36 29 -85 29q-40 0 -62.5 -29t-22.5 -79q0 -56 21 -83t63 -27q50 0 89 27l34 -117q-58 -38 -146 -38q-99 0 -154 60.5t-55 168.5q0 116 60 181t164 65q40 0 75.5 -10zM264 -43q38 -2 59.5 -23.5t21.5 -58.5q0 -44 -31.5 -69
t-78.5 -25q-29 0 -54.5 8t-41.5 19l17 67q34 -23 68 -23q16 0 25.5 7t9.5 20q0 32 -78 31l42 117h67z" />
    <glyph glyph-name="ccircumflex" unicode="&#x109;" horiz-adv-x="401" 
d="M322.5 455q35.5 -10 62.5 -29l-44 -119q-36 29 -85 29q-40 0 -62.5 -29t-22.5 -79q0 -56 21 -83t63 -27q50 0 89 27l34 -117q-58 -38 -146 -38q-99 0 -154 60.5t-55 168.5q0 116 60 181t164 65q40 0 75.5 -10zM127 614q3 6 16 27t18 37h132l101 -164h-123q-3 13 -21 48
l-19 37h-2l-20 -38q-17 -32 -21 -47h-123z" />
    <glyph glyph-name="cdotaccent" unicode="&#x10b;" horiz-adv-x="401" 
d="M322.5 455q35.5 -10 62.5 -29l-44 -119q-36 29 -85 29q-40 0 -62.5 -29t-22.5 -79q0 -56 21 -83t63 -27q50 0 89 27l34 -117q-58 -38 -146 -38q-99 0 -154 60.5t-55 168.5q0 116 60 181t164 65q40 0 75.5 -10zM169 529.5q-23 22.5 -23 59.5t23 59t60 22t60 -22t23 -59
t-23 -59.5t-60 -22.5t-60 22.5z" />
    <glyph glyph-name="d" unicode="d" horiz-adv-x="504" 
d="M457 109q0 -72 8 -109h-131q-9 16 -13 50q-27 -27 -61.5 -43.5t-73.5 -16.5q-74 0 -117 61t-43 165q0 118 46 183.5t129 65.5q64 0 111 -42v179q0 64 -7 108l152 10v-611zM173 225q0 -107 65 -107q38 0 74 24v176q-32 19 -66 19q-73 0 -73 -112z" />
    <glyph glyph-name="eth" unicode="&#xf0;" horiz-adv-x="497" 
d="M442 464.5q29 -84.5 29 -197.5q0 -131 -58 -204t-169 -73q-107 0 -164 63t-57 176q0 110 48.5 173t130.5 63q35 0 63 -12t46 -35l3 2q-25 75 -82 125l-85 -51l-33 48l66 39q-43 28 -64 38l78 95q48 -18 107 -60l87 52l32 -50l-72 -42q65 -65 94 -149.5zM303 145
q20 27 20 76q0 57 -18 86.5t-59 29.5q-40 0 -58 -30t-18 -87q0 -102 75 -102q38 0 58 27z" />
    <glyph glyph-name="dcaron" unicode="&#x10f;" horiz-adv-x="504" 
d="M457 109q0 -72 8 -109h-131q-9 16 -13 50q-27 -27 -61.5 -43.5t-73.5 -16.5q-74 0 -117 61t-43 165q0 118 46 183.5t129 65.5q64 0 111 -42v179q0 64 -7 108l152 10v-611zM507 640q5 53 4 70h122l-24 -101q-11 -50 -13 -68h-100zM173 225q0 -107 65 -107q38 0 74 24v176
q-32 19 -66 19q-73 0 -73 -112z" />
    <glyph glyph-name="dcroat" unicode="&#x111;" horiz-adv-x="504" 
d="M465 0h-131q-9 15 -13 50q-26 -27 -61 -43.5t-74 -16.5q-74 0 -117 61t-43 165q0 118 46 183.5t129 65.5q64 0 111 -42v103h-119l-1 104h120v2q0 20 -2 42.5t-5 35.5l152 10v-90h63v-104h-63v-417q0 -72 8 -109zM312 318q-32 19 -66 19q-73 0 -73 -112q0 -107 65 -107
q38 0 74 24v176z" />
    <glyph glyph-name="e" unicode="e" horiz-adv-x="474" 
d="M78.5 48q-55.5 58 -55.5 168q0 116 58.5 182.5t161.5 66.5q96 0 149.5 -56.5t53.5 -170.5q0 -18 -1 -28l-275 -25q5 -80 92 -80q40 0 77.5 12t66.5 33l30 -104q-80 -56 -196 -56q-106 0 -161.5 58zM309 275q0 35 -16.5 56t-46.5 21q-32 0 -53 -25.5t-24 -66.5z" />
    <glyph glyph-name="eacute" unicode="&#xe9;" horiz-adv-x="474" 
d="M78.5 48q-55.5 58 -55.5 168q0 116 58.5 182.5t161.5 66.5q96 0 149.5 -56.5t53.5 -170.5q0 -18 -1 -28l-275 -25q5 -80 92 -80q40 0 77.5 12t66.5 33l30 -104q-80 -56 -196 -56q-106 0 -161.5 58zM309 275q0 35 -16.5 56t-46.5 21q-32 0 -53 -25.5t-24 -66.5zM205 613
q23 47 30 65h148l-72 -104q-26 -35 -38 -60h-121z" />
    <glyph glyph-name="ecaron" unicode="&#x11b;" horiz-adv-x="474" 
d="M78.5 48q-55.5 58 -55.5 168q0 116 58.5 182.5t161.5 66.5q96 0 149.5 -56.5t53.5 -170.5q0 -18 -1 -28l-275 -25q5 -80 92 -80q40 0 77.5 12t66.5 33l30 -104q-80 -56 -196 -56q-106 0 -161.5 58zM309 275q0 35 -16.5 56t-46.5 21q-32 0 -53 -25.5t-24 -66.5zM339 578
q-3 -6 -16 -27t-18 -37h-132l-101 164h123q5 -17 21 -48l20 -37h1l20 38q17 32 21 47h123z" />
    <glyph glyph-name="ecircumflex" unicode="&#xea;" horiz-adv-x="474" 
d="M78.5 48q-55.5 58 -55.5 168q0 116 58.5 182.5t161.5 66.5q96 0 149.5 -56.5t53.5 -170.5q0 -18 -1 -28l-275 -25q5 -80 92 -80q40 0 77.5 12t66.5 33l30 -104q-80 -56 -196 -56q-106 0 -161.5 58zM309 275q0 35 -16.5 56t-46.5 21q-32 0 -53 -25.5t-24 -66.5zM134 614
q3 6 16 27t18 37h132l101 -164h-123q-3 13 -21 48l-19 37h-2l-20 -38q-17 -32 -21 -47h-123z" />
    <glyph glyph-name="edieresis" unicode="&#xeb;" horiz-adv-x="474" 
d="M78.5 48q-55.5 58 -55.5 168q0 116 58.5 182.5t161.5 66.5q96 0 149.5 -56.5t53.5 -170.5q0 -18 -1 -28l-275 -25q5 -80 92 -80q40 0 77.5 12t66.5 33l30 -104q-80 -56 -196 -56q-106 0 -161.5 58zM309 275q0 35 -16.5 56t-46.5 21q-32 0 -53 -25.5t-24 -66.5zM90.5 530
q-20.5 20 -20.5 52q0 31 20.5 51t52.5 20t52 -20t20 -51q0 -32 -20 -52t-52 -20t-52.5 20zM276.5 530q-20.5 20 -20.5 52q0 31 20.5 51t52.5 20t52 -20t20 -51q0 -32 -20 -52t-52 -20t-52.5 20z" />
    <glyph glyph-name="edotaccent" unicode="&#x117;" horiz-adv-x="474" 
d="M78.5 48q-55.5 58 -55.5 168q0 116 58.5 182.5t161.5 66.5q96 0 149.5 -56.5t53.5 -170.5q0 -18 -1 -28l-275 -25q5 -80 92 -80q40 0 77.5 12t66.5 33l30 -104q-80 -56 -196 -56q-106 0 -161.5 58zM309 275q0 35 -16.5 56t-46.5 21q-32 0 -53 -25.5t-24 -66.5zM176 529.5
q-23 22.5 -23 59.5t23 59t60 22t60 -22t23 -59t-23 -59.5t-60 -22.5t-60 22.5z" />
    <glyph glyph-name="egrave" unicode="&#xe8;" horiz-adv-x="474" 
d="M78.5 48q-55.5 58 -55.5 168q0 116 58.5 182.5t161.5 66.5q96 0 149.5 -56.5t53.5 -170.5q0 -18 -1 -28l-275 -25q5 -80 92 -80q40 0 77.5 12t66.5 33l30 -104q-80 -56 -196 -56q-106 0 -161.5 58zM309 275q0 35 -16.5 56t-46.5 21q-32 0 -53 -25.5t-24 -66.5zM156 574
l-73 104h149q11 -30 30 -65l52 -99h-120q-8 18 -38 60z" />
    <glyph glyph-name="emacron" unicode="&#x113;" horiz-adv-x="474" 
d="M78.5 48q-55.5 58 -55.5 168q0 116 58.5 182.5t161.5 66.5q96 0 149.5 -56.5t53.5 -170.5q0 -18 -1 -28l-275 -25q5 -80 92 -80q40 0 77.5 12t66.5 33l30 -104q-80 -56 -196 -56q-106 0 -161.5 58zM309 275q0 35 -16.5 56t-46.5 21q-32 0 -53 -25.5t-24 -66.5zM90 621
h196q50 0 96 6v-95h-196q-43 0 -96 -5v94z" />
    <glyph glyph-name="eogonek" unicode="&#x119;" horiz-adv-x="474" 
d="M392.5 408.5q53.5 -56.5 53.5 -170.5q0 -18 -1 -28l-275 -25q5 -80 92 -80q40 0 77.5 12t66.5 33l30 -104q-46 -42 -79.5 -87.5t-33.5 -71.5q0 -20 20 -20q18 0 36 10l19 -71q-41 -26 -96 -26q-37 0 -59.5 20.5t-22.5 57.5q0 62 73 135q-25 -3 -53 -3q-106 0 -161.5 58
t-55.5 168q0 116 58.5 182.5t161.5 66.5q96 0 149.5 -56.5zM309 275q0 35 -16.5 56t-46.5 21q-32 0 -53 -25.5t-24 -66.5z" />
    <glyph glyph-name="f" unicode="f" horiz-adv-x="345" 
d="M238 0h-152v339h-62v116h62v85q0 176 169 176q63 0 128 -30l-32 -116q-28 17 -66 17q-29 0 -41.5 -16t-12.5 -53v-63h99v-116h-99v-231q0 -66 7 -108z" />
    <glyph glyph-name="g" unicode="g" horiz-adv-x="504" 
d="M140.5 -224q-41.5 11 -81.5 34l33 120q28 -19 60.5 -29t64.5 -10q95 0 95 94v56q-23 -23 -58.5 -37t-69.5 -14q-73 0 -115.5 61t-42.5 165q0 119 46.5 184t128.5 65q70 0 122 -58q3 26 12 48h130q-8 -37 -8 -107v-345q0 -121 -56 -179.5t-170 -58.5q-49 0 -90.5 11z
M312 140v174q-30 23 -66 23q-73 0 -73 -113q0 -54 16.5 -80t50.5 -26q37 0 72 22z" />
    <glyph glyph-name="gbreve" unicode="&#x11f;" horiz-adv-x="504" 
d="M140.5 -224q-41.5 11 -81.5 34l33 120q28 -19 60.5 -29t64.5 -10q95 0 95 94v56q-23 -23 -58.5 -37t-69.5 -14q-73 0 -115.5 61t-42.5 165q0 119 46.5 184t128.5 65q70 0 122 -58q3 26 12 48h130q-8 -37 -8 -107v-345q0 -121 -56 -179.5t-170 -58.5q-49 0 -90.5 11z
M312 140v174q-30 23 -66 23q-73 0 -73 -113q0 -54 16.5 -80t50.5 -26q37 0 72 22zM136.5 541.5q-38.5 35.5 -38.5 107.5h92q0 -57 55 -57q56 0 56 57h92q0 -72 -39 -107.5t-109 -35.5t-108.5 35.5z" />
    <glyph glyph-name="gcommaaccent" unicode="&#x123;" horiz-adv-x="504" 
d="M140.5 -224q-41.5 11 -81.5 34l33 120q28 -19 60.5 -29t64.5 -10q95 0 95 94v56q-23 -23 -58.5 -37t-69.5 -14q-73 0 -115.5 61t-42.5 165q0 119 46.5 184t128.5 65q70 0 122 -58q3 26 12 48h130q-8 -37 -8 -107v-345q0 -121 -56 -179.5t-170 -58.5q-49 0 -90.5 11z
M312 140v174q-30 23 -66 23q-73 0 -73 -113q0 -54 16.5 -80t50.5 -26q37 0 72 22zM193.5 531.5q-18.5 19.5 -18.5 52.5q0 39 20 90t49 90l64 -29q-35 -64 -40 -102q20 -5 32 -19t12 -38q0 -28 -19 -46t-50 -18t-49.5 19.5z" />
    <glyph glyph-name="gdotaccent" unicode="&#x121;" horiz-adv-x="504" 
d="M140.5 -224q-41.5 11 -81.5 34l33 120q28 -19 60.5 -29t64.5 -10q95 0 95 94v56q-23 -23 -58.5 -37t-69.5 -14q-73 0 -115.5 61t-42.5 165q0 119 46.5 184t128.5 65q70 0 122 -58q3 26 12 48h130q-8 -37 -8 -107v-345q0 -121 -56 -179.5t-170 -58.5q-49 0 -90.5 11z
M312 140v174q-30 23 -66 23q-73 0 -73 -113q0 -54 16.5 -80t50.5 -26q37 0 72 22zM185 529.5q-23 22.5 -23 59.5t23 59t60 22t60 -22t23 -59t-23 -59.5t-60 -22.5t-60 22.5z" />
    <glyph glyph-name="h" unicode="h" horiz-adv-x="491" 
d="M46 598q0 68 -7 112l152 10v-311q30 26 65.5 41t69.5 15q62 0 90.5 -35.5t28.5 -117.5v-201q0 -76 7 -111h-152v274q0 33 -10.5 47.5t-33.5 14.5q-28 0 -65 -24v-200q0 -68 7 -112h-152v598z" />
    <glyph glyph-name="hbar" unicode="&#x127;" horiz-adv-x="491" 
d="M300 0v274q0 33 -10.5 47.5t-33.5 14.5q-28 0 -65 -24v-200q0 -68 7 -112h-152v526h-63l1 104h61v2q0 42 -6 78l152 10v-90h121l-1 -104h-120v-117q30 26 65.5 41t69.5 15q62 0 90.5 -35.5t28.5 -117.5v-201q0 -76 7 -111h-152z" />
    <glyph glyph-name="i" unicode="i" horiz-adv-x="237" 
d="M57 534.5q-24 23.5 -24 61.5q0 37 24 60.5t62 23.5t62 -23.5t24 -60.5q0 -38 -24 -61.5t-62 -23.5t-62 23.5zM46 343q0 67 -7 112h152v-343q0 -68 7 -112h-152v343z" />
    <glyph glyph-name="dotlessi" unicode="&#x131;" horiz-adv-x="237" 
d="M46 343q0 67 -7 112h152v-343q0 -68 7 -112h-152v343z" />
    <glyph glyph-name="iacute" unicode="&#xed;" horiz-adv-x="237" 
d="M46 343q0 67 -7 112h152v-343q0 -68 7 -112h-152v343zM87 613q23 47 30 65h148l-72 -104q-26 -35 -38 -60h-121z" />
    <glyph glyph-name="ibreve" unicode="&#x12d;" horiz-adv-x="237" 
d="M46 343q0 67 -7 112h152v-343q0 -68 7 -112h-152v343zM9.5 541.5q-38.5 35.5 -38.5 107.5h92q0 -57 55 -57q56 0 56 57h92q0 -72 -39 -107.5t-109 -35.5t-108.5 35.5z" />
    <glyph glyph-name="icircumflex" unicode="&#xee;" horiz-adv-x="237" 
d="M46 343q0 67 -7 112h152v-343q0 -68 7 -112h-152v343zM15 614q3 6 16 27t18 37h132l101 -164h-123q-3 13 -21 48l-19 37h-2l-20 -38q-17 -32 -21 -47h-123z" />
    <glyph glyph-name="idieresis" unicode="&#xef;" horiz-adv-x="237" 
d="M46 343q0 67 -7 112h152v-343q0 -68 7 -112h-152v343zM-27.5 530q-20.5 20 -20.5 52q0 31 20.5 51t52.5 20t52 -20t20 -51q0 -32 -20 -52t-52 -20t-52.5 20zM158.5 530q-20.5 20 -20.5 52q0 31 20.5 51t52.5 20t52 -20t20 -51q0 -32 -20 -52t-52 -20t-52.5 20z" />
    <glyph glyph-name="i.loclTRK" horiz-adv-x="237" 
d="M46 343q0 67 -7 112h152v-343q0 -68 7 -112h-152v343zM58 529.5q-23 22.5 -23 59.5t23 59t60 22t60 -22t23 -59t-23 -59.5t-60 -22.5t-60 22.5z" />
    <glyph glyph-name="igrave" unicode="&#xec;" horiz-adv-x="237" 
d="M46 343q0 67 -7 112h152v-343q0 -68 7 -112h-152v343zM38 574l-73 104h149q11 -30 30 -65l52 -99h-120q-8 18 -38 60z" />
    <glyph glyph-name="ij" unicode="&#x133;" horiz-adv-x="474" 
d="M57 534.5q-24 23.5 -24 61.5q0 37 24 60.5t62 23.5t62 -23.5t24 -60.5q0 -38 -24 -61.5t-62 -23.5t-62 23.5zM46 343q0 67 -7 112h152v-343q0 -68 7 -112h-152v343zM294 534.5q-24 23.5 -24 61.5q0 37 24 60.5t62 23.5t62 -23.5t24 -60.5q0 -38 -24 -61.5t-62 -23.5
t-62 23.5zM202 -106q43 10 62 41.5t19 93.5v316q0 66 -7 110h152v-440q0 -124 -47.5 -184.5t-147.5 -65.5z" />
    <glyph glyph-name="imacron" unicode="&#x12b;" horiz-adv-x="237" 
d="M46 343q0 67 -7 112h152v-343q0 -68 7 -112h-152v343zM-28 621h196q50 0 96 6v-95h-196q-43 0 -96 -5v94z" />
    <glyph glyph-name="iogonek" unicode="&#x12f;" horiz-adv-x="237" 
d="M46 343q0 67 -7 112h152v-343q0 -68 7 -112h-152v343zM58 529.5q-23 22.5 -23 59.5t23 59t60 22t60 -22t23 -59t-23 -59.5t-60 -22.5t-60 22.5zM29.5 -199.5q-22.5 20.5 -22.5 57.5q0 41 28 77t71 65h87q-38 -33 -60.5 -63.5t-22.5 -49.5q0 -20 20 -20q18 0 36 10l19 -71
q-41 -26 -96 -26q-37 0 -59.5 20.5z" />
    <glyph glyph-name="itilde" unicode="&#x129;" horiz-adv-x="237" 
d="M46 343q0 67 -7 112h152v-343q0 -68 7 -112h-152v343zM144.5 530.5q-17.5 7.5 -38.5 20.5q-9 6 -17.5 10.5t-15.5 4.5q-15 0 -20.5 -9.5t-5.5 -26.5h-82q0 120 90 120q26 0 43.5 -7.5t38.5 -20.5q23 -15 34 -15q14 0 19.5 8.5t6.5 27.5h81q0 -120 -90 -120
q-26 0 -43.5 7.5z" />
    <glyph glyph-name="j" unicode="j" horiz-adv-x="237" 
d="M57 534.5q-24 23.5 -24 61.5q0 37 24 60.5t62 23.5t62 -23.5t24 -60.5q0 -38 -24 -61.5t-62 -23.5t-62 23.5zM-35 -106q43 10 62 41.5t19 93.5v316q0 66 -7 110h152v-440q0 -124 -47.5 -184.5t-147.5 -65.5z" />
    <glyph glyph-name="uni0237" unicode="&#x237;" horiz-adv-x="237" 
d="M-35 -106q43 10 62 41.5t19 93.5v316q0 66 -7 110h152v-440q0 -124 -47.5 -184.5t-147.5 -65.5z" />
    <glyph glyph-name="k" unicode="k" horiz-adv-x="495" 
d="M191 301h18l70 92q25 34 37 62h169l-148 -203l172 -252h-173q-11 29 -41 74l-65 90q-8 10 -13.5 15t-13.5 5h-12v-76q0 -68 7 -108h-152v602q0 68 -7 108l152 10v-419z" />
    <glyph glyph-name="kcommaaccent" unicode="&#x137;" horiz-adv-x="495" 
d="M191 301h18l70 92q25 34 37 62h169l-148 -203l172 -252h-173q-11 29 -41 74l-65 90q-8 10 -13.5 15t-13.5 5h-12v-76q0 -68 7 -108h-152v602q0 68 -7 108l152 10v-419zM192 -282q35 64 40 102q-20 5 -32 19.5t-12 37.5q0 29 19 46.5t50 17.5t49 -19.5t18 -52.5
q0 -39 -19.5 -89.5t-48.5 -90.5z" />
    <glyph glyph-name="kgreenlandic" unicode="&#x138;" horiz-adv-x="495" 
d="M191 291h17l68 96q11 15 23 35t16 33h170l-148 -213l172 -242h-173q-10 30 -37 66l-64 87q-8 11 -14.5 15.5t-15.5 4.5h-14v-65q0 -68 7 -108h-152v347q0 76 -7 108h152v-164z" />
    <glyph glyph-name="l" unicode="l" horiz-adv-x="310" 
d="M189 183q0 -38 8.5 -51.5t30.5 -13.5q29 0 54 11l25 -114q-21 -11 -54.5 -18t-65.5 -7q-76 0 -109.5 42t-33.5 136v434q0 68 -7 108l152 10v-537z" />
    <glyph glyph-name="lacute" unicode="&#x13a;" horiz-adv-x="310" 
d="M189 183q0 -38 8.5 -51.5t30.5 -13.5q29 0 54 11l25 -114q-21 -11 -54.5 -18t-65.5 -7q-76 0 -109.5 42t-33.5 136v434q0 68 -7 108l152 10v-537zM84 855q19 37 26 58h147l-67 -96q-25 -34 -33 -53h-121z" />
    <glyph glyph-name="lcaron" unicode="&#x13e;" horiz-adv-x="310" 
d="M189 183q0 -38 8.5 -51.5t30.5 -13.5q29 0 54 11l25 -114q-21 -11 -54.5 -18t-65.5 -7q-76 0 -109.5 42t-33.5 136v434q0 68 -7 108l152 10v-537zM238 640l3.5 31.5t1.5 38.5h122l-24 -101q-2 -7 -7 -29t-6 -39h-100z" />
    <glyph glyph-name="lcommaaccent" unicode="&#x13c;" horiz-adv-x="310" 
d="M189 183q0 -38 8.5 -51.5t30.5 -13.5q29 0 54 11l25 -114q-21 -11 -54.5 -18t-65.5 -7q-76 0 -109.5 42t-33.5 136v434q0 68 -7 108l152 10v-537zM98 -282q35 64 40 102q-20 5 -32 19.5t-12 37.5q0 29 19 46.5t50 17.5t49 -19.5t18 -52.5q0 -39 -19.5 -89.5t-48.5 -90.5z
" />
    <glyph glyph-name="ldot" unicode="&#x140;" horiz-adv-x="409" 
d="M189 183q0 -38 8.5 -51.5t30.5 -13.5q29 0 54 11l25 -114q-21 -11 -54.5 -18t-65.5 -7q-76 0 -109.5 42t-33.5 136v434q0 68 -7 108l152 10v-537zM267.5 280.5q-22.5 22.5 -22.5 53.5q0 32 22.5 54t53.5 22q32 0 54 -22t22 -54q0 -31 -22 -53.5t-54 -22.5
q-31 0 -53.5 22.5z" />
    <glyph glyph-name="lslash" unicode="&#x142;" horiz-adv-x="336" 
d="M333 15q-22 -11 -55 -18t-65 -7q-76 0 -109.5 42t-33.5 136v111l-60 -30v101l60 30v222q0 68 -7 108l152 10v-267l76 39v-101l-76 -39v-169q0 -38 8.5 -51.5t30.5 -13.5q29 0 54 11z" />
    <glyph glyph-name="m" unicode="m" horiz-adv-x="738" 
d="M46 348q0 67 -7 107h130q7 -18 12 -55q33 30 70.5 47.5t71.5 17.5q79 0 104 -66q74 66 147 66q63 0 90 -37.5t27 -120.5v-196q0 -78 8 -111h-153v284q0 28 -9.5 40t-31.5 12q-32 0 -64 -25v-200q0 -76 7 -111h-151v284q0 28 -10 40t-32 12q-30 0 -64 -24v-201
q0 -76 7 -111h-152v348z" />
    <glyph glyph-name="n" unicode="n" horiz-adv-x="495" 
d="M46 347q0 68 -7 108h130q8 -20 12 -55q32 30 69.5 47.5t76.5 17.5q66 0 93.5 -37t27.5 -118v-199q0 -78 8 -111h-153v273q0 34 -10 48.5t-34 14.5q-31 0 -68 -24v-201q0 -75 7 -111h-152v347z" />
    <glyph glyph-name="nacute" unicode="&#x144;" horiz-adv-x="495" 
d="M46 347q0 68 -7 108h130q8 -20 12 -55q32 30 69.5 47.5t76.5 17.5q66 0 93.5 -37t27.5 -118v-199q0 -78 8 -111h-153v273q0 34 -10 48.5t-34 14.5q-31 0 -68 -24v-201q0 -75 7 -111h-152v347zM215 613q23 47 30 65h148l-72 -104q-26 -35 -38 -60h-121z" />
    <glyph glyph-name="ncaron" unicode="&#x148;" horiz-adv-x="495" 
d="M46 347q0 68 -7 108h130q8 -20 12 -55q32 30 69.5 47.5t76.5 17.5q66 0 93.5 -37t27.5 -118v-199q0 -78 8 -111h-153v273q0 34 -10 48.5t-34 14.5q-31 0 -68 -24v-201q0 -75 7 -111h-152v347zM349 578q-3 -6 -16 -27t-18 -37h-132l-101 164h123q5 -17 21 -48l20 -37h1
l20 38q17 32 21 47h123z" />
    <glyph glyph-name="ncommaaccent" unicode="&#x146;" horiz-adv-x="495" 
d="M46 347q0 68 -7 108h130q8 -20 12 -55q32 30 69.5 47.5t76.5 17.5q66 0 93.5 -37t27.5 -118v-199q0 -78 8 -111h-153v273q0 34 -10 48.5t-34 14.5q-31 0 -68 -24v-201q0 -75 7 -111h-152v347zM191 -282q35 64 40 102q-20 5 -32 19.5t-12 37.5q0 29 19 46.5t50 17.5
t49 -19.5t18 -52.5q0 -39 -19.5 -89.5t-48.5 -90.5z" />
    <glyph glyph-name="eng" unicode="&#x14b;" horiz-adv-x="495" 
d="M420.5 428q27.5 -37 27.5 -118v-295q0 -124 -46.5 -184.5t-147.5 -65.5l-32 129q43 10 62 41t19 93v245q0 34 -10 48.5t-34 14.5q-31 0 -68 -24v-201q0 -75 7 -111h-152v347q0 68 -7 108h130q10 -24 12 -55q70 65 146 65q66 0 93.5 -37z" />
    <glyph glyph-name="ntilde" unicode="&#xf1;" horiz-adv-x="495" 
d="M46 347q0 68 -7 108h130q8 -20 12 -55q32 30 69.5 47.5t76.5 17.5q66 0 93.5 -37t27.5 -118v-199q0 -78 8 -111h-153v273q0 34 -10 48.5t-34 14.5q-31 0 -68 -24v-201q0 -75 7 -111h-152v347zM272.5 530.5q-17.5 7.5 -38.5 20.5q-9 6 -17.5 10.5t-15.5 4.5
q-15 0 -20.5 -9.5t-5.5 -26.5h-82q0 120 90 120q26 0 43.5 -7.5t38.5 -20.5q23 -15 34 -15q14 0 19.5 8.5t6.5 27.5h81q0 -120 -90 -120q-26 0 -43.5 7.5z" />
    <glyph glyph-name="o" unicode="o" horiz-adv-x="494" 
d="M83.5 54q-60.5 64 -60.5 174q0 71 27.5 125t78 83t118.5 29q103 0 164 -64.5t61 -172.5q0 -109 -60.5 -173.5t-164.5 -64.5q-103 0 -163.5 64zM305.5 145.5q20.5 29.5 20.5 82.5q0 52 -21 81.5t-58 29.5t-58 -29.5t-21 -81.5q0 -53 21 -82.5t58 -29.5q38 0 58.5 29.5z
" />
    <glyph glyph-name="oacute" unicode="&#xf3;" horiz-adv-x="494" 
d="M83.5 54q-60.5 64 -60.5 174q0 71 27.5 125t78 83t118.5 29q103 0 164 -64.5t61 -172.5q0 -109 -60.5 -173.5t-164.5 -64.5q-103 0 -163.5 64zM305.5 145.5q20.5 29.5 20.5 82.5q0 52 -21 81.5t-58 29.5t-58 -29.5t-21 -81.5q0 -53 21 -82.5t58 -29.5q38 0 58.5 29.5z
M216 613q23 47 30 65h148l-72 -104q-26 -35 -38 -60h-121z" />
    <glyph glyph-name="obreve" unicode="&#x14f;" horiz-adv-x="494" 
d="M83.5 54q-60.5 64 -60.5 174q0 71 27.5 125t78 83t118.5 29q103 0 164 -64.5t61 -172.5q0 -109 -60.5 -173.5t-164.5 -64.5q-103 0 -163.5 64zM305.5 145.5q20.5 29.5 20.5 82.5q0 52 -21 81.5t-58 29.5t-58 -29.5t-21 -81.5q0 -53 21 -82.5t58 -29.5q38 0 58.5 29.5z
M138.5 541.5q-38.5 35.5 -38.5 107.5h92q0 -57 55 -57q56 0 56 57h92q0 -72 -39 -107.5t-109 -35.5t-108.5 35.5z" />
    <glyph glyph-name="ocircumflex" unicode="&#xf4;" horiz-adv-x="494" 
d="M83.5 54q-60.5 64 -60.5 174q0 71 27.5 125t78 83t118.5 29q103 0 164 -64.5t61 -172.5q0 -109 -60.5 -173.5t-164.5 -64.5q-103 0 -163.5 64zM305.5 145.5q20.5 29.5 20.5 82.5q0 52 -21 81.5t-58 29.5t-58 -29.5t-21 -81.5q0 -53 21 -82.5t58 -29.5q38 0 58.5 29.5z
M145 614q3 6 16 27t18 37h132l101 -164h-123q-3 13 -21 48l-19 37h-2l-20 -38q-17 -32 -21 -47h-123z" />
    <glyph glyph-name="odieresis" unicode="&#xf6;" horiz-adv-x="494" 
d="M83.5 54q-60.5 64 -60.5 174q0 71 27.5 125t78 83t118.5 29q103 0 164 -64.5t61 -172.5q0 -109 -60.5 -173.5t-164.5 -64.5q-103 0 -163.5 64zM305.5 145.5q20.5 29.5 20.5 82.5q0 52 -21 81.5t-58 29.5t-58 -29.5t-21 -81.5q0 -53 21 -82.5t58 -29.5q38 0 58.5 29.5z
M101.5 530q-20.5 20 -20.5 52q0 31 20.5 51t52.5 20t52 -20t20 -51q0 -32 -20 -52t-52 -20t-52.5 20zM287.5 530q-20.5 20 -20.5 52q0 31 20.5 51t52.5 20t52 -20t20 -51q0 -32 -20 -52t-52 -20t-52.5 20z" />
    <glyph glyph-name="ograve" unicode="&#xf2;" horiz-adv-x="494" 
d="M83.5 54q-60.5 64 -60.5 174q0 71 27.5 125t78 83t118.5 29q103 0 164 -64.5t61 -172.5q0 -109 -60.5 -173.5t-164.5 -64.5q-103 0 -163.5 64zM305.5 145.5q20.5 29.5 20.5 82.5q0 52 -21 81.5t-58 29.5t-58 -29.5t-21 -81.5q0 -53 21 -82.5t58 -29.5q38 0 58.5 29.5z
M167 574l-73 104h149q11 -30 30 -65l52 -99h-120q-8 18 -38 60z" />
    <glyph glyph-name="ohungarumlaut" unicode="&#x151;" horiz-adv-x="494" 
d="M83.5 54q-60.5 64 -60.5 174q0 71 27.5 125t78 83t118.5 29q103 0 164 -64.5t61 -172.5q0 -109 -60.5 -173.5t-164.5 -64.5q-103 0 -163.5 64zM305.5 145.5q20.5 29.5 20.5 82.5q0 52 -21 81.5t-58 29.5t-58 -29.5t-21 -81.5q0 -53 21 -82.5t58 -29.5q38 0 58.5 29.5z
M134 620q17 37 23 58h139l-59 -104q-26 -43 -33 -60h-118zM308 620q15 32 22 58h140l-60 -104l-12 -20q-17 -30 -21 -40h-117z" />
    <glyph glyph-name="omacron" unicode="&#x14d;" horiz-adv-x="494" 
d="M83.5 54q-60.5 64 -60.5 174q0 71 27.5 125t78 83t118.5 29q103 0 164 -64.5t61 -172.5q0 -109 -60.5 -173.5t-164.5 -64.5q-103 0 -163.5 64zM305.5 145.5q20.5 29.5 20.5 82.5q0 52 -21 81.5t-58 29.5t-58 -29.5t-21 -81.5q0 -53 21 -82.5t58 -29.5q38 0 58.5 29.5z
M101 621h196q50 0 96 6v-95h-196q-43 0 -96 -5v94z" />
    <glyph glyph-name="oslash" unicode="&#xf8;" horiz-adv-x="494" 
d="M455.5 326.5q16.5 -44.5 16.5 -98.5q0 -70 -26.5 -124t-77.5 -84t-121 -30q-69 0 -118 29l-31 -43l-44 33l32 43q-31 31 -47 76.5t-16 99.5q0 69 26.5 123t77 84t120.5 30q66 0 118 -29l31 42l44 -32l-32 -44q31 -31 47.5 -75.5zM175 175l114 155q-19 12 -42 12
q-40 0 -60 -31.5t-20 -82.5q0 -32 8 -53zM307 144.5q20 31.5 20 83.5q0 31 -8 52l-114 -155q18 -12 42 -12q40 0 60 31.5z" />
    <glyph glyph-name="oslashacute" unicode="&#x1ff;" horiz-adv-x="494" 
d="M455.5 326.5q16.5 -44.5 16.5 -98.5q0 -70 -26.5 -124t-77.5 -84t-121 -30q-69 0 -118 29l-31 -43l-44 33l32 43q-31 31 -47 76.5t-16 99.5q0 69 26.5 123t77 84t120.5 30q66 0 118 -29l31 42l44 -32l-32 -44q31 -31 47.5 -75.5zM175 175l114 155q-19 12 -42 12
q-40 0 -60 -31.5t-20 -82.5q0 -32 8 -53zM307 144.5q20 31.5 20 83.5q0 31 -8 52l-114 -155q18 -12 42 -12q40 0 60 31.5zM216 613q23 47 30 65h148l-72 -104q-26 -35 -38 -60h-121z" />
    <glyph glyph-name="otilde" unicode="&#xf5;" horiz-adv-x="494" 
d="M83.5 54q-60.5 64 -60.5 174q0 71 27.5 125t78 83t118.5 29q103 0 164 -64.5t61 -172.5q0 -109 -60.5 -173.5t-164.5 -64.5q-103 0 -163.5 64zM305.5 145.5q20.5 29.5 20.5 82.5q0 52 -21 81.5t-58 29.5t-58 -29.5t-21 -81.5q0 -53 21 -82.5t58 -29.5q38 0 58.5 29.5z
M273.5 530.5q-17.5 7.5 -38.5 20.5q-9 6 -17.5 10.5t-15.5 4.5q-15 0 -20.5 -9.5t-5.5 -26.5h-82q0 120 90 120q26 0 43.5 -7.5t38.5 -20.5q23 -15 34 -15q14 0 19.5 8.5t6.5 27.5h81q0 -120 -90 -120q-26 0 -43.5 7.5z" />
    <glyph glyph-name="oe" unicode="&#x153;" horiz-adv-x="771" 
d="M123.5 20q-48.5 30 -74.5 84t-26 124q0 69 26 123t75 84t117 30q93 0 149 -71h1q34 36 72 53.5t86 17.5q194 0 193 -255l-276 -25q12 -80 93 -80q36 0 72.5 12t65.5 33l30 -104q-39 -28 -86 -42t-96 -14q-54 0 -91 16t-68 50h-1q-55 -66 -147 -66q-66 0 -114.5 30z
M604 271q0 38 -17 59.5t-47 21.5q-32 0 -52.5 -25t-24.5 -70zM302 147q19 31 19 81q0 49 -19.5 80t-56.5 31q-38 0 -57.5 -31t-19.5 -80q0 -50 19.5 -81t57.5 -31t57 31z" />
    <glyph glyph-name="p" unicode="p" horiz-adv-x="501" 
d="M475 236q0 -121 -44 -183.5t-126 -62.5q-28 0 -58 10.5t-56 29.5v-147q0 -59 7 -108h-152v569q0 71 -7 111h130q10 -29 12 -55q73 65 147 65q147 0 147 -229zM191 311v-181q36 -12 62 -12q37 0 55.5 28t18.5 92q0 54 -14 76t-49 22q-37 0 -73 -25z" />
    <glyph glyph-name="thorn" unicode="&#xfe;" horiz-adv-x="501" 
d="M46 602q0 68 -7 108l152 10v-311q69 56 136 56q148 0 148 -229q0 -121 -44 -183.5t-126 -62.5q-28 0 -58 10.5t-56 29.5v-147q0 -59 7 -108h-152v827zM308.5 146q18.5 28 18.5 92q0 54 -14 76t-49 22q-37 0 -73 -25v-181q36 -12 62 -12q37 0 55.5 28z" />
    <glyph glyph-name="q" unicode="q" horiz-adv-x="504" 
d="M312 41q-23 -23 -57.5 -37t-66.5 -14q-76 0 -119 61t-43 172q0 112 46 177t129 65q73 0 122 -58q4 29 12 48h130q-8 -37 -8 -107v-465q0 -68 8 -108h-153v266zM312 140v174q-31 23 -67 23q-35 0 -53.5 -28.5t-18.5 -84.5q0 -54 16.5 -80t50.5 -26q37 0 72 22z" />
    <glyph glyph-name="r" unicode="r" horiz-adv-x="373" 
d="M371 448l-36 -137q-21 9 -49 9q-26 0 -52.5 -13.5t-42.5 -34.5v-164q0 -68 7 -108h-152v345q0 70 -7 110h129q12 -24 14 -73q25 39 58.5 61t66.5 22q38 0 64 -17z" />
    <glyph glyph-name="racute" unicode="&#x155;" horiz-adv-x="373" 
d="M371 448l-36 -137q-21 9 -49 9q-26 0 -52.5 -13.5t-42.5 -34.5v-164q0 -68 7 -108h-152v345q0 70 -7 110h129q12 -24 14 -73q25 39 58.5 61t66.5 22q38 0 64 -17zM155 613q23 47 30 65h148l-72 -104q-26 -35 -38 -60h-121z" />
    <glyph glyph-name="rcaron" unicode="&#x159;" horiz-adv-x="373" 
d="M371 448l-36 -137q-21 9 -49 9q-26 0 -52.5 -13.5t-42.5 -34.5v-164q0 -68 7 -108h-152v345q0 70 -7 110h129q12 -24 14 -73q25 39 58.5 61t66.5 22q38 0 64 -17zM288 578q-3 -6 -16 -27t-18 -37h-132l-101 164h123q5 -17 21 -48l20 -37h1l20 38q17 32 21 47h123z" />
    <glyph glyph-name="rcommaaccent" unicode="&#x157;" horiz-adv-x="373" 
d="M371 448l-36 -137q-21 9 -49 9q-26 0 -52.5 -13.5t-42.5 -34.5v-164q0 -68 7 -108h-152v345q0 70 -7 110h129q12 -24 14 -73q25 39 58.5 61t66.5 22q38 0 64 -17zM53 -282q35 64 40 102q-20 5 -32 19.5t-12 37.5q0 29 19 46.5t50 17.5t49 -19.5t18 -52.5
q0 -39 -19.5 -89.5t-48.5 -90.5z" />
    <glyph glyph-name="s" unicode="s" horiz-adv-x="396" 
d="M283 455q41 -10 71 -28l-32 -101q-21 13 -49 20.5t-51 7.5q-42 0 -42 -28q0 -16 17 -27t54 -24q60 -21 92 -55t32 -90q0 -66 -47 -103t-134 -37q-108 0 -179 51l35 104q27 -19 59.5 -30.5t62.5 -11.5q55 0 55 32q0 17 -18 28t-61 26q-56 18 -85.5 50t-29.5 85
q0 65 44 103t119 38q46 0 87 -10z" />
    <glyph glyph-name="sacute" unicode="&#x15b;" horiz-adv-x="396" 
d="M283 455q41 -10 71 -28l-32 -101q-21 13 -49 20.5t-51 7.5q-42 0 -42 -28q0 -16 17 -27t54 -24q60 -21 92 -55t32 -90q0 -66 -47 -103t-134 -37q-108 0 -179 51l35 104q27 -19 59.5 -30.5t62.5 -11.5q55 0 55 32q0 17 -18 28t-61 26q-56 18 -85.5 50t-29.5 85
q0 65 44 103t119 38q46 0 87 -10zM167 613q23 47 30 65h148l-72 -104q-26 -35 -38 -60h-121z" />
    <glyph glyph-name="scaron" unicode="&#x161;" horiz-adv-x="396" 
d="M283 455q41 -10 71 -28l-32 -101q-21 13 -49 20.5t-51 7.5q-42 0 -42 -28q0 -16 17 -27t54 -24q60 -21 92 -55t32 -90q0 -66 -47 -103t-134 -37q-108 0 -179 51l35 104q27 -19 59.5 -30.5t62.5 -11.5q55 0 55 32q0 17 -18 28t-61 26q-56 18 -85.5 50t-29.5 85
q0 65 44 103t119 38q46 0 87 -10zM300 578q-3 -6 -16 -27t-18 -37h-132l-101 164h123q5 -17 21 -48l20 -37h1l20 38q17 32 21 47h123z" />
    <glyph glyph-name="scedilla" unicode="&#x15f;" horiz-adv-x="396" 
d="M283 455q41 -10 71 -28l-32 -101q-21 13 -49 20.5t-51 7.5q-42 0 -42 -28q0 -16 17 -27t54 -24q60 -21 92 -55t32 -90q0 -66 -47 -103t-134 -37q-108 0 -179 51l35 104q27 -19 59.5 -30.5t62.5 -11.5q55 0 55 32q0 17 -18 28t-61 26q-56 18 -85.5 50t-29.5 85
q0 65 44 103t119 38q46 0 87 -10zM218 -43q38 -2 59.5 -23.5t21.5 -58.5q0 -44 -31.5 -69t-78.5 -25q-29 0 -54.5 8t-41.5 19l17 67q34 -23 68 -23q16 0 25.5 7t9.5 20q0 32 -78 31l42 117h67z" />
    <glyph glyph-name="scommaaccent" unicode="&#x219;" horiz-adv-x="396" 
d="M283 455q41 -10 71 -28l-32 -101q-21 13 -49 20.5t-51 7.5q-42 0 -42 -28q0 -16 17 -27t54 -24q60 -21 92 -55t32 -90q0 -66 -47 -103t-134 -37q-108 0 -179 51l35 104q27 -19 59.5 -30.5t62.5 -11.5q55 0 55 32q0 17 -18 28t-61 26q-56 18 -85.5 50t-29.5 85
q0 65 44 103t119 38q46 0 87 -10zM130 -282q35 64 40 102q-20 5 -32 19.5t-12 37.5q0 29 19 46.5t50 17.5t49 -19.5t18 -52.5q0 -39 -19.5 -89.5t-48.5 -90.5z" />
    <glyph glyph-name="germandbls" unicode="&#xdf;" horiz-adv-x="551" 
d="M236 12l29 110q36 -19 68 -19q22 0 35.5 8.5t13.5 26.5q0 23 -14 42t-43 45q-38 35 -58.5 65t-20.5 74q0 31 9 55t28 59q14 25 20.5 40.5t6.5 30.5q0 22 -14.5 34.5t-43.5 12.5q-34 0 -51 -27.5t-17 -78.5v-383q0 -63 7 -107h-152v501q0 108 58 161.5t161 53.5
q92 0 146 -37t54 -108q0 -37 -10 -63t-29 -59q-14 -25 -20.5 -40.5t-6.5 -34.5t12.5 -35.5t39.5 -42.5q41 -39 63.5 -72.5t22.5 -83.5q0 -77 -45.5 -113.5t-123.5 -36.5q-76 0 -125 22z" />
    <glyph glyph-name="t" unicode="t" horiz-adv-x="379" 
d="M221 455h114v-116h-114v-139q0 -48 8 -65.5t34 -17.5q33 0 72 15l24 -113q-23 -12 -63 -20.5t-76 -8.5q-78 0 -111 39t-33 127v183h-62v116h64v26q0 68 -7 108l150 10v-144z" />
    <glyph glyph-name="tbar" unicode="&#x167;" horiz-adv-x="379" 
d="M359 19q-23 -12 -63 -20.5t-76 -8.5q-78 0 -111 39t-33 127v60h-52v66h52v57h-62v116h64v26q0 68 -7 108l150 10v-144h114v-116h-114v-57h100v-66h-100v-36q0 -31 8.5 -47t33.5 -16q33 0 72 15z" />
    <glyph glyph-name="tcaron" unicode="&#x165;" horiz-adv-x="379" 
d="M276 623q5 51 4 69h123l-25 -101q-11 -46 -13 -68h-100zM109 29q-33 39 -33 127v183h-62v116h64v26q0 68 -7 108l150 10v-144h114v-116h-114v-139q0 -48 8 -65.5t34 -17.5q33 0 72 15l24 -113q-23 -12 -63 -20.5t-76 -8.5q-78 0 -111 39z" />
    <glyph glyph-name="uni0163" unicode="&#x163;" horiz-adv-x="379" 
d="M221 455h114v-116h-114v-139q0 -48 8 -65.5t34 -17.5q33 0 72 15l24 -113q-23 -12 -63 -20.5t-76 -8.5q-78 0 -111 39t-33 127v183h-62v116h64v26q0 68 -7 108l150 10v-144zM227 -43q38 -2 59.5 -23.5t21.5 -58.5q0 -44 -31.5 -69t-78.5 -25q-29 0 -54.5 8t-41.5 19
l17 67q34 -23 68 -23q16 0 25.5 7t9.5 20q0 32 -78 31l42 117h67z" />
    <glyph glyph-name="uni021B" unicode="&#x21b;" horiz-adv-x="379" 
d="M221 455h114v-116h-114v-139q0 -48 8 -65.5t34 -17.5q33 0 72 15l24 -113q-23 -12 -63 -20.5t-76 -8.5q-78 0 -111 39t-33 127v183h-62v116h64v26q0 68 -7 108l150 10v-144zM139 -282q35 64 40 102q-20 5 -32 19.5t-12 37.5q0 29 19 46.5t50 17.5t49 -19.5t18 -52.5
q0 -39 -19.5 -89.5t-48.5 -90.5z" />
    <glyph glyph-name="u" unicode="u" horiz-adv-x="492" 
d="M72.5 27.5q-28.5 37.5 -28.5 120.5v195q0 77 -7 112h152v-266q0 -40 10 -55t35 -15q35 0 65 22v202q0 62 -8 112h153v-349q0 -67 7 -106h-131q-5 9 -8.5 24t-4.5 29q-33 -31 -70 -47t-73 -16q-63 0 -91.5 37.5z" />
    <glyph glyph-name="uacute" unicode="&#xfa;" horiz-adv-x="492" 
d="M72.5 27.5q-28.5 37.5 -28.5 120.5v195q0 77 -7 112h152v-266q0 -40 10 -55t35 -15q35 0 65 22v202q0 62 -8 112h153v-349q0 -67 7 -106h-131q-5 9 -8.5 24t-4.5 29q-33 -31 -70 -47t-73 -16q-63 0 -91.5 37.5zM211 613q23 47 30 65h148l-72 -104q-26 -35 -38 -60h-121z
" />
    <glyph glyph-name="ubreve" unicode="&#x16d;" horiz-adv-x="492" 
d="M72.5 27.5q-28.5 37.5 -28.5 120.5v195q0 77 -7 112h152v-266q0 -40 10 -55t35 -15q35 0 65 22v202q0 62 -8 112h153v-349q0 -67 7 -106h-131q-5 9 -8.5 24t-4.5 29q-33 -31 -70 -47t-73 -16q-63 0 -91.5 37.5zM133.5 541.5q-38.5 35.5 -38.5 107.5h92q0 -57 55 -57
q56 0 56 57h92q0 -72 -39 -107.5t-109 -35.5t-108.5 35.5z" />
    <glyph glyph-name="ucircumflex" unicode="&#xfb;" horiz-adv-x="492" 
d="M72.5 27.5q-28.5 37.5 -28.5 120.5v195q0 77 -7 112h152v-266q0 -40 10 -55t35 -15q35 0 65 22v202q0 62 -8 112h153v-349q0 -67 7 -106h-131q-5 9 -8.5 24t-4.5 29q-33 -31 -70 -47t-73 -16q-63 0 -91.5 37.5zM140 614q3 6 16 27t18 37h132l101 -164h-123q-3 13 -21 48
l-19 37h-2l-20 -38q-17 -32 -21 -47h-123z" />
    <glyph glyph-name="udieresis" unicode="&#xfc;" horiz-adv-x="492" 
d="M72.5 27.5q-28.5 37.5 -28.5 120.5v195q0 77 -7 112h152v-266q0 -40 10 -55t35 -15q35 0 65 22v202q0 62 -8 112h153v-349q0 -67 7 -106h-131q-5 9 -8.5 24t-4.5 29q-33 -31 -70 -47t-73 -16q-63 0 -91.5 37.5zM96.5 530q-20.5 20 -20.5 52q0 31 20.5 51t52.5 20t52 -20
t20 -51q0 -32 -20 -52t-52 -20t-52.5 20zM282.5 530q-20.5 20 -20.5 52q0 31 20.5 51t52.5 20t52 -20t20 -51q0 -32 -20 -52t-52 -20t-52.5 20z" />
    <glyph glyph-name="ugrave" unicode="&#xf9;" horiz-adv-x="492" 
d="M72.5 27.5q-28.5 37.5 -28.5 120.5v195q0 77 -7 112h152v-266q0 -40 10 -55t35 -15q35 0 65 22v202q0 62 -8 112h153v-349q0 -67 7 -106h-131q-5 9 -8.5 24t-4.5 29q-33 -31 -70 -47t-73 -16q-63 0 -91.5 37.5zM162 574l-73 104h149q11 -30 30 -65l52 -99h-120
q-8 18 -38 60z" />
    <glyph glyph-name="uhungarumlaut" unicode="&#x171;" horiz-adv-x="492" 
d="M72.5 27.5q-28.5 37.5 -28.5 120.5v195q0 77 -7 112h152v-266q0 -40 10 -55t35 -15q35 0 65 22v202q0 62 -8 112h153v-349q0 -67 7 -106h-131q-5 9 -8.5 24t-4.5 29q-33 -31 -70 -47t-73 -16q-63 0 -91.5 37.5zM129 620q17 37 23 58h139l-59 -104q-26 -43 -33 -60h-118z
M303 620q15 32 22 58h140l-60 -104l-12 -20q-17 -30 -21 -40h-117z" />
    <glyph glyph-name="umacron" unicode="&#x16b;" horiz-adv-x="492" 
d="M72.5 27.5q-28.5 37.5 -28.5 120.5v195q0 77 -7 112h152v-266q0 -40 10 -55t35 -15q35 0 65 22v202q0 62 -8 112h153v-349q0 -67 7 -106h-131q-5 9 -8.5 24t-4.5 29q-33 -31 -70 -47t-73 -16q-63 0 -91.5 37.5zM96 621h196q50 0 96 6v-95h-196q-43 0 -96 -5v94z" />
    <glyph glyph-name="uogonek" unicode="&#x173;" horiz-adv-x="492" 
d="M72.5 27.5q-28.5 37.5 -28.5 120.5v195q0 77 -7 112h152v-266q0 -40 10 -55t35 -15q35 0 65 22v202q0 62 -8 112h153v-349q0 -67 7 -106h-131q-5 9 -8.5 24t-4.5 29q-33 -31 -70 -47t-73 -16q-63 0 -91.5 37.5zM281.5 -199.5q-22.5 20.5 -22.5 57.5q0 41 28 77t71 65h87
q-38 -33 -60.5 -63.5t-22.5 -49.5q0 -20 20 -20q18 0 36 10l19 -71q-41 -26 -96 -26q-37 0 -59.5 20.5z" />
    <glyph glyph-name="uring" unicode="&#x16f;" horiz-adv-x="492" 
d="M72.5 27.5q-28.5 37.5 -28.5 120.5v195q0 77 -7 112h152v-266q0 -40 10 -55t35 -15q35 0 65 22v202q0 62 -8 112h153v-349q0 -67 7 -106h-131q-5 9 -8.5 24t-4.5 29q-33 -31 -70 -47t-73 -16q-63 0 -91.5 37.5zM315 531q-29 -29 -74 -29q-46 0 -74.5 26.5t-28.5 70.5
q0 45 29 72.5t75 27.5q47 0 74.5 -26.5t27.5 -70.5q0 -42 -29 -71zM274.5 633.5q-13.5 14.5 -33.5 14.5q-21 0 -33.5 -14t-12.5 -34q0 -19 12.5 -32t33.5 -13q22 0 34.5 13t12.5 32t-13.5 33.5z" />
    <glyph glyph-name="utilde" unicode="&#x169;" horiz-adv-x="492" 
d="M72.5 27.5q-28.5 37.5 -28.5 120.5v195q0 77 -7 112h152v-266q0 -40 10 -55t35 -15q35 0 65 22v202q0 62 -8 112h153v-349q0 -67 7 -106h-131q-5 9 -8.5 24t-4.5 29q-33 -31 -70 -47t-73 -16q-63 0 -91.5 37.5zM268.5 530.5q-17.5 7.5 -38.5 20.5q-9 6 -17.5 10.5
t-15.5 4.5q-15 0 -20.5 -9.5t-5.5 -26.5h-82q0 120 90 120q26 0 43.5 -7.5t38.5 -20.5q23 -15 34 -15q14 0 19.5 8.5t6.5 27.5h81q0 -120 -90 -120q-26 0 -43.5 7.5z" />
    <glyph glyph-name="v" unicode="v" horiz-adv-x="465" 
d="M418 309l-105 -309h-170l-96 300q-12 38 -26.5 80.5t-29.5 74.5h160q17 -41 33 -106l27 -117l20 -92h3q5 27 20 92l26 107q19 82 23 116h156q-12 -60 -41 -146z" />
    <glyph glyph-name="w" unicode="w" horiz-adv-x="694" 
d="M40 328q-19 78 -39 127h144q18 -48 28 -97l19 -101q6 -28 17 -109h3q13 79 21 107l49 200h135l46 -196q6 -27 11 -71l6 -40h3q11 66 20 111l20 85q15 62 20 111h140q-13 -75 -30 -134l-90 -321h-152l-46 184q-8 30 -17 95h-3q-5 -35 -19 -95l-49 -184h-155z" />
    <glyph glyph-name="wacute" unicode="&#x1e83;" horiz-adv-x="694" 
d="M40 328q-19 78 -39 127h144q18 -48 28 -97l19 -101q6 -28 17 -109h3q13 79 21 107l49 200h135l46 -196q6 -27 11 -71l6 -40h3q11 66 20 111l20 85q15 62 20 111h140q-13 -75 -30 -134l-90 -321h-152l-46 184q-8 30 -17 95h-3q-5 -35 -19 -95l-49 -184h-155zM321 613
q23 47 30 65h148l-72 -104q-26 -35 -38 -60h-121z" />
    <glyph glyph-name="wcircumflex" unicode="&#x175;" horiz-adv-x="694" 
d="M40 328q-19 78 -39 127h144q18 -48 28 -97l19 -101q6 -28 17 -109h3q13 79 21 107l49 200h135l46 -196q6 -27 11 -71l6 -40h3q11 66 20 111l20 85q15 62 20 111h140q-13 -75 -30 -134l-90 -321h-152l-46 184q-8 30 -17 95h-3q-5 -35 -19 -95l-49 -184h-155zM250 614
q3 6 16 27t18 37h132l101 -164h-123q-3 13 -21 48l-19 37h-2l-20 -38q-17 -32 -21 -47h-123z" />
    <glyph glyph-name="wdieresis" unicode="&#x1e85;" horiz-adv-x="694" 
d="M40 328q-19 78 -39 127h144q18 -48 28 -97l19 -101q6 -28 17 -109h3q13 79 21 107l49 200h135l46 -196q6 -27 11 -71l6 -40h3q11 66 20 111l20 85q15 62 20 111h140q-13 -75 -30 -134l-90 -321h-152l-46 184q-8 30 -17 95h-3q-5 -35 -19 -95l-49 -184h-155zM206.5 530
q-20.5 20 -20.5 52q0 31 20.5 51t52.5 20t52 -20t20 -51q0 -32 -20 -52t-52 -20t-52.5 20zM392.5 530q-20.5 20 -20.5 52q0 31 20.5 51t52.5 20t52 -20t20 -51q0 -32 -20 -52t-52 -20t-52.5 20z" />
    <glyph glyph-name="wgrave" unicode="&#x1e81;" horiz-adv-x="694" 
d="M40 328q-19 78 -39 127h144q18 -48 28 -97l19 -101q6 -28 17 -109h3q13 79 21 107l49 200h135l46 -196q6 -27 11 -71l6 -40h3q11 66 20 111l20 85q15 62 20 111h140q-13 -75 -30 -134l-90 -321h-152l-46 184q-8 30 -17 95h-3q-5 -35 -19 -95l-49 -184h-155zM272 574
l-73 104h149q11 -30 30 -65l52 -99h-120q-8 18 -38 60z" />
    <glyph glyph-name="x" unicode="x" horiz-adv-x="465" 
d="M33 66l11 20l84 144l-70 131q-4 7 -20.5 37.5t-35.5 56.5h168q13 -23 26 -57l15 -33q4 -10 9.5 -27.5t8.5 -26.5h2q2 7 8 25t10 28l15 34q11 25 19 57h161q-9 -28 -42 -91l-70 -133l86 -150q25 -46 50 -81h-166q-13 19 -28 48l-21 38q-8 18 -22 55h-3q-6 -15 -24 -57
l-16 -32q-17 -38 -21 -52h-168q8 20 34 66z" />
    <glyph glyph-name="y" unicode="y" horiz-adv-x="463" 
d="M418 318l-100 -320q-33 -102 -86.5 -157t-148.5 -66l-32 128q42 12 67.5 37t39.5 63l-115 329q-10 30 -22.5 63t-25.5 60h160q10 -25 22 -66l7 -22l33 -117q11 -39 19 -100h3q8 67 13 95l25 113q4 19 5 25q11 46 12 72h161q-11 -59 -37 -137z" />
    <glyph glyph-name="yacute" unicode="&#xfd;" horiz-adv-x="463" 
d="M418 318l-100 -320q-33 -102 -86.5 -157t-148.5 -66l-32 128q42 12 67.5 37t39.5 63l-115 329q-10 30 -22.5 63t-25.5 60h160q10 -25 22 -66l7 -22l33 -117q11 -39 19 -100h3q8 67 13 95l25 113q4 19 5 25q11 46 12 72h161q-11 -59 -37 -137zM196 613q23 47 30 65h148
l-72 -104q-26 -35 -38 -60h-121z" />
    <glyph glyph-name="ycircumflex" unicode="&#x177;" horiz-adv-x="463" 
d="M418 318l-100 -320q-33 -102 -86.5 -157t-148.5 -66l-32 128q42 12 67.5 37t39.5 63l-115 329q-10 30 -22.5 63t-25.5 60h160q10 -25 22 -66l7 -22l33 -117q11 -39 19 -100h3q8 67 13 95l25 113q4 19 5 25q11 46 12 72h161q-11 -59 -37 -137zM125 614q3 6 16 27t18 37
h132l101 -164h-123q-3 13 -21 48l-19 37h-2l-20 -38q-17 -32 -21 -47h-123z" />
    <glyph glyph-name="ydieresis" unicode="&#xff;" horiz-adv-x="463" 
d="M418 318l-100 -320q-33 -102 -86.5 -157t-148.5 -66l-32 128q42 12 67.5 37t39.5 63l-115 329q-10 30 -22.5 63t-25.5 60h160q10 -25 22 -66l7 -22l33 -117q11 -39 19 -100h3q8 67 13 95l25 113q4 19 5 25q11 46 12 72h161q-11 -59 -37 -137zM81.5 530q-20.5 20 -20.5 52
q0 31 20.5 51t52.5 20t52 -20t20 -51q0 -32 -20 -52t-52 -20t-52.5 20zM267.5 530q-20.5 20 -20.5 52q0 31 20.5 51t52.5 20t52 -20t20 -51q0 -32 -20 -52t-52 -20t-52.5 20z" />
    <glyph glyph-name="ygrave" unicode="&#x1ef3;" horiz-adv-x="463" 
d="M418 318l-100 -320q-33 -102 -86.5 -157t-148.5 -66l-32 128q42 12 67.5 37t39.5 63l-115 329q-10 30 -22.5 63t-25.5 60h160q10 -25 22 -66l7 -22l33 -117q11 -39 19 -100h3q8 67 13 95l25 113q4 19 5 25q11 46 12 72h161q-11 -59 -37 -137zM147 574l-73 104h149
q11 -30 30 -65l52 -99h-120q-8 18 -38 60z" />
    <glyph glyph-name="z" unicode="z" horiz-adv-x="406" 
d="M373 356l-130 -175q-27 -35 -52 -63v-2h72q60 0 112 6v-122h-350v99l130 175q13 20 38 46l14 17v2h-59q-25 0 -55 -2t-49 -5v123h329v-99z" />
    <glyph glyph-name="zacute" unicode="&#x17a;" horiz-adv-x="406" 
d="M373 356l-130 -175q-27 -35 -52 -63v-2h72q60 0 112 6v-122h-350v99l130 175q13 20 38 46l14 17v2h-59q-25 0 -55 -2t-49 -5v123h329v-99zM167 613q23 47 30 65h148l-72 -104q-26 -35 -38 -60h-121z" />
    <glyph glyph-name="zcaron" unicode="&#x17e;" horiz-adv-x="406" 
d="M373 356l-130 -175q-27 -35 -52 -63v-2h72q60 0 112 6v-122h-350v99l130 175q13 20 38 46l14 17v2h-59q-25 0 -55 -2t-49 -5v123h329v-99zM300 578q-3 -6 -16 -27t-18 -37h-132l-101 164h123q5 -17 21 -48l20 -37h1l20 38q17 32 21 47h123z" />
    <glyph glyph-name="zdotaccent" unicode="&#x17c;" horiz-adv-x="406" 
d="M373 356l-130 -175q-27 -35 -52 -63v-2h72q60 0 112 6v-122h-350v99l130 175q13 20 38 46l14 17v2h-59q-25 0 -55 -2t-49 -5v123h329v-99zM138 529.5q-23 22.5 -23 59.5t23 59t60 22t60 -22t23 -59t-23 -59.5t-60 -22.5t-60 22.5z" />
    <glyph glyph-name="germandbls.calt" horiz-adv-x="655" 
d="M260 37l29 127q24 -16 48.5 -24.5t54.5 -8.5q34 0 53.5 24.5t19.5 64.5q0 46 -25 65.5t-75 19.5h-52v86l97 169v3h-194v-462q0 -27 2 -57.5t5 -43.5h-161v585q0 70 -7 115h511v-119l-66 -105q-27 -45 -43 -65v-3q76 -1 122.5 -51t46.5 -134q0 -104 -50.5 -168.5
t-146.5 -64.5q-98 0 -169 47z" />
    <glyph glyph-name="c_t" horiz-adv-x="780" 
d="M78 50.5q-55 60.5 -55 168.5q0 77 27.5 133t76 84.5t109.5 28.5q33 0 53 -10l1 2q-23 12 -39.5 39t-16.5 66q0 47 31.5 73.5t84.5 26.5q29 0 57.5 -6.5t76.5 -21.5q41 -13 72.5 -21t65.5 -11v-147h114v-116h-114v-139q0 -48 8 -65.5t34 -17.5q33 0 72 15l24 -113
q-23 -12 -63.5 -20.5t-76.5 -8.5q-77 0 -110 39t-33 127v183h-50v116h52v33q0 46 -5 86l-20 6q-17 5 -35 8.5t-34 3.5q-61 0 -61 -67q0 -64 61 -102l-44 -116q-36 29 -85 29q-40 0 -62.5 -29t-22.5 -79q0 -56 21 -83t63 -27q50 0 89 27l34 -117q-58 -38 -146 -38
q-99 0 -154 60.5z" />
    <glyph glyph-name="f_b" horiz-adv-x="833" 
d="M772 410q35 -55 35 -172q0 -122 -42.5 -185t-124.5 -63q-38 0 -70 16.5t-56 44.5q-1 -13 -4.5 -28t-8.5 -23h-130q7 40 7 109v393q0 46 -3 79q-37 7 -65 7q-39 0 -59 -18.5t-20 -60.5v-54h87v-116h-87v-231q0 -66 7 -108h-152v339h-62v116h62v70q0 97 51 144t152 47
q55 0 109.5 -11.5t124.5 -32.5v-262q72 55 139 55q75 0 110 -55zM659 237q0 55 -14.5 77t-47.5 22q-36 0 -74 -25v-170q32 -23 66 -23q70 0 70 119z" />
    <glyph glyph-name="f_f_b" horiz-adv-x="1106" 
d="M787 51q-1 -14 -4.5 -28.5t-7.5 -22.5h-131q7 40 7 109v393q0 46 -3 79q-37 7 -65 7q-39 0 -59 -18.5t-20 -60.5v-54h87v-116h-87v-231q0 -66 7 -108h-152v339h-128v-231q0 -66 7 -108h-152v339h-62v116h62v68q0 93 44 138t133 45q73 0 147 -36q50 46 152 46
q55 0 109.5 -11.5t124.5 -32.5v-262q74 55 139 55q75 0 110 -55t35 -172q0 -122 -42.5 -185t-124.5 -63q-73 0 -126 61zM359 455v70q0 22 4 37q-34 15 -70 15q-33 0 -47.5 -16.5t-14.5 -56.5v-49h128zM933 237q0 55 -14.5 77t-48.5 22q-36 0 -74 -25v-170q32 -23 67 -23
q70 0 70 119z" />
    <glyph glyph-name="f_f_h" horiz-adv-x="1096" 
d="M86 339h-62v116h62v68q0 93 44 138t133 45q73 0 147 -36q50 46 152 46q55 0 109.5 -11.5t124.5 -32.5v-263q30 26 65.5 41t69.5 15q62 0 90.5 -35.5t28.5 -117.5v-201q0 -76 7 -111h-152v274q0 33 -10.5 47.5t-33.5 14.5q-28 0 -65 -24v-200q0 -72 8 -112h-153v502
q0 46 -3 79q-37 7 -65 7q-39 0 -59 -18.5t-20 -60.5v-54h87v-116h-87v-231q0 -66 7 -108h-152v339h-128v-231q0 -66 7 -108h-152v339zM359 455v70q0 22 4 37q-34 15 -70 15q-33 0 -47.5 -16.5t-14.5 -56.5v-49h128z" />
    <glyph glyph-name="f_f_j" horiz-adv-x="823" 
d="M551 -106q43 10 62 41.5t19 93.5v310h-128v-231q0 -66 7 -108h-152v339h-128v-231q0 -66 7 -108h-152v339h-62v116h62v68q0 93 44 138t133 45q76 0 147 -37q50 47 147 47q112 0 197 -41l-41 -117q-34 15 -64 22t-65 7q-39 0 -59.5 -19t-20.5 -61v-52h273v-440
q0 -124 -47.5 -184.5t-146.5 -65.5zM359 455v70q0 22 4 37q-34 15 -70 15q-33 0 -47.5 -16.5t-14.5 -56.5v-49h128z" />
    <glyph glyph-name="f_f_k" horiz-adv-x="1100" 
d="M86 339h-62v116h62v68q0 93 44 138t133 45q73 0 147 -36q50 46 152 46q55 0 109.5 -11.5t124.5 -32.5v-371h18l71 92q28 41 36 62h169l-148 -203l172 -252h-172q-15 35 -42 74l-65 90q-8 10 -13.5 15t-13.5 5h-12v-76q0 -71 8 -108h-153v502q0 46 -3 79q-37 7 -65 7
q-39 0 -59 -18.5t-20 -60.5v-54h87v-116h-87v-231q0 -66 7 -108h-152v339h-128v-231q0 -66 7 -108h-152v339zM359 455v70q0 22 4 37q-34 15 -70 15q-33 0 -47.5 -16.5t-14.5 -56.5v-49h128z" />
    <glyph glyph-name="f_f_t" horiz-adv-x="953" 
d="M934 19q-23 -12 -63.5 -20.5t-76.5 -8.5q-78 0 -111 39t-33 127v183h-146v-231q0 -66 7 -108h-152v339h-128v-231q0 -66 7 -108h-152v339h-62v116h62v68q0 93 44 138t133 45q66 0 136 -31q39 41 114 41q68 0 120 -23l-31 -116q-23 10 -51 10q-25 0 -36 -16t-11 -53v-63
h150v26q0 68 -7 108l148 10v-144h114v-116h-114v-139q0 -48 8 -65.5t34 -17.5q33 0 72 15zM359 539q0 17 2 24q-33 14 -68 14q-33 0 -47.5 -16.5t-14.5 -56.5v-49h128v84z" />
    <glyph glyph-name="f_h" horiz-adv-x="823" 
d="M86 339h-62v116h62v70q0 97 51 144t152 47q55 0 109.5 -11.5t124.5 -32.5v-263q31 26 65.5 41t69.5 15q62 0 90.5 -35.5t28.5 -117.5v-201q0 -76 7 -111h-152v274q0 33 -10.5 47.5t-33.5 14.5q-14 0 -32 -7t-33 -17v-200q0 -68 7 -112h-152v502q0 46 -3 79q-37 7 -65 7
q-39 0 -59 -18.5t-20 -60.5v-54h87v-116h-87v-231q0 -66 7 -108h-152v339z" />
    <glyph glyph-name="f_i" horiz-adv-x="550" 
d="M86 339h-62v116h62v70q0 191 197 191q111 0 198 -41l-41 -117q-34 15 -64.5 22t-65.5 7q-79 0 -79 -80v-52h273v-347q0 -68 7 -108h-152v339h-128v-231q0 -66 7 -108h-152v339z" />
    <glyph glyph-name="f_j" horiz-adv-x="550" 
d="M278 -106q43 10 62 41.5t19 93.5v310h-128v-231q0 -66 7 -108h-152v339h-62v116h62v70q0 191 197 191q111 0 198 -41l-41 -117q-34 15 -64.5 22t-65.5 7q-79 0 -79 -80v-52h273v-440q0 -124 -47.5 -184.5t-147.5 -65.5z" />
    <glyph glyph-name="f_k" horiz-adv-x="827" 
d="M841 0h-173q-11 31 -42 74l-64 90q-8 10 -13.5 15t-13.5 5h-12v-76q0 -68 7 -108h-152v502q0 46 -3 79q-37 7 -65 7q-39 0 -59 -18.5t-20 -60.5v-54h87v-116h-87v-231q0 -66 7 -108h-152v339h-62v116h62v70q0 97 51 144t152 47q55 0 109.5 -11.5t124.5 -32.5v-371h18
l70 92q25 34 37 62h169l-148 -203z" />
    <glyph glyph-name="f_l" horiz-adv-x="644" 
d="M641 15q-22 -11 -55 -18t-65 -7q-76 0 -109.5 42t-33.5 136v334q0 46 -3 79q-37 7 -65 7q-39 0 -59 -18.5t-20 -60.5v-54h87v-116h-87v-231q0 -66 7 -108h-152v339h-62v116h62v70q0 98 51 144.5t153 46.5q55 0 108.5 -11.5t124.5 -32.5v-489q0 -38 8.5 -51.5t30.5 -13.5
q29 0 54 11z" />
    <glyph glyph-name="f_t" horiz-adv-x="680" 
d="M410 29q-33 39 -33 127v183h-146v-231q0 -66 7 -108h-152v339h-62v116h62v85q0 90 38 133t116 43q67 0 120 -23l-31 -116q-25 10 -51 10q-25 0 -36 -16t-11 -53v-63h150v26q0 71 -8 108l149 10v-144h114v-116h-114v-139q0 -48 8 -65.5t34 -17.5q34 0 71 15l25 -113
q-23 -12 -63.5 -20.5t-76.5 -8.5q-77 0 -110 39z" />
    <glyph glyph-name="s_t" horiz-adv-x="775" 
d="M15 41l35 104q27 -19 59.5 -30.5t62.5 -11.5q55 0 55 32q0 16 -18 27.5t-61 26.5q-56 18 -85.5 50t-29.5 85q0 65 43 103t118 38q34 0 56 -8l1 2q-19 13 -32.5 37t-13.5 56q0 51 35 80.5t97 29.5q30 0 62 -7.5t78 -21.5q48 -14 78 -21t62 -10v-147h114v-116h-114v-139
q0 -48 8 -65.5t34 -17.5q34 0 71 15l25 -113q-23 -12 -63.5 -20.5t-76.5 -8.5q-77 0 -110 39t-33 127v183h-62v116h64v31q0 48 -5 86q-36 10 -58.5 15t-47.5 5q-34 0 -50.5 -19.5t-16.5 -53.5q0 -27 13 -49.5t44 -45.5l-31 -98q-21 13 -49 20.5t-51 7.5q-42 0 -42 -28
q0 -16 17 -27t54 -24q60 -21 92 -55t32 -90q0 -66 -47 -103t-134 -37q-108 0 -179 51z" />
    <glyph glyph-name="t_t" horiz-adv-x="699" 
d="M679 19q-23 -12 -63.5 -20.5t-76.5 -8.5q-78 0 -111 39t-33 127v183h-174v-139q0 -48 8 -65.5t34 -17.5q30 0 67 14l25 -113q-23 -12 -61 -20t-74 -8q-78 0 -111 39t-33 127v183h-62v116h64v26q0 68 -7 108l150 10v-144h177v26q0 71 -8 108l150 10v-144h115v-116h-115
v-139q0 -48 8 -65.5t34 -17.5q33 0 72 15z" />
    <glyph glyph-name="a.sc" horiz-adv-x="495" 
d="M130 411q21 62 26 105h183l169 -516h-166q-3 30 -12 58l-14 46h-131l-14 -46q-11 -38 -12 -58h-167zM296 208l-23 83q-6 30 -18 95h-4q-11 -61 -19 -95l-24 -83h88z" />
    <glyph glyph-name="aacute.sc" horiz-adv-x="495" 
d="M130 411q21 62 26 105h183l169 -516h-166q-3 30 -12 58l-14 46h-131l-14 -46q-11 -38 -12 -58h-167zM296 208l-23 83q-6 30 -18 95h-4q-11 -61 -19 -95l-24 -83h88zM204 650q21 44 26 58h142l-61 -88q-22 -32 -33 -53h-117z" />
    <glyph glyph-name="abreve.sc" horiz-adv-x="495" 
d="M130 411q21 62 26 105h183l169 -516h-166q-3 30 -12 58l-14 46h-131l-14 -46q-11 -38 -12 -58h-167zM296 208l-23 83q-6 30 -18 95h-4q-11 -61 -19 -95l-24 -83h88zM146 599.5q-38 34.5 -38 105.5h91q0 -25 13 -39.5t40 -14.5q52 0 54 54h91q0 -71 -38 -105.5t-107 -34.5
q-68 0 -106 34.5z" />
    <glyph glyph-name="acircumflex.sc" horiz-adv-x="495" 
d="M130 411q21 62 26 105h183l169 -516h-166q-3 30 -12 58l-14 46h-131l-14 -46q-11 -38 -12 -58h-167zM296 208l-23 83q-6 30 -18 95h-4q-11 -61 -19 -95l-24 -83h88zM276 603l-22 32h-2l-22 -31q-10 -14 -20 -37h-119l64 83q25 32 37 58h116l105 -141h-119q-10 24 -18 36z
" />
    <glyph glyph-name="adieresis.sc" horiz-adv-x="495" 
d="M130 411q21 62 26 105h183l169 -516h-166q-3 30 -12 58l-14 46h-131l-14 -46q-11 -38 -12 -58h-167zM296 208l-23 83q-6 30 -18 95h-4q-11 -61 -19 -95l-24 -83h88zM110.5 586.5q-19.5 19.5 -19.5 50.5t19.5 50t50.5 19t51 -19t20 -50t-20 -50.5t-51 -19.5t-50.5 19.5z
M291.5 587q-19.5 19 -19.5 50t19.5 50t50.5 19t50.5 -19t19.5 -50t-19.5 -50t-50.5 -19t-50.5 19z" />
    <glyph glyph-name="agrave.sc" horiz-adv-x="495" 
d="M130 411q21 62 26 105h183l169 -516h-166q-3 30 -12 58l-14 46h-131l-14 -46q-11 -38 -12 -58h-167zM296 208l-23 83q-6 30 -18 95h-4q-11 -61 -19 -95l-24 -83h88zM214 567q-11 21 -33 53l-61 88h142q7 -21 26 -58l42 -83h-116z" />
    <glyph glyph-name="amacron.sc" horiz-adv-x="495" 
d="M130 411q21 62 26 105h183l169 -516h-166q-3 30 -12 58l-14 46h-131l-14 -46q-11 -38 -12 -58h-167zM296 208l-23 83q-6 30 -18 95h-4q-11 -61 -19 -95l-24 -83h88zM114 668h180q57 0 96 5v-90h-180q-56 0 -96 -5v90z" />
    <glyph glyph-name="aogonek.sc" horiz-adv-x="495" 
d="M130 411q21 62 26 105h183l169 -516h-166q-3 30 -12 58l-14 46h-131l-14 -46q-11 -38 -12 -58h-167zM296 208l-23 83q-6 30 -18 95h-4q-11 -61 -19 -95l-24 -83h88zM316.5 -199.5q-22.5 20.5 -22.5 57.5q0 41 28 77t71 65h87q-38 -33 -60.5 -63.5t-22.5 -49.5
q0 -20 20 -20q18 0 36 10l19 -71q-41 -26 -96 -26q-37 0 -59.5 20.5z" />
    <glyph glyph-name="aring.sc" horiz-adv-x="495" 
d="M130 411q21 62 26 105h183l169 -516h-166q-3 30 -12 58l-14 46h-131l-14 -46q-11 -38 -12 -58h-167zM296 208l-23 83q-6 30 -18 95h-4q-11 -61 -19 -95l-24 -83h88zM324.5 588.5q-28.5 -28.5 -73.5 -28.5t-73.5 26.5t-28.5 70.5t29 71t74 27q46 0 73.5 -26t27.5 -69
t-28.5 -71.5zM284 690.5q-13 13.5 -33 13.5t-33 -13.5t-13 -32.5t12.5 -32t33.5 -13t33.5 13t12.5 32t-13 32.5z" />
    <glyph glyph-name="aringacute.sc" horiz-adv-x="495" 
d="M130 411q21 62 26 105h183l169 -516h-166q-3 30 -12 58l-14 46h-131l-14 -46q-11 -38 -12 -58h-167zM296 208l-23 83q-6 30 -18 95h-4q-11 -61 -19 -95l-24 -83h88zM324.5 588.5q-28.5 -28.5 -73.5 -28.5t-73.5 26.5t-28.5 70.5t29 71t74 27q46 0 73.5 -26t27.5 -69
t-28.5 -71.5zM284 690.5q-13 13.5 -33 13.5t-33 -13.5t-13 -32.5t12.5 -32t33.5 -13t33.5 13t12.5 32t-13 32.5zM211 880q21 44 26 58h142l-61 -88q-22 -32 -33 -53h-117z" />
    <glyph glyph-name="atilde.sc" horiz-adv-x="495" 
d="M130 411q21 62 26 105h183l169 -516h-166q-3 30 -12 58l-14 46h-131l-14 -46q-11 -38 -12 -58h-167zM296 208l-23 83q-6 30 -18 95h-4q-11 -61 -19 -95l-24 -83h88zM278 583.5q-16 6.5 -38 19.5q-21 14 -32 14q-15 0 -20 -9t-5 -25h-81q-2 119 86 119q24 0 41.5 -7
t37.5 -19q23 -14 33 -14q15 0 19.5 8t4.5 26h81q1 -58 -19.5 -88.5t-67.5 -30.5q-24 0 -40 6.5z" />
    <glyph glyph-name="ae.sc" horiz-adv-x="696" 
d="M184 412q13 29 24.5 57.5t15.5 46.5h433v-124q-25 5 -86 5h-109v-82h182v-111q-40 4 -87 4h-95v-55q0 -24 1 -34h114q59 0 86 4v-123h-343v107h-116l-25 -52q-11 -25 -20 -55h-166zM320 219v105q0 55 2 82h-3q-11 -34 -29 -80l-48 -107h78z" />
    <glyph glyph-name="aeacute.sc" horiz-adv-x="696" 
d="M184 412q13 29 24.5 57.5t15.5 46.5h433v-124q-25 5 -86 5h-109v-82h182v-111q-40 4 -87 4h-95v-55q0 -24 1 -34h114q59 0 86 4v-123h-343v107h-116l-25 -52q-11 -25 -20 -55h-166zM320 219v105q0 55 2 82h-3q-11 -34 -29 -80l-48 -107h78zM392 650q21 44 26 58h142
l-61 -88q-22 -32 -33 -53h-117z" />
    <glyph glyph-name="b.sc" horiz-adv-x="470" 
d="M53 429q0 47 -6 87h198q96 0 141.5 -31t45.5 -96q0 -42 -19 -71.5t-55 -43.5v-2q46 -11 70 -41.5t24 -76.5q0 -154 -197 -154h-202v429zM234 307q33 0 48.5 11.5t15.5 37.5q0 24 -14.5 35t-49.5 11h-41v-95h41zM243 114q36 0 53 13.5t17 41.5q0 49 -70 49h-50v-65
q0 -27 1 -39h49z" />
    <glyph glyph-name="c.sc" horiz-adv-x="484" 
d="M92 60.5q-63 70.5 -63 196.5q0 80 31 140t88 93t135 33q53 0 97.5 -13t74.5 -37l-51 -119q-29 17 -56 24t-58 7q-53 0 -81 -32.5t-28 -94.5q0 -130 102 -130q37 0 67.5 9.5t60.5 30.5l51 -123q-67 -55 -193 -55q-114 0 -177 70.5z" />
    <glyph glyph-name="c_t.sc" horiz-adv-x="907" 
d="M92 60.5q-63 70.5 -63 196.5q0 80 31 140t88 93t135 33q53 0 97.5 -13t74.5 -37l-51 -119q-29 17 -56 24t-58 7q-53 0 -81 -32.5t-28 -94.5q0 -130 102 -130q37 0 67.5 9.5t60.5 30.5l51 -123q-67 -55 -193 -55q-114 0 -177 70.5zM631 309q0 59 -1 81h-51q-56 0 -80 -5
v131h408v-131q-24 5 -81 5h-51v-309q0 -41 5 -81h-149v309z" />
    <glyph glyph-name="cacute.sc" horiz-adv-x="484" 
d="M92 60.5q-63 70.5 -63 196.5q0 80 31 140t88 93t135 33q53 0 97.5 -13t74.5 -37l-51 -119q-29 17 -56 24t-58 7q-53 0 -81 -32.5t-28 -94.5q0 -130 102 -130q37 0 67.5 9.5t60.5 30.5l51 -123q-67 -55 -193 -55q-114 0 -177 70.5zM229 650q21 44 26 58h142l-61 -88
q-22 -32 -33 -53h-117z" />
    <glyph glyph-name="ccaron.sc" horiz-adv-x="484" 
d="M92 60.5q-63 70.5 -63 196.5q0 80 31 140t88 93t135 33q53 0 97.5 -13t74.5 -37l-51 -119q-29 17 -56 24t-58 7q-53 0 -81 -32.5t-28 -94.5q0 -130 102 -130q37 0 67.5 9.5t60.5 30.5l51 -123q-67 -55 -193 -55q-114 0 -177 70.5zM254 672l22 -32h2l22 32q13 20 20 36
h119l-64 -83q-27 -35 -38 -58h-115l-106 141h120q6 -18 18 -36z" />
    <glyph glyph-name="ccedilla.sc" horiz-adv-x="484" 
d="M92 60.5q-63 70.5 -63 196.5q0 80 31 140t88 93t135 33q53 0 97.5 -13t74.5 -37l-51 -119q-29 17 -56 24t-58 7q-53 0 -81 -32.5t-28 -94.5q0 -130 102 -130q37 0 67.5 9.5t60.5 30.5l51 -123q-67 -55 -193 -55q-114 0 -177 70.5zM288 -41q38 -2 59.5 -23.5t21.5 -58.5
q0 -44 -31.5 -69t-78.5 -25q-29 0 -54.5 8t-41.5 19l17 67q34 -23 68 -23q16 0 25.5 7t9.5 20q0 32 -78 31l42 117h67z" />
    <glyph glyph-name="ccircumflex.sc" horiz-adv-x="484" 
d="M92 60.5q-63 70.5 -63 196.5q0 80 31 140t88 93t135 33q53 0 97.5 -13t74.5 -37l-51 -119q-29 17 -56 24t-58 7q-53 0 -81 -32.5t-28 -94.5q0 -130 102 -130q37 0 67.5 9.5t60.5 30.5l51 -123q-67 -55 -193 -55q-114 0 -177 70.5zM301 603l-22 32h-2l-22 -31
q-10 -14 -20 -37h-119l64 83q25 32 37 58h116l105 -141h-119q-10 24 -18 36z" />
    <glyph glyph-name="cdotaccent.sc" horiz-adv-x="484" 
d="M92 60.5q-63 70.5 -63 196.5q0 80 31 140t88 93t135 33q53 0 97.5 -13t74.5 -37l-51 -119q-29 17 -56 24t-58 7q-53 0 -81 -32.5t-28 -94.5q0 -130 102 -130q37 0 67.5 9.5t60.5 30.5l51 -123q-67 -55 -193 -55q-114 0 -177 70.5zM219.5 585.5q-22.5 21.5 -22.5 56.5
q0 36 22 57.5t58 21.5t58 -21.5t22 -57.5q0 -35 -22 -56.5t-58 -21.5q-35 0 -57.5 21.5z" />
    <glyph glyph-name="d.sc" horiz-adv-x="556" 
d="M455 454q71 -62 71 -185q0 -132 -73 -200.5t-210 -68.5h-190v432q0 42 -6 84h203q134 0 205 -62zM196 383v-178q0 -53 2 -72h43q69 0 102 32t33 99q0 59 -30.5 89t-98.5 30h-51z" />
    <glyph glyph-name="eth.sc" horiz-adv-x="561" 
d="M460 454q71 -62 71 -185q0 -133 -72.5 -201t-209.5 -68h-191v218h-48v87h48v127q0 42 -6 84h202q135 0 206 -62zM347 165q34 32 34 99q0 61 -30.5 90t-99.5 29h-50v-78h83v-87h-83v-42q0 -19 2 -43h42q68 0 102 32z" />
    <glyph glyph-name="dcaron.sc" horiz-adv-x="556" 
d="M455 454q71 -62 71 -185q0 -132 -73 -200.5t-210 -68.5h-190v432q0 42 -6 84h203q134 0 205 -62zM196 383v-178q0 -53 2 -72h43q69 0 102 32t33 99q0 59 -30.5 89t-98.5 30h-51zM212 672l22 -32h2l22 32q13 20 20 36h119l-64 -83q-27 -35 -38 -58h-115l-106 141h120
q6 -18 18 -36z" />
    <glyph glyph-name="dcroat.sc" horiz-adv-x="561" 
d="M460 454q71 -62 71 -185q0 -133 -72.5 -201t-209.5 -68h-191v218h-48v87h48v127q0 42 -6 84h202q135 0 206 -62zM347 165q34 32 34 99q0 61 -30.5 90t-99.5 29h-50v-78h83v-87h-83v-42q0 -19 2 -43h42q68 0 102 32z" />
    <glyph glyph-name="e.sc" horiz-adv-x="430" 
d="M53 434q0 38 -6 82h344v-124q-25 5 -86 5h-109v-82h183v-111q-42 4 -88 4h-95v-54q0 -24 1 -35h114q59 0 87 4v-123h-345v434z" />
    <glyph glyph-name="eacute.sc" horiz-adv-x="430" 
d="M53 434q0 38 -6 82h344v-124q-25 5 -86 5h-109v-82h183v-111q-42 4 -88 4h-95v-54q0 -24 1 -35h114q59 0 87 4v-123h-345v434zM171 650q21 44 26 58h142l-61 -88q-22 -32 -33 -53h-117z" />
    <glyph glyph-name="ecaron.sc" horiz-adv-x="430" 
d="M53 434q0 38 -6 82h344v-124q-25 5 -86 5h-109v-82h183v-111q-42 4 -88 4h-95v-54q0 -24 1 -35h114q59 0 87 4v-123h-345v434zM196 672l22 -32h2l22 32q13 20 20 36h119l-64 -83q-27 -35 -38 -58h-115l-106 141h120q6 -18 18 -36z" />
    <glyph glyph-name="ecircumflex.sc" horiz-adv-x="430" 
d="M53 434q0 38 -6 82h344v-124q-25 5 -86 5h-109v-82h183v-111q-42 4 -88 4h-95v-54q0 -24 1 -35h114q59 0 87 4v-123h-345v434zM243 603l-22 32h-2l-22 -31q-10 -14 -20 -37h-119l64 83q25 32 37 58h116l105 -141h-119q-10 24 -18 36z" />
    <glyph glyph-name="edieresis.sc" horiz-adv-x="430" 
d="M53 434q0 38 -6 82h344v-124q-25 5 -86 5h-109v-82h183v-111q-42 4 -88 4h-95v-54q0 -24 1 -35h114q59 0 87 4v-123h-345v434zM77.5 586.5q-19.5 19.5 -19.5 50.5t19.5 50t50.5 19t51 -19t20 -50t-20 -50.5t-51 -19.5t-50.5 19.5zM258.5 587q-19.5 19 -19.5 50t19.5 50
t50.5 19t50.5 -19t19.5 -50t-19.5 -50t-50.5 -19t-50.5 19z" />
    <glyph glyph-name="edotaccent.sc" horiz-adv-x="430" 
d="M53 434q0 38 -6 82h344v-124q-25 5 -86 5h-109v-82h183v-111q-42 4 -88 4h-95v-54q0 -24 1 -35h114q59 0 87 4v-123h-345v434zM161.5 585.5q-22.5 21.5 -22.5 56.5q0 36 22 57.5t58 21.5t58 -21.5t22 -57.5q0 -35 -22 -56.5t-58 -21.5q-35 0 -57.5 21.5z" />
    <glyph glyph-name="egrave.sc" horiz-adv-x="430" 
d="M53 434q0 38 -6 82h344v-124q-25 5 -86 5h-109v-82h183v-111q-42 4 -88 4h-95v-54q0 -24 1 -35h114q59 0 87 4v-123h-345v434zM181 567q-11 21 -33 53l-61 88h142q7 -21 26 -58l42 -83h-116z" />
    <glyph glyph-name="emacron.sc" horiz-adv-x="430" 
d="M53 434q0 38 -6 82h344v-124q-25 5 -86 5h-109v-82h183v-111q-42 4 -88 4h-95v-54q0 -24 1 -35h114q59 0 87 4v-123h-345v434zM81 668h180q57 0 96 5v-90h-180q-56 0 -96 -5v90z" />
    <glyph glyph-name="eogonek.sc" horiz-adv-x="430" 
d="M53 434q0 38 -6 82h344v-124q-25 5 -86 5h-109v-82h183v-111q-42 4 -88 4h-95v-54q0 -24 1 -35h114q59 0 87 4v-123h-345v434zM230.5 -199.5q-22.5 20.5 -22.5 57.5q0 41 28 77t71 65h87q-38 -33 -60.5 -63.5t-22.5 -49.5q0 -20 20 -20q18 0 36 10l19 -71
q-41 -26 -96 -26q-37 0 -59.5 20.5z" />
    <glyph glyph-name="f.sc" horiz-adv-x="401" 
d="M53 434q0 42 -6 82h330v-124q-24 5 -79 5h-102v-97h168v-112q-25 4 -84 4h-84v-115q0 -35 6 -77h-149v434z" />
    <glyph glyph-name="f_b.sc" horiz-adv-x="871" 
d="M53 434q0 42 -6 82h330v-124q-24 5 -79 5h-102v-97h168v-112q-25 4 -84 4h-84v-115q0 -35 6 -77h-149v434zM454 429q0 47 -6 87h198q96 0 141.5 -31t45.5 -96q0 -42 -19 -71.5t-55 -43.5v-2q46 -11 70 -41.5t24 -76.5q0 -154 -197 -154h-202v429zM635 307q33 0 48.5 11.5
t15.5 37.5q0 24 -14.5 35t-49.5 11h-41v-95h41zM644 114q36 0 53 13.5t17 41.5q0 49 -70 49h-50v-65q0 -27 1 -39h49z" />
    <glyph glyph-name="f_f.sc" horiz-adv-x="802" 
d="M53 434q0 42 -6 82h330v-124q-24 5 -79 5h-102v-97h168v-112q-25 4 -84 4h-84v-115q0 -35 6 -77h-149v434zM454 434q0 42 -6 82h330v-124q-24 5 -79 5h-102v-97h168v-112q-25 4 -84 4h-84v-115q0 -35 6 -77h-149v434z" />
    <glyph glyph-name="f_f_b.sc" horiz-adv-x="1272" 
d="M53 434q0 42 -6 82h330v-124q-24 5 -79 5h-102v-97h168v-112q-25 4 -84 4h-84v-115q0 -35 6 -77h-149v434zM454 434q0 42 -6 82h330v-124q-24 5 -79 5h-102v-97h168v-112q-25 4 -84 4h-84v-115q0 -35 6 -77h-149v434zM855 429q0 47 -6 87h198q96 0 141.5 -31t45.5 -96
q0 -42 -19 -71.5t-55 -43.5v-2q46 -11 70 -41.5t24 -76.5q0 -154 -197 -154h-202v429zM1036 307q33 0 48.5 11.5t15.5 37.5q0 24 -14.5 35t-49.5 11h-41v-95h41zM1045 114q36 0 53 13.5t17 41.5q0 49 -70 49h-50v-65q0 -27 1 -39h49z" />
    <glyph glyph-name="f_f_h.sc" horiz-adv-x="1359" 
d="M53 434q0 42 -6 82h330v-124q-24 5 -79 5h-102v-97h168v-112q-25 4 -84 4h-84v-115q0 -35 6 -77h-149v434zM454 434q0 42 -6 82h330v-124q-24 5 -79 5h-102v-97h168v-112q-25 4 -84 4h-84v-115q0 -35 6 -77h-149v434zM855 434q0 51 -6 82h149v-186h165v104q0 40 -6 82
h149v-435q0 -49 6 -81h-149v196h-165v-115q0 -39 6 -81h-149v434z" />
    <glyph glyph-name="f_f_i.sc" horiz-adv-x="1051" 
d="M53 434q0 42 -6 82h330v-124q-24 5 -79 5h-102v-97h168v-112q-25 4 -84 4h-84v-115q0 -35 6 -77h-149v434zM454 434q0 42 -6 82h330v-124q-24 5 -79 5h-102v-97h168v-112q-25 4 -84 4h-84v-115q0 -35 6 -77h-149v434zM1004 0h-149v434q0 52 -6 82h149v-435q0 -42 6 -81z
" />
    <glyph glyph-name="f_f_j.sc" horiz-adv-x="1054" 
d="M53 434q0 42 -6 82h330v-124q-24 5 -79 5h-102v-97h168v-112q-25 4 -84 4h-84v-115q0 -35 6 -77h-149v434zM454 434q0 42 -6 82h330v-124q-24 5 -79 5h-102v-97h168v-112q-25 4 -84 4h-84v-115q0 -35 6 -77h-149v434zM852 516h149v-449q0 -120 -48.5 -171.5t-156.5 -51.5
l-25 123q45 -1 66 21t21 79v367q0 40 -6 82z" />
    <glyph glyph-name="f_f_k.sc" horiz-adv-x="1308" 
d="M53 434q0 42 -6 82h330v-124q-24 5 -79 5h-102v-97h168v-112q-25 4 -84 4h-84v-115q0 -35 6 -77h-149v434zM454 434q0 42 -6 82h330v-124q-24 5 -79 5h-102v-97h168v-112q-25 4 -84 4h-84v-115q0 -35 6 -77h-149v434zM855 434q0 51 -6 82h149v-196h34l68 117q23 46 34 79
h171l-139 -243l167 -273h-181q-7 24 -32 67l-66 107q-7 13 -14.5 18.5t-19.5 5.5h-22v-117q0 -46 6 -81h-149v434z" />
    <glyph glyph-name="f_f_l.sc" horiz-adv-x="1198" 
d="M53 434q0 42 -6 82h330v-124q-24 5 -79 5h-102v-97h168v-112q-25 4 -84 4h-84v-115q0 -35 6 -77h-149v434zM454 434q0 42 -6 82h330v-124q-24 5 -79 5h-102v-97h168v-112q-25 4 -84 4h-84v-115q0 -35 6 -77h-149v434zM998 216q0 -43 2 -87h103q47 0 87 6v-135h-335v434
q0 42 -6 82h149v-300z" />
    <glyph glyph-name="f_f_t.sc" horiz-adv-x="1228" 
d="M53 434q0 42 -6 82h330v-124q-24 5 -79 5h-102v-97h168v-112q-25 4 -84 4h-84v-115q0 -35 6 -77h-149v434zM454 434q0 42 -6 82h330v-124q-24 5 -79 5h-102v-97h168v-112q-25 4 -84 4h-84v-115q0 -35 6 -77h-149v434zM952 309q0 59 -1 81h-51q-56 0 -80 -5v131h408v-131
q-24 5 -81 5h-51v-309q0 -41 5 -81h-149v309z" />
    <glyph glyph-name="f_h.sc" horiz-adv-x="958" 
d="M53 434q0 42 -6 82h330v-124q-24 5 -79 5h-102v-97h168v-112q-25 4 -84 4h-84v-115q0 -35 6 -77h-149v434zM454 434q0 51 -6 82h149v-186h165v104q0 40 -6 82h149v-435q0 -49 6 -81h-149v196h-165v-115q0 -39 6 -81h-149v434z" />
    <glyph glyph-name="f_i.sc" horiz-adv-x="650" 
d="M53 434q0 42 -6 82h330v-124q-24 5 -79 5h-102v-97h168v-112q-25 4 -84 4h-84v-115q0 -35 6 -77h-149v434zM603 0h-149v434q0 52 -6 82h149v-435q0 -42 6 -81z" />
    <glyph glyph-name="f_j.sc" horiz-adv-x="653" 
d="M53 434q0 42 -6 82h330v-124q-24 5 -79 5h-102v-97h168v-112q-25 4 -84 4h-84v-115q0 -35 6 -77h-149v434zM451 516h149v-449q0 -120 -48.5 -171.5t-156.5 -51.5l-25 123q45 -1 66 21t21 79v367q0 40 -6 82z" />
    <glyph glyph-name="f_k.sc" horiz-adv-x="907" 
d="M53 434q0 42 -6 82h330v-124q-24 5 -79 5h-102v-97h168v-112q-25 4 -84 4h-84v-115q0 -35 6 -77h-149v434zM454 434q0 51 -6 82h149v-196h34l68 117q23 46 34 79h171l-139 -243l167 -273h-181q-7 24 -32 67l-66 107q-7 13 -14.5 18.5t-19.5 5.5h-22v-117q0 -46 6 -81
h-149v434z" />
    <glyph glyph-name="f_l.sc" horiz-adv-x="797" 
d="M53 434q0 42 -6 82h330v-124q-24 5 -79 5h-102v-97h168v-112q-25 4 -84 4h-84v-115q0 -35 6 -77h-149v434zM597 216q0 -43 2 -87h103q47 0 87 6v-135h-335v434q0 42 -6 82h149v-300z" />
    <glyph glyph-name="f_t.sc" horiz-adv-x="827" 
d="M53 434q0 42 -6 82h330v-124q-24 5 -79 5h-102v-97h168v-112q-25 4 -84 4h-84v-115q0 -35 6 -77h-149v434zM551 309q0 59 -1 81h-51q-56 0 -80 -5v131h408v-131q-24 5 -81 5h-51v-309q0 -41 5 -81h-149v309z" />
    <glyph glyph-name="g.sc" horiz-adv-x="530" 
d="M472 475l-48 -115q-55 31 -126 31q-58 0 -87.5 -36.5t-29.5 -100.5q0 -65 28 -99t81 -34q44 0 75 12v62h-72v88h192v-240q-99 -53 -210 -53q-119 0 -182.5 68.5t-63.5 199.5q0 79 31 139t89.5 93t136.5 33q112 0 186 -48z" />
    <glyph glyph-name="gbreve.sc" horiz-adv-x="530" 
d="M472 475l-48 -115q-55 31 -126 31q-58 0 -87.5 -36.5t-29.5 -100.5q0 -65 28 -99t81 -34q44 0 75 12v62h-72v88h192v-240q-99 -53 -210 -53q-119 0 -182.5 68.5t-63.5 199.5q0 79 31 139t89.5 93t136.5 33q112 0 186 -48zM170 599.5q-38 34.5 -38 105.5h91
q0 -25 13 -39.5t40 -14.5q52 0 54 54h91q0 -71 -38 -105.5t-107 -34.5q-68 0 -106 34.5z" />
    <glyph glyph-name="gcommaaccent.sc" horiz-adv-x="530" 
d="M472 475l-48 -115q-55 31 -126 31q-58 0 -87.5 -36.5t-29.5 -100.5q0 -65 28 -99t81 -34q44 0 75 12v62h-72v88h192v-240q-99 -53 -210 -53q-119 0 -182.5 68.5t-63.5 199.5q0 79 31 139t89.5 93t136.5 33q112 0 186 -48zM210 -282q35 64 40 102q-20 5 -32 19.5t-12 37.5
q0 29 19 46.5t50 17.5t49 -19.5t18 -52.5q0 -39 -19.5 -89.5t-48.5 -90.5z" />
    <glyph glyph-name="gdotaccent.sc" horiz-adv-x="530" 
d="M472 475l-48 -115q-55 31 -126 31q-58 0 -87.5 -36.5t-29.5 -100.5q0 -65 28 -99t81 -34q44 0 75 12v62h-72v88h192v-240q-99 -53 -210 -53q-119 0 -182.5 68.5t-63.5 199.5q0 79 31 139t89.5 93t136.5 33q112 0 186 -48zM218.5 585.5q-22.5 21.5 -22.5 56.5
q0 36 22 57.5t58 21.5t58 -21.5t22 -57.5q0 -35 -22 -56.5t-58 -21.5q-35 0 -57.5 21.5z" />
    <glyph glyph-name="h.sc" horiz-adv-x="557" 
d="M53 434q0 51 -6 82h149v-186h165v104q0 40 -6 82h149v-435q0 -49 6 -81h-149v196h-165v-115q0 -39 6 -81h-149v434z" />
    <glyph glyph-name="hbar.sc" horiz-adv-x="558" 
d="M53 397h-43v55h42v5q0 31 -5 59h149v-64h164v4q0 15 -5 60h149v-64h44v-55h-44v-316q0 -46 7 -81h-150v196h-165v-115q0 -41 6 -81h-149v397zM361 330v67h-165v-67h165z" />
    <glyph glyph-name="i.sc" horiz-adv-x="249" 
d="M202 0h-149v434q0 52 -6 82h149v-435q0 -42 6 -81z" />
    <glyph glyph-name="dotlessi.sc" horiz-adv-x="249" 
d="M202 0h-149v434q0 52 -6 82h149v-435q0 -42 6 -81z" />
    <glyph glyph-name="iacute.sc" horiz-adv-x="249" 
d="M202 0h-149v434q0 52 -6 82h149v-435q0 -42 6 -81zM77 650q21 44 26 58h142l-61 -88q-22 -32 -33 -53h-117z" />
    <glyph glyph-name="ibreve.sc" horiz-adv-x="249" 
d="M202 0h-149v434q0 52 -6 82h149v-435q0 -42 6 -81zM19 599.5q-38 34.5 -38 105.5h91q0 -25 13 -39.5t40 -14.5q52 0 54 54h91q0 -71 -38 -105.5t-107 -34.5q-68 0 -106 34.5z" />
    <glyph glyph-name="icircumflex.sc" horiz-adv-x="249" 
d="M202 0h-149v434q0 52 -6 82h149v-435q0 -42 6 -81zM149 603l-22 32h-2l-22 -31q-10 -14 -20 -37h-119l64 83q25 32 37 58h116l105 -141h-119q-10 24 -18 36z" />
    <glyph glyph-name="idieresis.sc" horiz-adv-x="249" 
d="M202 0h-149v434q0 52 -6 82h149v-435q0 -42 6 -81zM-16.5 586.5q-19.5 19.5 -19.5 50.5t19.5 50t50.5 19t51 -19t20 -50t-20 -50.5t-51 -19.5t-50.5 19.5zM164.5 587q-19.5 19 -19.5 50t19.5 50t50.5 19t50.5 -19t19.5 -50t-19.5 -50t-50.5 -19t-50.5 19z" />
    <glyph glyph-name="i.sc.loclTRK" horiz-adv-x="249" 
d="M202 0h-149v434q0 52 -6 82h149v-435q0 -42 6 -81zM67.5 585.5q-22.5 21.5 -22.5 56.5q0 36 22 57.5t58 21.5t58 -21.5t22 -57.5q0 -35 -22 -56.5t-58 -21.5q-35 0 -57.5 21.5z" />
    <glyph glyph-name="igrave.sc" horiz-adv-x="249" 
d="M202 0h-149v434q0 52 -6 82h149v-435q0 -42 6 -81zM87 567q-11 21 -33 53l-61 88h142q7 -21 26 -58l42 -83h-116z" />
    <glyph glyph-name="ij.sc" horiz-adv-x="507" 
d="M202 0h-149v434q0 52 -6 82h149v-435q0 -42 6 -81zM305 516h149v-449q0 -120 -48.5 -171.5t-156.5 -51.5l-25 123q45 -1 66 21t21 79v367q0 40 -6 82z" />
    <glyph glyph-name="imacron.sc" horiz-adv-x="249" 
d="M202 0h-149v434q0 52 -6 82h149v-435q0 -42 6 -81zM-13 668h180q57 0 96 5v-90h-180q-56 0 -96 -5v90z" />
    <glyph glyph-name="iogonek.sc" horiz-adv-x="249" 
d="M202 0h-149v434q0 52 -6 82h149v-435q0 -42 6 -81zM27.5 -199.5q-22.5 20.5 -22.5 57.5q0 41 28 77t71 65h87q-38 -33 -60.5 -63.5t-22.5 -49.5q0 -20 20 -20q18 0 36 10l19 -71q-41 -26 -96 -26q-37 0 -59.5 20.5z" />
    <glyph glyph-name="itilde.sc" horiz-adv-x="249" 
d="M202 0h-149v434q0 52 -6 82h149v-435q0 -42 6 -81zM151 583.5q-16 6.5 -38 19.5q-21 14 -32 14q-15 0 -20 -9t-5 -25h-81q-2 119 86 119q24 0 41.5 -7t37.5 -19q23 -14 33 -14q15 0 19.5 8t4.5 26h81q1 -58 -19.5 -88.5t-67.5 -30.5q-24 0 -40 6.5z" />
    <glyph glyph-name="j.sc" horiz-adv-x="258" 
d="M56 516h149v-449q0 -120 -48.5 -171.5t-156.5 -51.5l-25 123q45 -1 66 21t21 79v367q0 40 -6 82z" />
    <glyph glyph-name="uni0237.sc" horiz-adv-x="258" 
d="M56 516h149v-449q0 -120 -48.5 -171.5t-156.5 -51.5l-25 123q45 -1 66 21t21 79v367q0 40 -6 82z" />
    <glyph glyph-name="k.sc" horiz-adv-x="506" 
d="M53 434q0 51 -6 82h149v-196h34l68 117q23 46 34 79h171l-139 -243l167 -273h-181q-7 24 -32 67l-66 107q-7 13 -14.5 18.5t-19.5 5.5h-22v-117q0 -46 6 -81h-149v434z" />
    <glyph glyph-name="kcommaaccent.sc" horiz-adv-x="506" 
d="M53 434q0 51 -6 82h149v-196h34l68 117q23 46 34 79h171l-139 -243l167 -273h-181q-7 24 -32 67l-66 107q-7 13 -14.5 18.5t-19.5 5.5h-22v-117q0 -46 6 -81h-149v434zM207 -282q35 64 40 102q-20 5 -32 19.5t-12 37.5q0 29 19 46.5t50 17.5t49 -19.5t18 -52.5
q0 -39 -19.5 -89.5t-48.5 -90.5z" />
    <glyph glyph-name="kgreenlandic.sc" horiz-adv-x="506" 
d="M53 434q0 51 -6 82h149v-196h34l68 117q23 46 34 79h171l-139 -243l167 -273h-181q-7 24 -32 67l-66 107q-7 13 -14.5 18.5t-19.5 5.5h-22v-117q0 -46 6 -81h-149v434z" />
    <glyph glyph-name="l.sc" horiz-adv-x="396" 
d="M196 216q0 -43 2 -87h103q47 0 87 6v-135h-335v434q0 42 -6 82h149v-300z" />
    <glyph glyph-name="lacute.sc" horiz-adv-x="396" 
d="M196 216q0 -43 2 -87h103q47 0 87 6v-135h-335v434q0 42 -6 82h149v-300zM81 650q21 44 26 58h142l-61 -88q-22 -32 -33 -53h-117z" />
    <glyph glyph-name="lcaron.sc" horiz-adv-x="396" 
d="M252 471l2 20q4 32 4 47h102l-22 -85q-11 -53 -12 -58h-81zM196 216q0 -43 2 -87h103q47 0 87 6v-135h-335v434q0 42 -6 82h149v-300z" />
    <glyph glyph-name="lcommaaccent.sc" horiz-adv-x="396" 
d="M196 216q0 -43 2 -87h103q47 0 87 6v-135h-335v434q0 42 -6 82h149v-300zM148 -282q35 64 40 102q-20 5 -32 19.5t-12 37.5q0 29 19 46.5t50 17.5t49 -19.5t18 -52.5q0 -39 -19.5 -89.5t-48.5 -90.5z" />
    <glyph glyph-name="ldot.sc" horiz-adv-x="397" 
d="M53 434q0 42 -6 82h149v-294q0 -43 2 -87h103q47 0 87 6v-141h-335v434zM278.5 254.5q-17.5 17.5 -17.5 42.5q0 26 17.5 43t42.5 17q26 0 43 -17t17 -43q0 -25 -17 -42.5t-43 -17.5q-25 0 -42.5 17.5z" />
    <glyph glyph-name="lslash.sc" horiz-adv-x="402" 
d="M59 191l-60 -27v76l60 27v167q0 49 -5 82h148v-181l98 44v-77l-98 -44v-53q0 -32 2 -76h103q49 0 87 6v-135h-335v191z" />
    <glyph glyph-name="m.sc" horiz-adv-x="717" 
d="M75 414q5 61 4 102h192l62 -220q12 -42 28 -151h3q10 76 29 150l62 221h191q-1 -43 5 -109l38 -407h-149l1 33q0 16 -2 48l-8 120q-2 44 -2 70l1 52h-4l-95 -323h-140l-91 323h-4v-49q0 -51 -2 -77l-9 -114q-2 -18 -2 -48q0 -24 1 -35h-146z" />
    <glyph glyph-name="n.sc" horiz-adv-x="562" 
d="M509 88q0 -50 6 -88h-171l-109 200q-24 43 -41 83h-3q5 -53 5 -97v-111q0 -37 6 -75h-149v434q0 42 -6 82h174l115 -234q9 -20 34 -83h3q-7 58 -7 101v134q0 42 -6 82h149v-428z" />
    <glyph glyph-name="nacute.sc" horiz-adv-x="562" 
d="M509 88q0 -50 6 -88h-171l-109 200q-24 43 -41 83h-3q5 -53 5 -97v-111q0 -37 6 -75h-149v434q0 42 -6 82h174l115 -234q9 -20 34 -83h3q-7 58 -7 101v134q0 42 -6 82h149v-428zM232 650q21 44 26 58h142l-61 -88q-22 -32 -33 -53h-117z" />
    <glyph glyph-name="ncaron.sc" horiz-adv-x="562" 
d="M509 88q0 -50 6 -88h-171l-109 200q-24 43 -41 83h-3q5 -53 5 -97v-111q0 -37 6 -75h-149v434q0 42 -6 82h174l115 -234q9 -20 34 -83h3q-7 58 -7 101v134q0 42 -6 82h149v-428zM257 672l22 -32h2l22 32q13 20 20 36h119l-64 -83q-27 -35 -38 -58h-115l-106 141h120
q6 -18 18 -36z" />
    <glyph glyph-name="ncommaaccent.sc" horiz-adv-x="562" 
d="M509 88q0 -50 6 -88h-171l-109 200q-24 43 -41 83h-3q5 -53 5 -97v-111q0 -37 6 -75h-149v434q0 42 -6 82h174l115 -234q9 -20 34 -83h3q-7 58 -7 101v134q0 42 -6 82h149v-428zM224 -282q35 64 40 102q-20 5 -32 19.5t-12 37.5q0 29 19 46.5t50 17.5t49 -19.5t18 -52.5
q0 -39 -19.5 -89.5t-48.5 -90.5z" />
    <glyph glyph-name="eng.sc" horiz-adv-x="562" 
d="M292 -58q35 2 55.5 16t20.5 37v5h-24l-109 200q-24 43 -41 83h-3q5 -53 5 -97v-114q0 -36 6 -72h-149v434q0 42 -6 82h174l115 -234q10 -20 26 -62l8 -21h3q-7 75 -7 101v134q0 42 -6 82h149v-467q0 -117 -46.5 -168.5t-149.5 -54.5z" />
    <glyph glyph-name="ntilde.sc" horiz-adv-x="562" 
d="M509 88q0 -50 6 -88h-171l-109 200q-24 43 -41 83h-3q5 -53 5 -97v-111q0 -37 6 -75h-149v434q0 42 -6 82h174l115 -234q9 -20 34 -83h3q-7 58 -7 101v134q0 42 -6 82h149v-428zM306 583.5q-16 6.5 -38 19.5q-21 14 -32 14q-15 0 -20 -9t-5 -25h-81q-2 119 86 119
q24 0 41.5 -7t37.5 -19q23 -14 33 -14q15 0 19.5 8t4.5 26h81q1 -58 -19.5 -88.5t-67.5 -30.5q-24 0 -40 6.5z" />
    <glyph glyph-name="o.sc" horiz-adv-x="564" 
d="M96 61q-67 71 -67 196q0 124 67 195t186 71q117 0 184.5 -71.5t67.5 -194.5q0 -125 -67 -196t-185 -71q-119 0 -186 71zM356.5 161.5q25.5 33.5 25.5 95.5q0 60 -26 93.5t-74 33.5t-74.5 -33.5t-26.5 -93.5q0 -62 26 -95.5t75 -33.5t74.5 33.5z" />
    <glyph glyph-name="oacute.sc" horiz-adv-x="564" 
d="M96 61q-67 71 -67 196q0 124 67 195t186 71q117 0 184.5 -71.5t67.5 -194.5q0 -125 -67 -196t-185 -71q-119 0 -186 71zM356.5 161.5q25.5 33.5 25.5 95.5q0 60 -26 93.5t-74 33.5t-74.5 -33.5t-26.5 -93.5q0 -62 26 -95.5t75 -33.5t74.5 33.5zM234 650q21 44 26 58h142
l-61 -88q-22 -32 -33 -53h-117z" />
    <glyph glyph-name="obreve.sc" horiz-adv-x="564" 
d="M96 61q-67 71 -67 196q0 124 67 195t186 71q117 0 184.5 -71.5t67.5 -194.5q0 -125 -67 -196t-185 -71q-119 0 -186 71zM356.5 161.5q25.5 33.5 25.5 95.5q0 60 -26 93.5t-74 33.5t-74.5 -33.5t-26.5 -93.5q0 -62 26 -95.5t75 -33.5t74.5 33.5zM176 599.5
q-38 34.5 -38 105.5h91q0 -25 13 -39.5t40 -14.5q52 0 54 54h91q0 -71 -38 -105.5t-107 -34.5q-68 0 -106 34.5z" />
    <glyph glyph-name="ocircumflex.sc" horiz-adv-x="564" 
d="M96 61q-67 71 -67 196q0 124 67 195t186 71q117 0 184.5 -71.5t67.5 -194.5q0 -125 -67 -196t-185 -71q-119 0 -186 71zM356.5 161.5q25.5 33.5 25.5 95.5q0 60 -26 93.5t-74 33.5t-74.5 -33.5t-26.5 -93.5q0 -62 26 -95.5t75 -33.5t74.5 33.5zM306 603l-22 32h-2
l-22 -31q-10 -14 -20 -37h-119l64 83q25 32 37 58h116l105 -141h-119q-10 24 -18 36z" />
    <glyph glyph-name="odieresis.sc" horiz-adv-x="564" 
d="M96 61q-67 71 -67 196q0 124 67 195t186 71q117 0 184.5 -71.5t67.5 -194.5q0 -125 -67 -196t-185 -71q-119 0 -186 71zM356.5 161.5q25.5 33.5 25.5 95.5q0 60 -26 93.5t-74 33.5t-74.5 -33.5t-26.5 -93.5q0 -62 26 -95.5t75 -33.5t74.5 33.5zM140.5 586.5
q-19.5 19.5 -19.5 50.5t19.5 50t50.5 19t51 -19t20 -50t-20 -50.5t-51 -19.5t-50.5 19.5zM321.5 587q-19.5 19 -19.5 50t19.5 50t50.5 19t50.5 -19t19.5 -50t-19.5 -50t-50.5 -19t-50.5 19z" />
    <glyph glyph-name="ograve.sc" horiz-adv-x="564" 
d="M96 61q-67 71 -67 196q0 124 67 195t186 71q117 0 184.5 -71.5t67.5 -194.5q0 -125 -67 -196t-185 -71q-119 0 -186 71zM356.5 161.5q25.5 33.5 25.5 95.5q0 60 -26 93.5t-74 33.5t-74.5 -33.5t-26.5 -93.5q0 -62 26 -95.5t75 -33.5t74.5 33.5zM244 567q-11 21 -33 53
l-61 88h142q7 -21 26 -58l42 -83h-116z" />
    <glyph glyph-name="ohungarumlaut.sc" horiz-adv-x="564" 
d="M96 61q-67 71 -67 196q0 124 67 195t186 71q117 0 184.5 -71.5t67.5 -194.5q0 -125 -67 -196t-185 -71q-119 0 -186 71zM356.5 161.5q25.5 33.5 25.5 95.5q0 60 -26 93.5t-74 33.5t-74.5 -33.5t-26.5 -93.5q0 -62 26 -95.5t75 -33.5t74.5 33.5zM418 630q-23 -41 -32 -63
h-224l39 85q17 41 22 56h239z" />
    <glyph glyph-name="omacron.sc" horiz-adv-x="564" 
d="M96 61q-67 71 -67 196q0 124 67 195t186 71q117 0 184.5 -71.5t67.5 -194.5q0 -125 -67 -196t-185 -71q-119 0 -186 71zM356.5 161.5q25.5 33.5 25.5 95.5q0 60 -26 93.5t-74 33.5t-74.5 -33.5t-26.5 -93.5q0 -62 26 -95.5t75 -33.5t74.5 33.5zM144 668h180q57 0 96 5
v-90h-180q-56 0 -96 -5v90z" />
    <glyph glyph-name="oslash.sc" horiz-adv-x="564" 
d="M142 25l-29 -39l-48 36l31 39q-67 72 -67 197q0 123 67 194t186 71q80 0 136 -35l35 45l48 -34l-35 -46q33 -35 50.5 -84.5t17.5 -110.5q0 -125 -67 -196.5t-185 -71.5q-82 0 -140 35zM332 374q-23 13 -50 13q-51 0 -77.5 -33.5t-26.5 -95.5q0 -42 13 -71zM358.5 159
q26.5 34 26.5 99q0 39 -13 70l-143 -189q22 -14 53 -14q50 0 76.5 34z" />
    <glyph glyph-name="oslashacute.sc" horiz-adv-x="564" 
d="M142 25l-29 -39l-48 36l31 39q-67 72 -67 197q0 123 67 194t186 71q80 0 136 -35l35 45l48 -34l-35 -46q33 -35 50.5 -84.5t17.5 -110.5q0 -125 -67 -196.5t-185 -71.5q-82 0 -140 35zM332 374q-23 13 -50 13q-51 0 -77.5 -33.5t-26.5 -95.5q0 -42 13 -71zM358.5 159
q26.5 34 26.5 99q0 39 -13 70l-143 -189q22 -14 53 -14q50 0 76.5 34zM233 650q21 44 26 58h142l-61 -88q-22 -32 -33 -53h-117z" />
    <glyph glyph-name="otilde.sc" horiz-adv-x="564" 
d="M96 61q-67 71 -67 196q0 124 67 195t186 71q117 0 184.5 -71.5t67.5 -194.5q0 -125 -67 -196t-185 -71q-119 0 -186 71zM356.5 161.5q25.5 33.5 25.5 95.5q0 60 -26 93.5t-74 33.5t-74.5 -33.5t-26.5 -93.5q0 -62 26 -95.5t75 -33.5t74.5 33.5zM308 583.5
q-16 6.5 -38 19.5q-21 14 -32 14q-15 0 -20 -9t-5 -25h-81q-2 119 86 119q24 0 41.5 -7t37.5 -19q23 -14 33 -14q15 0 19.5 8t4.5 26h81q1 -58 -19.5 -88.5t-67.5 -30.5q-24 0 -40 6.5z" />
    <glyph glyph-name="oe.sc" horiz-adv-x="727" 
d="M95 60.5q-66 70.5 -66 196.5q0 123 67 194.5t185 71.5q44 0 73 -7h334v-124q-25 5 -87 5h-109v-82h183v-111q-38 4 -87 4h-96v-56q0 -15 2 -33h113q49 0 87 4v-123h-340q-37 -10 -74 -10q-119 0 -185 70.5zM349 142v233q-28 10 -67 10q-48 0 -74.5 -34t-26.5 -94
q0 -63 26 -96.5t75 -33.5q35 0 67 15z" />
    <glyph glyph-name="p.sc" horiz-adv-x="448" 
d="M382 474q56 -42 56 -132q0 -88 -55 -136.5t-152 -48.5h-35v-76q0 -43 6 -81h-149v432q0 44 -6 84h166q113 0 169 -42zM196 402v-125h26q38 0 58.5 17t20.5 50q0 58 -73 58h-32z" />
    <glyph glyph-name="thorn.sc" horiz-adv-x="448" 
d="M53 440q0 36 -6 76h149v-69h21q109 0 165 -42t56 -130q0 -89 -54.5 -137.5t-154.5 -48.5h-33v-17q0 -34 6 -72h-149v440zM223 210q38 0 58 16.5t20 48.5q0 33 -19.5 45.5t-54.5 12.5h-31v-123h27z" />
    <glyph glyph-name="q.sc" horiz-adv-x="563" 
d="M368 -70q-35 34 -56.5 47t-52.5 13q-64 0 -116.5 31t-83 91.5t-30.5 144.5q0 124 67 195t186 71q78 0 135 -32.5t87 -91.5t30 -136q0 -88 -34 -144.5t-96 -82.5l1 -2q19 -6 46 -22q29 -17 52.5 -26.5t58.5 -12.5l-38 -107q-88 -2 -156 64zM356 161q26 33 26 96
q0 61 -26 94t-74 33q-49 0 -75 -33t-26 -94q0 -63 26.5 -96t74.5 -33t74 33z" />
    <glyph glyph-name="r.sc" horiz-adv-x="471" 
d="M446 351q0 -50 -22.5 -87t-63.5 -58l121 -206h-165q-5 24 -28 66l-47 84q-5 10 -10 14t-12 4h-23v-87q0 -49 6 -81h-149v433q0 41 -6 83h185q214 0 214 -165zM196 402v-120h36q36 0 55 16.5t19 47.5q0 27 -17 41.5t-51 14.5h-42z" />
    <glyph glyph-name="racute.sc" horiz-adv-x="471" 
d="M446 351q0 -50 -22.5 -87t-63.5 -58l121 -206h-165q-5 24 -28 66l-47 84q-5 10 -10 14t-12 4h-23v-87q0 -49 6 -81h-149v433q0 41 -6 83h185q214 0 214 -165zM196 402v-120h36q36 0 55 16.5t19 47.5q0 27 -17 41.5t-51 14.5h-42zM183 650q21 44 26 58h142l-61 -88
q-22 -32 -33 -53h-117z" />
    <glyph glyph-name="rcaron.sc" horiz-adv-x="471" 
d="M446 351q0 -50 -22.5 -87t-63.5 -58l121 -206h-165q-5 24 -28 66l-47 84q-5 10 -10 14t-12 4h-23v-87q0 -49 6 -81h-149v433q0 41 -6 83h185q214 0 214 -165zM196 402v-120h36q36 0 55 16.5t19 47.5q0 27 -17 41.5t-51 14.5h-42zM208 672l22 -32h2l22 32q13 20 20 36h119
l-64 -83q-27 -35 -38 -58h-115l-106 141h120q6 -18 18 -36z" />
    <glyph glyph-name="rcommaaccent.sc" horiz-adv-x="471" 
d="M446 351q0 -50 -22.5 -87t-63.5 -58l121 -206h-165q-5 24 -28 66l-47 84q-5 10 -10 14t-12 4h-23v-87q0 -49 6 -81h-149v433q0 41 -6 83h185q214 0 214 -165zM196 402v-120h36q36 0 55 16.5t19 47.5q0 27 -17 41.5t-51 14.5h-42zM191 -282q35 64 40 102q-20 5 -32 19.5
t-12 37.5q0 29 19 46.5t50 17.5t49 -19.5t18 -52.5q0 -39 -19.5 -89.5t-48.5 -90.5z" />
    <glyph glyph-name="s.sc" horiz-adv-x="434" 
d="M309.5 508q49.5 -15 81.5 -40l-46 -109q-26 20 -56.5 31.5t-58.5 11.5q-20 0 -32.5 -8.5t-12.5 -24.5q0 -18 17.5 -29.5t72.5 -32.5q71 -28 104.5 -64.5t33.5 -95.5q0 -73 -51.5 -115t-140.5 -42q-108 0 -198 55l39 118q33 -21 73 -34.5t74 -13.5q26 0 39.5 9.5
t13.5 27.5t-21 30t-77 30q-66 22 -98.5 59t-32.5 102q0 67 45 108.5t130 41.5q52 0 101.5 -15z" />
    <glyph glyph-name="s_t.sc" horiz-adv-x="834" 
d="M309.5 508q49.5 -15 81.5 -40l-46 -109q-26 20 -56.5 31.5t-58.5 11.5q-20 0 -32.5 -8.5t-12.5 -24.5q0 -18 17.5 -29.5t72.5 -32.5q71 -28 104.5 -64.5t33.5 -95.5q0 -73 -51.5 -115t-140.5 -42q-108 0 -198 55l39 118q33 -21 73 -34.5t74 -13.5q26 0 39.5 9.5
t13.5 27.5t-21 30t-77 30q-66 22 -98.5 59t-32.5 102q0 67 45 108.5t130 41.5q52 0 101.5 -15zM558 309q0 59 -1 81h-51q-56 0 -80 -5v131h408v-131q-24 5 -81 5h-51v-309q0 -41 5 -81h-149v309z" />
    <glyph glyph-name="sacute.sc" horiz-adv-x="434" 
d="M309.5 508q49.5 -15 81.5 -40l-46 -109q-26 20 -56.5 31.5t-58.5 11.5q-20 0 -32.5 -8.5t-12.5 -24.5q0 -18 17.5 -29.5t72.5 -32.5q71 -28 104.5 -64.5t33.5 -95.5q0 -73 -51.5 -115t-140.5 -42q-108 0 -198 55l39 118q33 -21 73 -34.5t74 -13.5q26 0 39.5 9.5
t13.5 27.5t-21 30t-77 30q-66 22 -98.5 59t-32.5 102q0 67 45 108.5t130 41.5q52 0 101.5 -15zM171 650q21 44 26 58h142l-61 -88q-22 -32 -33 -53h-117z" />
    <glyph glyph-name="scaron.sc" horiz-adv-x="434" 
d="M309.5 508q49.5 -15 81.5 -40l-46 -109q-26 20 -56.5 31.5t-58.5 11.5q-20 0 -32.5 -8.5t-12.5 -24.5q0 -18 17.5 -29.5t72.5 -32.5q71 -28 104.5 -64.5t33.5 -95.5q0 -73 -51.5 -115t-140.5 -42q-108 0 -198 55l39 118q33 -21 73 -34.5t74 -13.5q26 0 39.5 9.5
t13.5 27.5t-21 30t-77 30q-66 22 -98.5 59t-32.5 102q0 67 45 108.5t130 41.5q52 0 101.5 -15zM196 672l22 -32h2l22 32q13 20 20 36h119l-64 -83q-27 -35 -38 -58h-115l-106 141h120q6 -18 18 -36z" />
    <glyph glyph-name="scedilla.sc" horiz-adv-x="434" 
d="M309.5 508q49.5 -15 81.5 -40l-46 -109q-26 20 -56.5 31.5t-58.5 11.5q-20 0 -32.5 -8.5t-12.5 -24.5q0 -18 17.5 -29.5t72.5 -32.5q71 -28 104.5 -64.5t33.5 -95.5q0 -73 -51.5 -115t-140.5 -42q-108 0 -198 55l39 118q33 -21 73 -34.5t74 -13.5q26 0 39.5 9.5
t13.5 27.5t-21 30t-77 30q-66 22 -98.5 59t-32.5 102q0 67 45 108.5t130 41.5q52 0 101.5 -15zM245 -43q38 -2 59.5 -23.5t21.5 -58.5q0 -44 -31.5 -69t-78.5 -25q-29 0 -54.5 8t-41.5 19l17 67q34 -23 68 -23q16 0 25.5 7t9.5 20q0 32 -78 31l42 117h67z" />
    <glyph glyph-name="scommaaccent.sc" horiz-adv-x="434" 
d="M309.5 508q49.5 -15 81.5 -40l-46 -109q-26 20 -56.5 31.5t-58.5 11.5q-20 0 -32.5 -8.5t-12.5 -24.5q0 -18 17.5 -29.5t72.5 -32.5q71 -28 104.5 -64.5t33.5 -95.5q0 -73 -51.5 -115t-140.5 -42q-108 0 -198 55l39 118q33 -21 73 -34.5t74 -13.5q26 0 39.5 9.5
t13.5 27.5t-21 30t-77 30q-66 22 -98.5 59t-32.5 102q0 67 45 108.5t130 41.5q52 0 101.5 -15zM157 -282q35 64 40 102q-20 5 -32 19.5t-12 37.5q0 29 19 46.5t50 17.5t49 -19.5t18 -52.5q0 -39 -19.5 -89.5t-48.5 -90.5z" />
    <glyph glyph-name="germandbls.sc" horiz-adv-x="539" 
d="M234 24l21 108q32 -19 67 -19q24 0 38.5 14.5t14.5 40.5q0 27 -17 39.5t-52 12.5h-37v67l67 100l-1 2h-139v-315q0 -44 6 -74h-149v424q0 52 -6 92h424v-110l-46 -66q-25 -33 -33 -42v-2q63 -6 94 -41.5t31 -97.5q0 -79 -41.5 -123t-113.5 -44q-71 0 -128 34z" />
    <glyph glyph-name="t.sc" horiz-adv-x="406" 
d="M130 309q0 59 -1 81h-51q-56 0 -80 -5v131h408v-131q-24 5 -81 5h-51v-309q0 -41 5 -81h-149v309z" />
    <glyph glyph-name="t_t.sc" horiz-adv-x="851" 
d="M130 309q0 59 -1 81h-51q-56 0 -80 -5v131h408v-131q-24 5 -81 5h-51v-309q0 -41 5 -81h-149v309zM575 309q0 59 -1 81h-51q-56 0 -80 -5v131h408v-131q-24 5 -81 5h-51v-309q0 -41 5 -81h-149v309z" />
    <glyph glyph-name="tbar.sc" horiz-adv-x="406" 
d="M274 390v-95h69v-95h-69v-119q0 -41 5 -81h-149v201h-70v95h70v94h-52q-56 0 -80 -5v131h408v-131q-24 5 -81 5h-51z" />
    <glyph glyph-name="tcaron.sc" horiz-adv-x="406" 
d="M130 309q0 59 -1 81h-51q-56 0 -80 -5v131h408v-131q-24 5 -81 5h-51v-309q0 -41 5 -81h-149v309zM181 672l22 -32h2l22 32q13 20 20 36h119l-64 -83q-27 -35 -38 -58h-115l-106 141h120q6 -18 18 -36z" />
    <glyph glyph-name="uni0163.sc" horiz-adv-x="406" 
d="M130 309q0 59 -1 81h-51q-56 0 -80 -5v131h408v-131q-24 5 -81 5h-51v-309q0 -41 5 -81h-149v309zM235 -43q38 -2 59.5 -23.5t21.5 -58.5q0 -44 -31.5 -69t-78.5 -25q-29 0 -54.5 8t-41.5 19l17 67q34 -23 68 -23q16 0 25.5 7t9.5 20q0 32 -78 31l42 117h67z" />
    <glyph glyph-name="uni021B.sc" horiz-adv-x="406" 
d="M130 309q0 59 -1 81h-51q-56 0 -80 -5v131h408v-131q-24 5 -81 5h-51v-309q0 -41 5 -81h-149v309zM147 -282q35 64 40 102q-20 5 -32 19.5t-12 37.5q0 29 19 46.5t50 17.5t49 -19.5t18 -52.5q0 -39 -19.5 -89.5t-48.5 -90.5z" />
    <glyph glyph-name="u.sc" horiz-adv-x="545" 
d="M102.5 44q-54.5 54 -54.5 168v221q0 43 -6 83h149v-259q0 -74 18 -101.5t63 -27.5q32 0 49.5 11.5t25 39t7.5 78.5v177q0 42 -6 82h148v-304q0 -114 -54.5 -168t-169.5 -54t-169.5 54z" />
    <glyph glyph-name="uacute.sc" horiz-adv-x="545" 
d="M102.5 44q-54.5 54 -54.5 168v221q0 43 -6 83h149v-259q0 -74 18 -101.5t63 -27.5q32 0 49.5 11.5t25 39t7.5 78.5v177q0 42 -6 82h148v-304q0 -114 -54.5 -168t-169.5 -54t-169.5 54zM216 650q21 44 26 58h142l-61 -88q-22 -32 -33 -53h-117z" />
    <glyph glyph-name="ubreve.sc" horiz-adv-x="545" 
d="M102.5 44q-54.5 54 -54.5 168v221q0 43 -6 83h149v-259q0 -74 18 -101.5t63 -27.5q32 0 49.5 11.5t25 39t7.5 78.5v177q0 42 -6 82h148v-304q0 -114 -54.5 -168t-169.5 -54t-169.5 54zM158 599.5q-38 34.5 -38 105.5h91q0 -25 13 -39.5t40 -14.5q52 0 54 54h91
q0 -71 -38 -105.5t-107 -34.5q-68 0 -106 34.5z" />
    <glyph glyph-name="ucircumflex.sc" horiz-adv-x="545" 
d="M102.5 44q-54.5 54 -54.5 168v221q0 43 -6 83h149v-259q0 -74 18 -101.5t63 -27.5q32 0 49.5 11.5t25 39t7.5 78.5v177q0 42 -6 82h148v-304q0 -114 -54.5 -168t-169.5 -54t-169.5 54zM288 603l-22 32h-2l-22 -31q-10 -14 -20 -37h-119l64 83q25 32 37 58h116l105 -141
h-119q-10 24 -18 36z" />
    <glyph glyph-name="udieresis.sc" horiz-adv-x="545" 
d="M102.5 44q-54.5 54 -54.5 168v221q0 43 -6 83h149v-259q0 -74 18 -101.5t63 -27.5q32 0 49.5 11.5t25 39t7.5 78.5v177q0 42 -6 82h148v-304q0 -114 -54.5 -168t-169.5 -54t-169.5 54zM122.5 586.5q-19.5 19.5 -19.5 50.5t19.5 50t50.5 19t51 -19t20 -50t-20 -50.5
t-51 -19.5t-50.5 19.5zM303.5 587q-19.5 19 -19.5 50t19.5 50t50.5 19t50.5 -19t19.5 -50t-19.5 -50t-50.5 -19t-50.5 19z" />
    <glyph glyph-name="ugrave.sc" horiz-adv-x="545" 
d="M102.5 44q-54.5 54 -54.5 168v221q0 43 -6 83h149v-259q0 -74 18 -101.5t63 -27.5q32 0 49.5 11.5t25 39t7.5 78.5v177q0 42 -6 82h148v-304q0 -114 -54.5 -168t-169.5 -54t-169.5 54zM226 567q-11 21 -33 53l-61 88h142q7 -21 26 -58l42 -83h-116z" />
    <glyph glyph-name="uhungarumlaut.sc" horiz-adv-x="545" 
d="M102.5 44q-54.5 54 -54.5 168v221q0 43 -6 83h149v-259q0 -74 18 -101.5t63 -27.5q32 0 49.5 11.5t25 39t7.5 78.5v177q0 42 -6 82h148v-304q0 -114 -54.5 -168t-169.5 -54t-169.5 54zM400 630q-23 -41 -32 -63h-224l39 85q17 41 22 56h239z" />
    <glyph glyph-name="umacron.sc" horiz-adv-x="545" 
d="M102.5 44q-54.5 54 -54.5 168v221q0 43 -6 83h149v-259q0 -74 18 -101.5t63 -27.5q32 0 49.5 11.5t25 39t7.5 78.5v177q0 42 -6 82h148v-304q0 -114 -54.5 -168t-169.5 -54t-169.5 54zM126 668h180q57 0 96 5v-90h-180q-56 0 -96 -5v90z" />
    <glyph glyph-name="uogonek.sc" horiz-adv-x="545" 
d="M496 212q0 -112 -53 -166h1q-46 -42 -75 -86.5t-29 -72.5q0 -20 20 -20q17 0 37 10l18 -71q-41 -26 -96 -26q-37 0 -59.5 20.5t-22.5 57.5q0 61 66 133q-10 -1 -31 -1q-115 0 -169.5 54t-54.5 168v221q0 43 -6 83h149v-259q0 -74 18 -101.5t63 -27.5q32 0 49.5 11.5
t25 39t7.5 78.5v177q0 42 -6 82h148v-304z" />
    <glyph glyph-name="uring.sc" horiz-adv-x="545" 
d="M102.5 44q-54.5 54 -54.5 168v221q0 43 -6 83h149v-259q0 -74 18 -101.5t63 -27.5q32 0 49.5 11.5t25 39t7.5 78.5v177q0 42 -6 82h148v-304q0 -114 -54.5 -168t-169.5 -54t-169.5 54zM336.5 588.5q-28.5 -28.5 -73.5 -28.5t-73.5 26.5t-28.5 70.5t29 71t74 27
q46 0 73.5 -26t27.5 -69t-28.5 -71.5zM296 690.5q-13 13.5 -33 13.5t-33 -13.5t-13 -32.5t12.5 -32t33.5 -13t33.5 13t12.5 32t-13 32.5z" />
    <glyph glyph-name="utilde.sc" horiz-adv-x="545" 
d="M102.5 44q-54.5 54 -54.5 168v221q0 43 -6 83h149v-259q0 -74 18 -101.5t63 -27.5q32 0 49.5 11.5t25 39t7.5 78.5v177q0 42 -6 82h148v-304q0 -114 -54.5 -168t-169.5 -54t-169.5 54zM290 583.5q-16 6.5 -38 19.5q-21 14 -32 14q-15 0 -20 -9t-5 -25h-81q-2 119 86 119
q24 0 41.5 -7t37.5 -19q23 -14 33 -14q15 0 19.5 8t4.5 26h81q1 -58 -19.5 -88.5t-67.5 -30.5q-24 0 -40 6.5z" />
    <glyph glyph-name="v.sc" horiz-adv-x="480" 
d="M37 371q-3 9 -17.5 56t-33.5 89h162q8 -23 25 -89l8 -31l38 -148q11 -47 23 -118h4q10 56 24 116l35 151q17 79 19 119h160q-9 -53 -34 -133l-124 -383h-175z" />
    <glyph glyph-name="w.sc" horiz-adv-x="755" 
d="M30 393q-2 8 -11.5 47.5t-22.5 75.5h160q5 -19 9.5 -43.5t6.5 -35.5l6 -37l24 -115q7 -44 14 -101h3q10 54 22 100l59 232h157l60 -231l24 -101h2l5 36q5 40 10 65l21 113q10 57 12 118h159q-3 -46 -24 -130l-95 -386h-171l-55 222q-13 52 -24 120h-3q-7 -37 -20 -88
l-8 -33l-59 -221h-169z" />
    <glyph glyph-name="wacute.sc" horiz-adv-x="755" 
d="M30 393q-2 8 -11.5 47.5t-22.5 75.5h160q5 -19 9.5 -43.5t6.5 -35.5l6 -37l24 -115q7 -44 14 -101h3q10 54 22 100l59 232h157l60 -231l24 -101h2l5 36q5 40 10 65l21 113q10 57 12 118h159q-3 -46 -24 -130l-95 -386h-171l-55 222q-13 52 -24 120h-3q-7 -37 -20 -88
l-8 -33l-59 -221h-169zM332 650q21 44 26 58h142l-61 -88q-22 -32 -33 -53h-117z" />
    <glyph glyph-name="wcircumflex.sc" horiz-adv-x="755" 
d="M30 393q-2 8 -11.5 47.5t-22.5 75.5h160q5 -19 9.5 -43.5t6.5 -35.5l6 -37l24 -115q7 -44 14 -101h3q10 54 22 100l59 232h157l60 -231l24 -101h2l5 36q5 40 10 65l21 113q10 57 12 118h159q-3 -46 -24 -130l-95 -386h-171l-55 222q-13 52 -24 120h-3q-7 -37 -20 -88
l-8 -33l-59 -221h-169zM404 603l-22 32h-2l-22 -31q-10 -14 -20 -37h-119l64 83q25 32 37 58h116l105 -141h-119q-10 24 -18 36z" />
    <glyph glyph-name="wdieresis.sc" horiz-adv-x="755" 
d="M30 393q-2 8 -11.5 47.5t-22.5 75.5h160q5 -19 9.5 -43.5t6.5 -35.5l6 -37l24 -115q7 -44 14 -101h3q10 54 22 100l59 232h157l60 -231l24 -101h2l5 36q5 40 10 65l21 113q10 57 12 118h159q-3 -46 -24 -130l-95 -386h-171l-55 222q-13 52 -24 120h-3q-7 -37 -20 -88
l-8 -33l-59 -221h-169zM238.5 586.5q-19.5 19.5 -19.5 50.5t19.5 50t50.5 19t51 -19t20 -50t-20 -50.5t-51 -19.5t-50.5 19.5zM419.5 587q-19.5 19 -19.5 50t19.5 50t50.5 19t50.5 -19t19.5 -50t-19.5 -50t-50.5 -19t-50.5 19z" />
    <glyph glyph-name="wgrave.sc" horiz-adv-x="755" 
d="M30 393q-2 8 -11.5 47.5t-22.5 75.5h160q5 -19 9.5 -43.5t6.5 -35.5l6 -37l24 -115q7 -44 14 -101h3q10 54 22 100l59 232h157l60 -231l24 -101h2l5 36q5 40 10 65l21 113q10 57 12 118h159q-3 -46 -24 -130l-95 -386h-171l-55 222q-13 52 -24 120h-3q-7 -37 -20 -88
l-8 -33l-59 -221h-169zM342 567q-11 21 -33 53l-61 88h142q7 -21 26 -58l42 -83h-116z" />
    <glyph glyph-name="x.sc" horiz-adv-x="505" 
d="M43 83l112 176l-104 176q-17 28 -58 81h167q17 -23 41 -65l22 -36l28 -53h2q5 11 28 51l23 39q24 47 29 64h165q-7 -18 -23 -46t-33 -55l-93 -152l109 -178q26 -44 61 -85h-173q-11 14 -21 30.5t-14 23.5l-29 44l-18 31l-12 20h-2q-8 -13 -31 -51l-27 -41
q-24 -42 -31 -57h-168q16 32 50 83z" />
    <glyph glyph-name="y.sc" horiz-adv-x="475" 
d="M169 208l-118 207q-4 7 -22 39t-41 62h168q12 -17 33 -63l27 -60q16 -34 23 -56h3q6 19 22 57l24 58q18 49 21 64h164q-13 -42 -46 -101l-114 -208v-122q0 -47 5 -85h-149v208z" />
    <glyph glyph-name="yacute.sc" horiz-adv-x="475" 
d="M169 208l-118 207q-4 7 -22 39t-41 62h168q12 -17 33 -63l27 -60q16 -34 23 -56h3q6 19 22 57l24 58q18 49 21 64h164q-13 -42 -46 -101l-114 -208v-122q0 -47 5 -85h-149v208zM194 650q21 44 26 58h142l-61 -88q-22 -32 -33 -53h-117z" />
    <glyph glyph-name="ycircumflex.sc" horiz-adv-x="475" 
d="M169 208l-118 207q-4 7 -22 39t-41 62h168q12 -17 33 -63l27 -60q16 -34 23 -56h3q6 19 22 57l24 58q18 49 21 64h164q-13 -42 -46 -101l-114 -208v-122q0 -47 5 -85h-149v208zM266 603l-22 32h-2l-22 -31q-10 -14 -20 -37h-119l64 83q25 32 37 58h116l105 -141h-119
q-10 24 -18 36z" />
    <glyph glyph-name="ydieresis.sc" horiz-adv-x="475" 
d="M169 208l-118 207q-4 7 -22 39t-41 62h168q12 -17 33 -63l27 -60q16 -34 23 -56h3q6 19 22 57l24 58q18 49 21 64h164q-13 -42 -46 -101l-114 -208v-122q0 -47 5 -85h-149v208zM100.5 586.5q-19.5 19.5 -19.5 50.5t19.5 50t50.5 19t51 -19t20 -50t-20 -50.5t-51 -19.5
t-50.5 19.5zM281.5 587q-19.5 19 -19.5 50t19.5 50t50.5 19t50.5 -19t19.5 -50t-19.5 -50t-50.5 -19t-50.5 19z" />
    <glyph glyph-name="ygrave.sc" horiz-adv-x="475" 
d="M169 208l-118 207q-4 7 -22 39t-41 62h168q12 -17 33 -63l27 -60q16 -34 23 -56h3q6 19 22 57l24 58q18 49 21 64h164q-13 -42 -46 -101l-114 -208v-122q0 -47 5 -85h-149v208zM204 567q-11 21 -33 53l-61 88h142q7 -21 26 -58l42 -83h-116z" />
    <glyph glyph-name="z.sc" horiz-adv-x="431" 
d="M12 110l168 213q15 19 30 36l23 27v2h-124q-51 0 -77 -5v133h384v-109l-164 -213q-10 -12 -52 -66v-2h134q47 0 79 5v-131h-401v110z" />
    <glyph glyph-name="zacute.sc" horiz-adv-x="431" 
d="M12 110l168 213q15 19 30 36l23 27v2h-124q-51 0 -77 -5v133h384v-109l-164 -213q-10 -12 -52 -66v-2h134q47 0 79 5v-131h-401v110zM168 650q21 44 26 58h142l-61 -88q-22 -32 -33 -53h-117z" />
    <glyph glyph-name="zcaron.sc" horiz-adv-x="431" 
d="M12 110l168 213q15 19 30 36l23 27v2h-124q-51 0 -77 -5v133h384v-109l-164 -213q-10 -12 -52 -66v-2h134q47 0 79 5v-131h-401v110zM193 672l22 -32h2l22 32q13 20 20 36h119l-64 -83q-27 -35 -38 -58h-115l-106 141h120q6 -18 18 -36z" />
    <glyph glyph-name="zdotaccent.sc" horiz-adv-x="431" 
d="M12 110l168 213q15 19 30 36l23 27v2h-124q-51 0 -77 -5v133h384v-109l-164 -213q-10 -12 -52 -66v-2h134q47 0 79 5v-131h-401v110zM158.5 585.5q-22.5 21.5 -22.5 56.5q0 36 22 57.5t58 21.5t58 -21.5t22 -57.5q0 -35 -22 -56.5t-58 -21.5q-35 0 -57.5 21.5z" />
    <glyph glyph-name="uni0410" unicode="&#x410;" horiz-adv-x="629" 
d="M181 573q27 87 31 127h201l220 -700h-185q-5 44 -19 98l-21 72h-186l-21 -71q-14 -54 -19 -99h-184zM377 304l-30 104q-15 59 -27 134h-3q-15 -76 -31 -134l-30 -104h121z" />
    <glyph glyph-name="uni0411" unicode="&#x411;" horiz-adv-x="570" 
d="M62 602q0 60 -7 98h429v-144q-33 6 -105 6h-163v-125h70q132 0 194.5 -50t62.5 -154q0 -113 -64 -173t-185 -60h-232v602zM281 134q107 0 107 94q0 89 -98 89h-74v-117q0 -20 2 -66h63z" />
    <glyph glyph-name="uni0412" unicode="&#x412;" horiz-adv-x="569" 
d="M512 531q0 -54 -25 -93t-71 -60v-4q60 -13 92.5 -55.5t32.5 -104.5q0 -106 -64 -160t-184 -54h-231v593q0 72 -7 107h217q240 0 240 -169zM215 571v-149h50q95 0 95 79q0 36 -21.5 53t-68.5 17h-55zM215 302v-102q0 -28 3 -66h58q56 0 83 21.5t27 67.5q0 79 -100 79h-71z
" />
    <glyph glyph-name="uni0413" unicode="&#x413;" horiz-adv-x="462" 
d="M62 602q0 63 -7 98h398v-152q-31 7 -105 7h-132v-448q0 -27 2 -57.5t5 -49.5h-161v602z" />
    <glyph glyph-name="uni0403" unicode="&#x403;" horiz-adv-x="462" 
d="M62 602q0 63 -7 98h398v-152q-31 7 -105 7h-132v-448q0 -27 2 -57.5t5 -49.5h-161v602zM211 850q19 37 26 58h147l-67 -96q-25 -34 -33 -53h-121z" />
    <glyph glyph-name="uni0490" unicode="&#x490;" horiz-adv-x="467" 
d="M457 555h-241v-448q0 -27 2 -57.5t5 -49.5h-161v602q0 54 -7 98h257v37q0 64 -5 106h146v-184q0 -56 4 -104z" />
    <glyph glyph-name="uni0414" unicode="&#x414;" horiz-adv-x="741" 
d="M734 145q-4 -48 -4 -104v-184h-146q5 42 5 106v37h-437v-37q0 -44 5 -106h-145v184q0 44 -5 104h79q18 28 29 71t16 110l32 374h468v-555h103zM274 210.5q-7 -38.5 -20 -65.5h223v410h-170l-22 -248q-4 -58 -11 -96.5z" />
    <glyph glyph-name="uni0415" unicode="&#x415;" horiz-adv-x="522" 
d="M62 593q0 72 -7 107h418v-144q-42 6 -105 6h-152v-137h239v-137q-37 7 -105 7h-134v-75q0 -46 3 -82h156q64 0 106 6v-144h-419v593z" />
    <glyph glyph-name="uni0401" unicode="&#x401;" horiz-adv-x="522" 
d="M62 593q0 72 -7 107h418v-144q-42 6 -105 6h-152v-137h239v-137q-37 7 -105 7h-134v-75q0 -46 3 -82h156q64 0 106 6v-144h-419v593zM118.5 775q-20.5 20 -20.5 52q0 31 20.5 51t52.5 20t52 -20t20 -51q0 -32 -20 -52t-52 -20t-52.5 20zM304.5 775q-20.5 20 -20.5 52
q0 31 20.5 51t52.5 20t52 -20t20 -51q0 -32 -20 -52t-52 -20t-52.5 20z" />
    <glyph glyph-name="uni0416" unicode="&#x416;" horiz-adv-x="879" 
d="M183 374l-172 326h187q10 -33 42 -101l87 -178h36v172q0 70 -7 107h160v-279h36l87 178q29 58 42 101h187l-172 -326l201 -374h-197q-14 47 -43 106l-77 156q-8 14 -16 21t-23 7h-25v-183q0 -27 2 -58.5t5 -48.5h-160v290h-24q-15 0 -23.5 -7t-15.5 -21l-77 -156
q-28 -54 -45 -106h-196z" />
    <glyph glyph-name="uni0417" unicode="&#x417;" horiz-adv-x="522" 
d="M114 5q-57 15 -96 43l45 133q84 -51 160 -51q107 0 107 78q0 42 -27.5 60.5t-96.5 18.5h-101v129h86q117 0 117 84q0 70 -85 70q-73 0 -151 -51l-31 136q41 25 97 40t120 15q99 0 155.5 -45t56.5 -123q0 -52 -28 -99.5t-76 -74.5v-2q63 -21 95 -65.5t32 -104.5
q0 -97 -66.5 -151.5t-188.5 -54.5q-67 0 -124 15z" />
    <glyph glyph-name="uni0418" unicode="&#x418;" horiz-adv-x="688" 
d="M62 593q0 70 -7 107h159v-361q0 -50 -8 -127h3q26 75 59 142l175 346h183v-593q0 -70 7 -107h-159v327q0 65 7 135h-3q-24 -65 -73 -155l-163 -307h-180v593z" />
    <glyph glyph-name="uni0419" unicode="&#x419;" horiz-adv-x="688" 
d="M62 593q0 70 -7 107h159v-361q0 -50 -8 -127h3q26 75 59 142l175 346h183v-593q0 -70 7 -107h-159v327q0 65 7 135h-3q-24 -65 -73 -155l-163 -307h-180v593zM258.5 869q-38.5 14 -59.5 34l-21 -91q60 -55 158 -55q50 0 90 14.5t68 40.5l-21 91q-21 -20 -59 -34t-78 -14
q-39 0 -77.5 14z" />
    <glyph glyph-name="uni040D" unicode="&#x40d;" horiz-adv-x="688" 
d="M62 593q0 70 -7 107h159v-361q0 -50 -8 -127h3q26 75 59 142l175 346h183v-593q0 -70 7 -107h-159v327q0 65 7 135h-3q-24 -65 -73 -155l-163 -307h-180v593zM323 758q-7 14 -33 53l-68 96h147q11 -29 26 -58l48 -91h-120z" />
    <glyph glyph-name="uni041A" unicode="&#x41a;" horiz-adv-x="626" 
d="M62 593q0 72 -7 107h161v-272h45l112 178q29 49 45 94h189l-197 -326l234 -374h-200q-21 51 -49 92l-106 164q-19 27 -46 27h-27v-176q0 -28 2 -59.5t5 -47.5h-161v593z" />
    <glyph glyph-name="uni040C" unicode="&#x40c;" horiz-adv-x="626" 
d="M62 593q0 72 -7 107h161v-272h45l112 178q29 49 45 94h189l-197 -326l234 -374h-200q-21 51 -49 92l-106 164q-19 27 -46 27h-27v-176q0 -28 2 -59.5t5 -47.5h-161v593zM269 850q19 37 26 58h147l-67 -96q-25 -34 -33 -53h-121z" />
    <glyph glyph-name="uni041B" unicode="&#x41b;" horiz-adv-x="675" 
d="M459 0v555h-165l-22 -248q-11 -121 -36 -188.5t-74 -98t-132 -30.5l-28 140q38 0 61 18.5t36 60.5t19 117l32 374h463v-593q0 -25 2 -56t5 -51h-161z" />
    <glyph glyph-name="uni041C" unicode="&#x41c;" horiz-adv-x="882" 
d="M98 578q6 80 5 122h212l95 -362q17 -68 31 -174h3q13 88 35 174l96 362h215q-2 -65 5 -132l55 -568h-166l1 39q0 35 -3 71l-15 219q-7 100 -7 171h-3l-127 -500h-173l-123 500h-3q0 -71 -6 -175l-16 -212q-2 -24 -2 -66q0 -32 1 -47h-164z" />
    <glyph glyph-name="uni041D" unicode="&#x41d;" horiz-adv-x="676" 
d="M614 107q0 -25 2 -56t5 -51h-161v291h-244v-184q0 -71 7 -107h-161v593q0 70 -7 107h161v-264h244v157q0 70 -7 107h161v-593z" />
    <glyph glyph-name="uni041E" unicode="&#x41e;" horiz-adv-x="702" 
d="M183.5 33q-70.5 43 -107.5 124t-37 193t37 193t107 124t168 43t168.5 -43t107.5 -124t37 -193t-37 -193t-107.5 -124t-168.5 -43q-97 0 -167.5 43zM462 191.5q39 56.5 39 158.5t-39 158.5t-111 56.5q-71 0 -110.5 -57t-39.5 -158t39.5 -158t110.5 -57q72 0 111 56.5z" />
    <glyph glyph-name="uni041F" unicode="&#x41f;" horiz-adv-x="670" 
d="M608 107q0 -25 2 -56t5 -51h-161v555h-238v-448q0 -71 7 -107h-161v593q0 70 -7 107h553v-593z" />
    <glyph glyph-name="uni0420" unicode="&#x420;" horiz-adv-x="547" 
d="M459 645q68 -55 68 -170t-70 -179t-195 -64h-47v-125q0 -72 7 -107h-160v593q0 72 -7 107h195q141 0 209 -55zM215 566v-201h34q61 0 92.5 27t31.5 81q-1 93 -107 93h-51z" />
    <glyph glyph-name="uni0421" unicode="&#x421;" horiz-adv-x="602" 
d="M180 33q-69 43 -105 123.5t-36 192.5q0 110 39 191.5t111 125.5t170 44q132 0 207 -60l-55 -129q-36 23 -70.5 33.5t-76.5 10.5q-78 0 -120.5 -56t-42.5 -159q0 -102 40 -158t115 -56q93 0 165 57l55 -131q-85 -72 -231 -72q-96 0 -165 43z" />
    <glyph glyph-name="uni0422" unicode="&#x422;" horiz-adv-x="516" 
d="M180 447q0 58 -4 108h-67q-66 0 -105 -7v152h507v-152q-37 7 -105 7h-70v-448q0 -26 2 -57t5 -50h-163v447z" />
    <glyph glyph-name="uni0423" unicode="&#x423;" horiz-adv-x="573" 
d="M100 136h49q30 0 49.5 14t33.5 46l-144 319l-12 26q-44 101 -80 159h180q28 -53 51 -113l81 -199l64 201q21 66 27 111h171q-9 -47 -45 -141l-151 -412q-29 -77 -68.5 -112t-111.5 -35h-76z" />
    <glyph glyph-name="uni040E" unicode="&#x40e;" horiz-adv-x="573" 
d="M100 136h49q30 0 49.5 14t33.5 46l-144 319l-12 26q-44 101 -80 159h180q28 -53 51 -113l81 -199l64 201q21 66 27 111h171q-9 -47 -45 -141l-151 -412q-29 -77 -68.5 -112t-111.5 -35h-76zM211.5 869q-38.5 14 -59.5 34l-21 -91q60 -55 158 -55q50 0 90 14.5t68 40.5
l-21 91q-21 -20 -59 -34t-78 -14q-39 0 -77.5 14z" />
    <glyph glyph-name="uni0424" unicode="&#x424;" horiz-adv-x="837" 
d="M717.5 124.5q-81.5 -85.5 -225.5 -101.5v-14q0 -22 2 -49t5 -47h-154v110q-144 16 -225 101.5t-81 225.5t81 225.5t225 101.5v14q0 22 -2 49t-5 47h154v-110q146 -16 226.5 -101.5t80.5 -225.5t-81.5 -225.5zM239 226q38 -49 108 -65v378q-70 -16 -108 -65t-38 -124
t38 -124zM598 474q-38 49 -108 65v-378q70 16 108 65t38 124t-38 124z" />
    <glyph glyph-name="uni0425" unicode="&#x425;" horiz-adv-x="635" 
d="M32 58.5q19 32.5 38 62.5l143 231l-136 237q-36 64 -76 111h185q23 -30 52 -82l37 -66q19 -35 41 -85h2q8 19 44 86l34 61q31 55 41 86h178q-10 -27 -51 -96q-7 -11 -12.5 -20.5t-10.5 -17.5l-123 -212l141 -235q37 -62 84 -119h-188q-22 28 -52 79l-38 64q-34 61 -49 92
h-2q-22 -43 -52 -92l-38 -62q-32 -54 -42 -81h-181q12 26 31 58.5z" />
    <glyph glyph-name="uni0427" unicode="&#x427;" horiz-adv-x="632" 
d="M416 275q-80 -42 -165 -42q-100 0 -148.5 53t-48.5 162v154q0 26 -2.5 56t-4.5 42h161v-224q0 -52 21.5 -74.5t68.5 -22.5q63 0 118 25v189q0 72 -7 107h161v-593q0 -26 2 -56.5t5 -50.5h-161v275z" />
    <glyph glyph-name="uni0426" unicode="&#x426;" horiz-adv-x="715" 
d="M563 -37v37h-501v593q0 58 -7 107h161v-478q0 -53 2 -77h232v448q0 26 -2 57t-5 50h161v-478q0 -53 2 -77h102q-5 -60 -5 -104v-184h-145q5 62 5 106z" />
    <glyph glyph-name="uni0428" unicode="&#x428;" horiz-adv-x="971" 
d="M62 593q0 25 -2 56t-5 51h161v-478q0 -53 2 -77h191v448q0 25 -2 56t-5 51h161v-478q0 -53 2 -77h190v448q0 71 -7 107h161v-541v-32q0 -81 7 -127h-854v593z" />
    <glyph glyph-name="uni0429" unicode="&#x429;" horiz-adv-x="1021" 
d="M868 -37v37h-806v593q0 25 -2 56t-5 51h161v-478q0 -53 2 -77h191v448q0 25 -2 56t-5 51h161v-478q0 -53 2 -77h190v448q0 71 -7 107h161v-478q0 -53 3 -77h101q-4 -48 -4 -104v-184h-146q5 42 5 106z" />
    <glyph glyph-name="uni040F" unicode="&#x40f;" horiz-adv-x="666" 
d="M403 0v-143h-145q4 50 4 106v37h-200v593q0 58 -7 107h161v-478q0 -53 2 -77h232v448q0 26 -2 57t-5 50h161v-593q0 -25 2 -56t5 -51h-208z" />
    <glyph glyph-name="uni042C" unicode="&#x42c;" horiz-adv-x="563" 
d="M62 602q0 60 -7 98h161v-250h70q133 0 195 -52t62 -161q0 -117 -65 -177t-188 -60h-228v602zM281 134q54 0 80.5 24t26.5 75q0 45 -25 69.5t-76 24.5h-71v-127q0 -20 2 -66h63z" />
    <glyph glyph-name="uni042A" unicode="&#x42a;" horiz-adv-x="634" 
d="M551 398q62 -52 62 -161q0 -117 -65 -177t-188 -60h-228v555q-82 0 -128 -7v152h282v-250h70q133 0 195 -52zM432.5 158.5q26.5 24.5 26.5 75.5q0 44 -25.5 68.5t-76.5 24.5h-71v-127q0 -31 3 -66h63q54 0 80.5 24.5z" />
    <glyph glyph-name="uni042B" unicode="&#x42b;" horiz-adv-x="841" 
d="M62 602q0 60 -7 98h161v-250h70q133 0 195 -52t62 -161q0 -117 -65 -177t-188 -60h-228v602zM281 134q54 0 80.5 24t26.5 75q0 45 -25 69.5t-76 24.5h-71v-127q0 -20 2 -66h63zM781 50.5q2 -31.5 5 -50.5h-161v593q0 70 -7 107h161v-593q0 -25 2 -56.5z" />
    <glyph glyph-name="uni0409" unicode="&#x409;" horiz-adv-x="960" 
d="M878 398q62 -52 62 -161q0 -117 -65 -177t-188 -60h-228v555h-165l-22 -248q-11 -121 -36 -188.5t-74 -98t-132 -30.5l-28 140q38 0 61 18.5t35.5 60.5t19.5 117l32 374h463v-250h70q133 0 195 -52zM758.5 158.5q26.5 24.5 26.5 75.5q0 44 -25.5 68.5t-75.5 24.5h-71
v-127q0 -20 2 -66h63q54 0 80.5 24.5z" />
    <glyph glyph-name="uni040A" unicode="&#x40a;" horiz-adv-x="962" 
d="M879.5 387.5q62.5 -50.5 62.5 -160.5q0 -106 -66.5 -166.5t-187.5 -60.5h-228v311h-244v-204q0 -71 7 -107h-161v593q0 70 -7 107h161v-262h244v164q0 58 -7 98h161v-262h71q132 0 194.5 -50.5zM759.5 158.5q27.5 24.5 27.5 68.5q0 84 -102 84h-71v-111q0 -31 3 -66h63
q52 0 79.5 24.5z" />
    <glyph glyph-name="uni0405" unicode="&#x405;" horiz-adv-x="537" 
d="M385.5 692.5q53.5 -17.5 91.5 -49.5l-55 -128q-31 26 -69 41t-75 15q-34 0 -53 -16t-19 -45q0 -31 25.5 -50.5t95.5 -46.5q99 -37 140 -84t41 -125q0 -102 -65.5 -158t-180.5 -56q-128 0 -231 70l46 136q37 -29 87 -47t96 -18q42 0 64 16.5t22 47.5q0 30 -28 51t-104 48
q-90 30 -130.5 79t-40.5 130q0 96 61 151.5t167 55.5q61 0 114.5 -17.5z" />
    <glyph glyph-name="uni0404" unicode="&#x404;" horiz-adv-x="602" 
d="M576 62q-85 -72 -231 -72q-96 0 -165 43t-105 123.5t-36 192.5q0 110 39 191.5t111 125.5t170 44q132 0 207 -60l-55 -129q-36 23 -70.5 33.5t-76.5 10.5q-62 0 -102 -36t-54 -104h262v-137q-37 7 -105 7h-161q11 -77 49.5 -118t102.5 -41q93 0 165 57z" />
    <glyph glyph-name="uni042D" unicode="&#x42d;" horiz-adv-x="602" 
d="M26 62q85 -72 231 -72q96 0 165 43t105 123.5t36 192.5q0 110 -39 191.5t-111 125.5t-170 44q-132 0 -207 -60l55 -129q36 23 70.5 33.5t76.5 10.5q62 0 102 -36t54 -104h-262v-137q37 7 105 7h161q-11 -77 -49.5 -118t-102.5 -41q-93 0 -165 57z" />
    <glyph glyph-name="uni0406" unicode="&#x406;" horiz-adv-x="278" 
d="M218 50.5q2 -31.5 5 -50.5h-161v593q0 70 -7 107h161v-593q0 -25 2 -56.5z" />
    <glyph glyph-name="uni0407" unicode="&#x407;" horiz-adv-x="278" 
d="M218 50.5q2 -31.5 5 -50.5h-161v593q0 70 -7 107h161v-593q0 -25 2 -56.5zM-6.5 775q-20.5 20 -20.5 52q0 31 20.5 51t52.5 20t52 -20t20 -51q0 -32 -20 -52t-52 -20t-52.5 20zM179.5 775q-20.5 20 -20.5 52q0 31 20.5 51t52.5 20t52 -20t20 -51q0 -32 -20 -52t-52 -20
t-52.5 20z" />
    <glyph glyph-name="uni0408" unicode="&#x408;" horiz-adv-x="289" 
d="M66 700h161v-614q0 -146 -57 -209.5t-182 -63.5l-28 141q57 0 85 36t28 115v488q0 72 -7 107z" />
    <glyph glyph-name="uni040B" unicode="&#x40b;" horiz-adv-x="713" 
d="M495 0v264q0 38 -13.5 54.5t-45.5 16.5q-25 0 -51 -10t-49 -27v-191q0 -27 2 -58t5 -49h-163v447q0 54 -4 108h-67q-65 0 -105 -7v152h558v-152q-38 7 -105 7h-121v-157q96 67 182 67q67 0 100 -39t33 -118v-197q0 -79 7 -111h-163z" />
    <glyph glyph-name="uni042E" unicode="&#x42e;" horiz-adv-x="933" 
d="M754 667q68 -43 104 -124t36 -193q0 -111 -36 -192.5t-104 -124.5t-162 -43q-129 0 -208 81t-92 225h-76v-189q0 -71 7 -107h-161v593q0 70 -7 107h161v-259h81q20 128 97 198.5t198 70.5q94 0 162 -43zM732 350q0 215 -140 215t-140 -215t140 -215t140 215z" />
    <glyph glyph-name="uni042F" unicode="&#x42f;" horiz-adv-x="583" 
d="M167 281q-69 25 -103 72.5t-34 126.5q0 107 66.5 163.5t194.5 56.5h230v-593q0 -72 7 -107h-160v245l-29 -1q-17 0 -26.5 -7.5t-24.5 -32.5l-65 -108q-29 -48 -47 -96h-183zM368 370v196h-76q-109 0 -109 -98q0 -47 29 -73t82 -25h74z" />
    <glyph glyph-name="uni0402" unicode="&#x402;" horiz-adv-x="706" 
d="M618 426q33 -39 33 -118v-110q0 -73 -19 -118t-65.5 -67.5t-127.5 -22.5l-24 133q43 0 61.5 18.5t18.5 63.5v59q0 38 -13.5 54.5t-45.5 16.5q-25 0 -51 -10t-49 -27v-191q0 -27 2 -58t5 -49h-163v447q0 54 -4 108h-67q-65 0 -105 -7v152h558v-152q-38 7 -105 7h-121v-157
q96 67 182 67q67 0 100 -39z" />
    <glyph glyph-name="uni04C0" unicode="&#x4c0;" horiz-adv-x="278" 
d="M218 50.5q2 -31.5 5 -50.5h-161v593q0 70 -7 107h161v-593q0 -25 2 -56.5z" />
    <glyph glyph-name="uni04E2" unicode="&#x4e2;" horiz-adv-x="688" 
d="M62 593q0 70 -7 107h159v-361q0 -50 -8 -127h3q26 75 59 142l175 346h183v-593q0 -70 7 -107h-159v327q0 65 7 135h-3q-24 -65 -73 -155l-163 -307h-180v593zM190 866h196q50 0 96 6v-95h-196q-43 0 -96 -5v94z" />
    <glyph glyph-name="uni04EE" unicode="&#x4ee;" horiz-adv-x="573" 
d="M100 136h49q30 0 49.5 14t33.5 46l-144 319l-12 26q-44 101 -80 159h180q28 -53 51 -113l81 -199l64 201q21 66 27 111h171q-9 -47 -45 -141l-151 -412q-29 -77 -68.5 -112t-111.5 -35h-76zM143 866h196q50 0 96 6v-95h-196q-43 0 -96 -5v94z" />
    <glyph glyph-name="uni0414.loclBGR" horiz-adv-x="672" 
d="M665 145q-5 -40 -5 -104v-184h-145q5 62 5 106v37h-368v-37q0 -44 5 -106h-145v184q0 44 -5 104h78l117 428q3 9 16 54t16 73h201l153 -555h77zM251 145h169l-55 264l-12 65l-12 68h-4l-27 -133z" />
    <glyph glyph-name="uni041B.loclBGR" horiz-adv-x="617" 
d="M314 542h-3q-9 -43 -31 -134l-79 -309q-15 -65 -19 -99h-184l177 573q27 87 31 127h201l214 -700h-185q-3 32 -19 98l-76 310q-18 80 -27 134z" />
    <glyph glyph-name="uni0424.loclBGR" horiz-adv-x="837" 
d="M716.5 102.5q-82.5 -91.5 -224.5 -108.5v-15q0 -22 2 -49t5 -47h-154v111q-142 17 -224 108t-82 248t82 248t224 108v15q0 22 -2 49t-5 47h154v-111q144 -16 225.5 -107.5t81.5 -248.5q0 -156 -82.5 -247.5zM240 204.5q39 -55.5 107 -72.5v436q-68 -17 -107 -72.5
t-39 -145.5t39 -145.5zM597 495.5q-39 55.5 -107 72.5v-436q68 17 107 72.5t39 145.5t-39 145.5z" />
    <glyph glyph-name="uni0409.loclBGR" horiz-adv-x="911" 
d="M828.5 398q62.5 -52 62.5 -161q0 -117 -65.5 -177t-187.5 -60h-202q-3 32 -19 98l-76 310q-18 80 -27 134h-3q-9 -43 -31 -134l-79 -309q-15 -65 -19 -99h-184l177 573q27 87 31 127h201l76 -250h151q132 0 194.5 -52zM709.5 158.5q26.5 24.5 26.5 75.5q0 44 -25.5 68.5
t-76.5 24.5h-113l59 -193h49q54 0 80.5 24.5z" />
    <glyph glyph-name="uni0430" unicode="&#x430;" horiz-adv-x="455" 
d="M54.5 21.5q-32.5 31.5 -32.5 86.5q0 71 58.5 112t161.5 41h19v19q0 62 -61 62q-30 0 -57.5 -9t-57.5 -28l-28 112q36 21 83 34.5t93 13.5q87 0 130 -42.5t43 -128.5v-188q0 -71 8 -106h-132q-9 16 -12 43q-50 -53 -127 -53q-56 0 -88.5 31.5zM261 113v72h-25
q-35 0 -56.5 -16t-21.5 -43q0 -19 10 -29t29 -10q31 0 64 26z" />
    <glyph glyph-name="uni0431" unicode="&#x431;" horiz-adv-x="489" 
d="M79.5 65q-53.5 75 -53.5 227q0 111 21.5 177.5t70.5 107.5q26 21 54 35t69 30q47 20 80 36t67 42l34 -123q-27 -25 -57.5 -39.5t-74.5 -29.5q-20 -6 -39.5 -13.5t-33.5 -16.5q-33 -19 -50 -53.5t-18 -87.5h2q19 46 59.5 72t91.5 26q77 0 120 -55.5t43 -155.5
q0 -120 -58 -187t-165 -67q-109 0 -162.5 75zM299 146q20 30 20 81q0 54 -17.5 82t-51.5 28q-37 0 -57.5 -31.5t-20.5 -85.5q0 -49 19 -76.5t53 -27.5q35 0 55 30z" />
    <glyph glyph-name="uni0432" unicode="&#x432;" horiz-adv-x="447" 
d="M45 377q0 44 -6 78h184q94 0 138 -28t44 -85q0 -37 -19 -62.5t-53 -38.5v-3q46 -10 69 -36t23 -66q0 -71 -46.5 -103.5t-145.5 -32.5h-188v377zM218 270q54 0 54 43q0 19 -13 28.5t-42 9.5h-37v-81h38zM222 102q34 0 49.5 11t15.5 35q0 23 -15.5 33.5t-48.5 10.5h-43v-54
q0 -25 1 -36h41z" />
    <glyph glyph-name="uni0433" unicode="&#x433;" horiz-adv-x="362" 
d="M352 331q-35 8 -107 8h-55v-232q0 -68 8 -107h-153v348q0 79 -6 107h313v-124z" />
    <glyph glyph-name="uni0453" unicode="&#x453;" horiz-adv-x="362" 
d="M352 331q-35 8 -107 8h-55v-232q0 -68 8 -107h-153v348q0 79 -6 107h313v-124zM162 613q23 47 30 65h148l-72 -104q-26 -35 -38 -60h-121z" />
    <glyph glyph-name="uni0491" unicode="&#x491;" horiz-adv-x="366" 
d="M45 348q0 79 -6 107h179v26q0 45 -5 105h139v-157q0 -34 2 -58t3 -32h-167v-232q0 -68 8 -107h-153v348z" />
    <glyph glyph-name="uni0434" unicode="&#x434;" horiz-adv-x="572" 
d="M562 116q-4 -50 -4 -90v-158h-145q4 48 4 106v26h-263v-26q0 -66 5 -106h-145v158q0 40 -4 90h66q13 15 19.5 48.5t12.5 93.5l19 197h360v-339h75zM344 116v224h-85l-11 -116l-3 -29q-5 -54 -13 -79h112z" />
    <glyph glyph-name="uni0435" unicode="&#x435;" horiz-adv-x="474" 
d="M78.5 48q-55.5 58 -55.5 168q0 116 58.5 182.5t161.5 66.5q96 0 149.5 -56.5t53.5 -170.5q0 -18 -1 -28l-275 -25q5 -80 92 -80q40 0 77.5 12t66.5 33l30 -104q-80 -56 -196 -56q-106 0 -161.5 58zM309 275q0 35 -16.5 56t-46.5 21q-32 0 -53 -25.5t-24 -66.5z" />
    <glyph glyph-name="uni0451" unicode="&#x451;" horiz-adv-x="474" 
d="M78.5 48q-55.5 58 -55.5 168q0 116 58.5 182.5t161.5 66.5q96 0 149.5 -56.5t53.5 -170.5q0 -18 -1 -28l-275 -25q5 -80 92 -80q40 0 77.5 12t66.5 33l30 -104q-80 -56 -196 -56q-106 0 -161.5 58zM309 275q0 35 -16.5 56t-46.5 21q-32 0 -53 -25.5t-24 -66.5zM90.5 530
q-20.5 20 -20.5 52q0 31 20.5 51t52.5 20t52 -20t20 -51q0 -32 -20 -52t-52 -20t-52.5 20zM276.5 530q-20.5 20 -20.5 52q0 31 20.5 51t52.5 20t52 -20t20 -51q0 -32 -20 -52t-52 -20t-52.5 20z" />
    <glyph glyph-name="uni0436" unicode="&#x436;" horiz-adv-x="674" 
d="M683 0h-168q-9 43 -22 73l-39 81q-9 19 -26 19h-20v-65q0 -68 7 -108h-149v173h-20q-17 0 -26 -19l-39 -81q-14 -33 -21 -73h-169l126 241l-104 214h164q4 -27 20 -64l43 -101h26v57q0 76 -7 108h149v-165h27l43 101q16 41 19 64h165l-105 -214z" />
    <glyph glyph-name="uni0437" unicode="&#x437;" horiz-adv-x="399" 
d="M87.5 0q-43.5 10 -72.5 29l35 104q24 -14 58 -22t67 -8q64 0 64 42q0 19 -17.5 27.5t-55.5 8.5h-88v96h75q70 0 70 40q0 19 -14 28t-44 9q-48 0 -110 -28l-23 103q33 17 76 26.5t88 9.5q79 0 121.5 -29.5t42.5 -85.5q0 -72 -70 -112v-1q87 -28 87 -109q0 -67 -51 -102.5
t-145 -35.5q-50 0 -93.5 10z" />
    <glyph glyph-name="uni0438" unicode="&#x438;" horiz-adv-x="501" 
d="M46 352q0 66 -7 103h144v-156q0 -31 -4 -97h3q26 60 41 90l83 163h147v-350q0 -70 7 -105h-144v146q0 56 4 99h-3l-46 -95l-78 -150h-147v352z" />
    <glyph glyph-name="uni0439" unicode="&#x439;" horiz-adv-x="501" 
d="M46 352q0 66 -7 103h144v-156q0 -31 -4 -97h3q26 60 41 90l83 163h147v-350q0 -70 7 -105h-144v146q0 56 4 99h-3l-46 -95l-78 -150h-147v352zM177 616.5q-34 13.5 -56 33.5l-21 -91q61 -54 148 -54q89 0 148 54l-21 91q-21 -20 -55.5 -33.5t-71.5 -13.5t-71 13.5z" />
    <glyph glyph-name="uni045D" unicode="&#x45d;" horiz-adv-x="501" 
d="M46 352q0 66 -7 103h144v-156q0 -31 -4 -97h3q26 60 41 90l83 163h147v-350q0 -70 7 -105h-144v146q0 56 4 99h-3l-46 -95l-78 -150h-147v352zM168 574l-73 104h149q11 -30 30 -65l52 -99h-120q-8 18 -38 60z" />
    <glyph glyph-name="uni043A" unicode="&#x43a;" horiz-adv-x="495" 
d="M191 291h17l68 96q11 15 23 35t16 33h170l-148 -213l172 -242h-173q-10 30 -37 66l-64 87q-8 11 -14.5 15.5t-15.5 4.5h-14v-65q0 -68 7 -108h-152v347q0 76 -7 108h152v-164z" />
    <glyph glyph-name="uni045C" unicode="&#x45c;" horiz-adv-x="495" 
d="M191 291h17l68 96q11 15 23 35t16 33h170l-148 -213l172 -242h-173q-10 30 -37 66l-64 87q-8 11 -14.5 15.5t-15.5 4.5h-14v-65q0 -68 7 -108h-152v347q0 76 -7 108h152v-164zM225 613q23 47 30 65h148l-72 -104q-26 -35 -38 -60h-121z" />
    <glyph glyph-name="uni043B" unicode="&#x43b;" horiz-adv-x="510" 
d="M317 0v339h-77l-11 -115q-10 -93 -20.5 -138.5t-36 -70.5t-77.5 -25q-47 0 -85 9v125q15 -3 29 -3q17 0 26 16.5t13 41.5t9 79l20 197h355v-348q0 -75 7 -107h-152z" />
    <glyph glyph-name="uni043C" unicode="&#x43c;" horiz-adv-x="651" 
d="M64 364q5 46 3 91h179l52 -191q10 -33 27 -136h3q16 92 28 135l50 192h179q0 -24 4 -98l32 -357h-138q1 27 -1 78l-6 98q-2 40 -2 66l1 48h-4l-82 -290h-129l-80 290h-3v-56q0 -39 -1 -58l-8 -95q-2 -34 -2 -50q0 -21 1 -31h-135z" />
    <glyph glyph-name="uni043D" unicode="&#x43d;" horiz-adv-x="495" 
d="M46 348q0 75 -7 107h152v-169h110v62q0 73 -7 107h152v-348q0 -70 8 -107h-153v170h-110v-63q0 -66 7 -107h-152v348z" />
    <glyph glyph-name="uni043E" unicode="&#x43e;" horiz-adv-x="494" 
d="M83.5 54q-60.5 64 -60.5 174q0 71 27.5 125t78 83t118.5 29q103 0 164 -64.5t61 -172.5q0 -109 -60.5 -173.5t-164.5 -64.5q-103 0 -163.5 64zM305.5 145.5q20.5 29.5 20.5 82.5q0 52 -21 81.5t-58 29.5t-58 -29.5t-21 -81.5q0 -53 21 -82.5t58 -29.5q38 0 58.5 29.5z
" />
    <glyph glyph-name="uni043F" unicode="&#x43f;" horiz-adv-x="499" 
d="M305 0v339h-114v-232q0 -66 7 -107h-152v348q0 75 -7 107h411v-348q0 -70 8 -107h-153z" />
    <glyph glyph-name="uni0440" unicode="&#x440;" horiz-adv-x="501" 
d="M475 236q0 -121 -44 -183.5t-126 -62.5q-28 0 -58 10.5t-56 29.5v-147q0 -59 7 -108h-152v569q0 71 -7 111h130q10 -29 12 -55q73 65 147 65q147 0 147 -229zM191 311v-181q36 -12 62 -12q37 0 55.5 28t18.5 92q0 54 -14 76t-49 22q-37 0 -73 -25z" />
    <glyph glyph-name="uni0441" unicode="&#x441;" horiz-adv-x="401" 
d="M322.5 455q35.5 -10 62.5 -29l-44 -119q-36 29 -85 29q-40 0 -62.5 -29t-22.5 -79q0 -56 21 -83t63 -27q50 0 89 27l34 -117q-58 -38 -146 -38q-99 0 -154 60.5t-55 168.5q0 116 60 181t164 65q40 0 75.5 -10z" />
    <glyph glyph-name="uni0442" unicode="&#x442;" horiz-adv-x="409" 
d="M399 331q-37 8 -108 8h-15v-232q0 -68 8 -107h-153v339h-14q-70 0 -107 -8v124h389v-124z" />
    <glyph glyph-name="uni0443" unicode="&#x443;" horiz-adv-x="463" 
d="M418 318l-100 -320q-33 -102 -86.5 -157t-148.5 -66l-32 128q42 12 67.5 37t39.5 63l-115 329q-10 30 -22.5 63t-25.5 60h160q10 -25 22 -66l7 -22l33 -117q11 -39 19 -100h3q8 67 13 95l25 113q4 19 5 25q11 46 12 72h161q-11 -59 -37 -137z" />
    <glyph glyph-name="uni045E" unicode="&#x45e;" horiz-adv-x="463" 
d="M418 318l-100 -320q-33 -102 -86.5 -157t-148.5 -66l-32 128q42 12 67.5 37t39.5 63l-115 329q-10 30 -22.5 63t-25.5 60h160q10 -25 22 -66l7 -22l33 -117q11 -39 19 -100h3q8 67 13 95l25 113q4 19 5 25q11 46 12 72h161q-11 -59 -37 -137zM156 616.5
q-34 13.5 -56 33.5l-21 -91q61 -54 148 -54q89 0 148 54l-21 91q-21 -20 -55.5 -33.5t-71.5 -13.5t-71 13.5z" />
    <glyph glyph-name="uni0444" unicode="&#x444;" horiz-adv-x="635" 
d="M554 65q-58 -61 -164 -73v-109q0 -68 7 -108h-152v217q-106 11 -164 72t-58 163t58 163.5t164 72.5v139q0 70 -7 108l152 10v-257q106 -12 164 -73.5t58 -162.5t-58 -162zM445 306.5q-21 30.5 -62 41.5v-242q41 11 62 41.5t21 79.5t-21 79.5zM189 147.5
q21 -30.5 62 -41.5v242q-41 -11 -62 -41.5t-21 -79.5t21 -79.5z" />
    <glyph glyph-name="uni0445" unicode="&#x445;" horiz-adv-x="465" 
d="M33 66l11 20l84 144l-70 131q-4 7 -20.5 37.5t-35.5 56.5h168q13 -23 26 -57l15 -33q4 -10 9.5 -27.5t8.5 -26.5h2q2 7 8 25t10 28l15 34q11 25 19 57h161q-9 -28 -42 -91l-70 -133l86 -150q25 -46 50 -81h-166q-13 19 -28 48l-21 38q-8 18 -22 55h-3q-6 -15 -24 -57
l-16 -32q-17 -38 -21 -52h-168q8 20 34 66z" />
    <glyph glyph-name="uni0447" unicode="&#x447;" horiz-adv-x="479" 
d="M287 0l-1 178q-29 -23 -62 -35t-64 -12q-62 0 -89.5 35t-27.5 112v70q0 75 -7 107h152v-138q0 -32 9 -44.5t34 -12.5q32 0 55 14v74q0 73 -7 107h152v-348q0 -70 8 -107h-152z" />
    <glyph glyph-name="uni0446" unicode="&#x446;" horiz-adv-x="531" 
d="M377 -26v26h-331v348q0 75 -7 107h152v-279q0 -39 3 -58h107v230q0 73 -7 107h152v-275q0 -41 3 -62h73q-5 -42 -5 -90v-160h-145q5 60 5 106z" />
    <glyph glyph-name="uni0448" unicode="&#x448;" horiz-adv-x="730" 
d="M689 0h-643v348q0 73 -7 107h148v-286q0 -36 3 -53h103v232q0 73 -7 107h149v-282q0 -38 2 -57h103v232q0 73 -7 107h149v-348q0 -71 7 -107z" />
    <glyph glyph-name="uni0449" unicode="&#x449;" horiz-adv-x="767" 
d="M757 118q-1 -8 -3 -32t-2 -58v-160h-145q5 40 5 106v26h-566v348q0 73 -7 107h148v-286q0 -36 3 -53h103v232q0 73 -7 107h149v-282q0 -38 2 -57h103v232q0 73 -7 107h149v-275q0 -41 2 -62h73z" />
    <glyph glyph-name="uni045F" unicode="&#x45f;" horiz-adv-x="495" 
d="M317 0v-132h-145q5 40 5 106v26h-131v348q0 75 -7 107h152v-279q0 -39 3 -58h107v230q0 73 -7 107h152v-348q0 -70 8 -107h-137z" />
    <glyph glyph-name="uni044C" unicode="&#x44c;" horiz-adv-x="451" 
d="M46 351q0 75 -7 104h152v-122h71q177 0 177 -159q0 -87 -51.5 -130.5t-153.5 -43.5h-188v351zM229 110q67 0 67 58q0 28 -16.5 41.5t-49.5 13.5h-39v-113h38z" />
    <glyph glyph-name="uni044A" unicode="&#x44a;" horiz-adv-x="505" 
d="M100 339h-17q-45 0 -76 -4v120h238v-122h71q177 0 177 -159q0 -87 -51.5 -130.5t-153.5 -43.5h-188v339zM283 110q67 0 67 58q0 28 -16.5 41.5t-49.5 13.5h-39v-113h38z" />
    <glyph glyph-name="uni044B" unicode="&#x44b;" horiz-adv-x="688" 
d="M46 351q0 75 -7 104h152v-122h71q177 0 177 -159q0 -87 -51.5 -130.5t-153.5 -43.5h-188v351zM229 110q67 0 67 58q0 28 -16.5 41.5t-49.5 13.5h-39v-113h38zM497 343q0 67 -7 112h152v-343q0 -68 7 -112h-152v343z" />
    <glyph glyph-name="uni0459" unicode="&#x459;" horiz-adv-x="722" 
d="M710 174q0 -174 -205 -174h-188v339h-77l-11 -115q-10 -93 -20.5 -138.5t-36 -70.5t-77.5 -25q-47 0 -85 9v125q15 -3 29 -3q17 0 26 16.5t13 41.5t9 79l20 197h355v-122h71q177 0 177 -159zM567 168q0 28 -16 41.5t-50 13.5h-39v-113h38q67 0 67 58z" />
    <glyph glyph-name="uni045A" unicode="&#x45a;" horiz-adv-x="706" 
d="M651 276.5q44 -38.5 44 -111.5q0 -80 -51 -122.5t-151 -42.5h-192v189h-110v-82q0 -66 7 -107h-152v348q0 75 -7 107h152v-151h110v44q0 73 -7 107h152v-140h74q87 0 131 -38.5zM536 121.5q15 11.5 15 37.5q0 24 -14.5 35t-47.5 11h-43v-95h42q33 0 48 11.5z" />
    <glyph glyph-name="uni0455" unicode="&#x455;" horiz-adv-x="396" 
d="M283 455q41 -10 71 -28l-32 -101q-21 13 -49 20.5t-51 7.5q-42 0 -42 -28q0 -16 17 -27t54 -24q60 -21 92 -55t32 -90q0 -66 -47 -103t-134 -37q-108 0 -179 51l35 104q27 -19 59.5 -30.5t62.5 -11.5q55 0 55 32q0 17 -18 28t-61 26q-56 18 -85.5 50t-29.5 85
q0 65 44 103t119 38q46 0 87 -10z" />
    <glyph glyph-name="uni0454" unicode="&#x454;" horiz-adv-x="401" 
d="M305.5 109.5q24.5 6.5 43.5 20.5l29 -102q-58 -38 -146 -38q-99 0 -154 60.5t-55 168.5q0 116 60 181t164 65q40 0 75.5 -10t62.5 -29l-39 -104q-38 30 -90 30q-66 0 -81 -80h134v-94q-37 5 -107 5h-28q6 -42 26 -61t55 -19q26 0 50.5 6.5z" />
    <glyph glyph-name="uni044D" unicode="&#x44d;" horiz-adv-x="401" 
d="M95.5 109.5q-24.5 6.5 -43.5 20.5l-29 -102q58 -38 146 -38q99 0 154 60.5t55 168.5q0 116 -60 181t-164 65q-40 0 -75.5 -10t-62.5 -29l39 -104q38 30 90 30q66 0 81 -80h-134v-94q37 5 107 5h28q-6 -42 -26 -61t-55 -19q-26 0 -50.5 6.5z" />
    <glyph glyph-name="uni0456" unicode="&#x456;" horiz-adv-x="237" 
d="M57 534.5q-24 23.5 -24 61.5q0 37 24 60.5t62 23.5t62 -23.5t24 -60.5q0 -38 -24 -61.5t-62 -23.5t-62 23.5zM46 343q0 67 -7 112h152v-343q0 -68 7 -112h-152v343z" />
    <glyph glyph-name="uni0457" unicode="&#x457;" horiz-adv-x="237" 
d="M46 343q0 67 -7 112h152v-343q0 -68 7 -112h-152v343zM-27.5 530q-20.5 20 -20.5 52q0 31 20.5 51t52.5 20t52 -20t20 -51q0 -32 -20 -52t-52 -20t-52.5 20zM158.5 530q-20.5 20 -20.5 52q0 31 20.5 51t52.5 20t52 -20t20 -51q0 -32 -20 -52t-52 -20t-52.5 20z" />
    <glyph glyph-name="uni0458" unicode="&#x458;" horiz-adv-x="237" 
d="M57 534.5q-24 23.5 -24 61.5q0 37 24 60.5t62 23.5t62 -23.5t24 -60.5q0 -38 -24 -61.5t-62 -23.5t-62 23.5zM-35 -106q43 10 62 41.5t19 93.5v316q0 66 -7 110h152v-440q0 -124 -47.5 -184.5t-147.5 -65.5z" />
    <glyph glyph-name="uni045B" unicode="&#x45b;" horiz-adv-x="491" 
d="M300 0v274q0 33 -10.5 47.5t-33.5 14.5q-28 0 -65 -24v-200q0 -68 7 -112h-152v526h-63l1 104h61v2q0 42 -6 78l152 10v-90h121l-1 -104h-120v-117q30 26 65.5 41t69.5 15q62 0 90.5 -35.5t28.5 -117.5v-201q0 -76 7 -111h-152z" />
    <glyph glyph-name="uni044E" unicode="&#x44e;" horiz-adv-x="688" 
d="M607 401q58 -64 58 -173q0 -110 -58 -174t-156 -64q-85 0 -140 47.5t-69 132.5h-51v-63q0 -66 7 -107h-152v348q0 75 -7 107h152v-169h51q14 84 69 131.5t140 47.5q98 0 156 -64zM520 228q0 111 -69 111t-69 -111q0 -112 69 -112t69 112z" />
    <glyph glyph-name="uni044F" unicode="&#x44f;" horiz-adv-x="471" 
d="M115 183q-42 19 -60 47t-18 74q0 75 49 113t147 38h192v-365q0 -26 2 -52t5 -38h-150v155h-21q-13 0 -24 -21l-32 -61q-4 -9 -16 -32.5t-17 -40.5h-166zM282 250v99h-42q-29 0 -44.5 -12.5t-15.5 -36.5q0 -27 14.5 -38.5t47.5 -11.5h40z" />
    <glyph glyph-name="uni0452" unicode="&#x452;" horiz-adv-x="484" 
d="M416.5 429.5q28.5 -35.5 28.5 -117.5v-297q0 -124 -47.5 -184.5t-147.5 -65.5l-31 129q43 10 62 41.5t19 93.5v245q0 33 -10.5 47.5t-33.5 14.5q-28 0 -65 -24v-200q0 -68 7 -112h-152v526h-63l1 104h61v2q0 42 -6 78l152 10v-90h121l-1 -104h-120v-117q30 26 65.5 41
t69.5 15q62 0 90.5 -35.5z" />
    <glyph glyph-name="uni04CF" unicode="&#x4cf;" horiz-adv-x="233" 
d="M44 602q0 68 -7 108l152 10v-608q0 -68 7 -112h-152v602z" />
    <glyph glyph-name="uni04E3" unicode="&#x4e3;" horiz-adv-x="501" 
d="M46 352q0 66 -7 103h144v-156q0 -31 -4 -97h3q26 60 41 90l83 163h147v-350q0 -70 7 -105h-144v146q0 56 4 99h-3l-46 -95l-78 -150h-147v352zM102 621h196q50 0 96 6v-95h-196q-43 0 -96 -5v94z" />
    <glyph glyph-name="uni04EF" unicode="&#x4ef;" horiz-adv-x="463" 
d="M418 318l-100 -320q-33 -102 -86.5 -157t-148.5 -66l-32 128q42 12 67.5 37t39.5 63l-115 329q-10 30 -22.5 63t-25.5 60h160q10 -25 22 -66l7 -22l33 -117q11 -39 19 -100h3q8 67 13 95l25 113q4 19 5 25q11 46 12 72h161q-11 -59 -37 -137zM81 621h196q50 0 96 6v-95
h-196q-43 0 -96 -5v94z" />
    <glyph glyph-name="uni0432.loclBGR" horiz-adv-x="499" 
d="M99.5 32q-46.5 42 -59.5 113t-13 194q0 143 21 224t70 117t136 36q94 0 146 -44t52 -125q0 -123 -109 -167v-2q132 -20 132 -176q0 -100 -62 -156t-170 -56q-97 0 -143.5 42zM211 415q92 12 92 111q0 35 -13 52t-40 17q-35 0 -56 -35q-19 -35 -19 -108v-43zM304.5 139
q21.5 27 21.5 76q0 46 -18.5 68t-57.5 22q-14 0 -21 -1l-54 -7v-68q0 -61 16 -89t53 -28q39 0 60.5 27z" />
    <glyph glyph-name="uni0433.loclBGR" horiz-adv-x="394" 
d="M64 26q-43 36 -43 101q0 103 130 140q44 13 61 23t17 30q0 28 -45 28q-25 0 -57 -10.5t-62 -26.5l-24 110q41 21 86 32.5t88 11.5q79 0 120.5 -33t41.5 -96q0 -56 -31.5 -91t-95.5 -51q-44 -12 -62.5 -22t-18.5 -29q0 -33 48 -33q31 0 66 11t65 30l30 -110
q-36 -25 -85 -38t-104 -13q-82 0 -125 36z" />
    <glyph glyph-name="uni0453.loclBGR" horiz-adv-x="394" 
d="M64 26q-43 36 -43 101q0 103 130 140q44 13 61 23t17 30q0 28 -45 28q-25 0 -57 -10.5t-62 -26.5l-24 110q41 21 86 32.5t88 11.5q79 0 120.5 -33t41.5 -96q0 -56 -31.5 -91t-95.5 -51q-44 -12 -62.5 -22t-18.5 -29q0 -33 48 -33q31 0 66 11t65 30l30 -110
q-36 -25 -85 -38t-104 -13q-82 0 -125 36zM177 613q23 47 30 65h148l-72 -104q-26 -35 -38 -60h-121z" />
    <glyph glyph-name="uni0434.loclBGR" horiz-adv-x="504" 
d="M140.5 -224q-41.5 11 -81.5 34l33 120q28 -19 60.5 -29t64.5 -10q95 0 95 94v56q-23 -23 -58.5 -37t-69.5 -14q-73 0 -115.5 61t-42.5 165q0 119 46.5 184t128.5 65q70 0 122 -58q3 26 12 48h130q-8 -37 -8 -107v-345q0 -121 -56 -179.5t-170 -58.5q-49 0 -90.5 11z
M312 140v174q-30 23 -66 23q-73 0 -73 -113q0 -54 16.5 -80t50.5 -26q37 0 72 22z" />
    <glyph glyph-name="uni0436.loclBGR" horiz-adv-x="674" 
d="M115 252l-102 203h164q4 -27 20 -64l41 -90h28v300q0 67 -7 107l149 10v-417h29l41 90q13 31 20 64h164l-103 -203l125 -252h-169q-7 32 -22 73l-37 91q-8 20 -26 20h-22v-76q0 -71 8 -108h-150v184h-22q-18 0 -26 -20l-37 -91q-16 -42 -21 -73h-169z" />
    <glyph glyph-name="uni0437.loclBGR" horiz-adv-x="402" 
d="M71 -224.5q-45 10.5 -75 27.5l34 118q57 -30 113 -30q46 0 70.5 22.5t24.5 65.5q0 81 -98 81h-85v126h81q42 0 65.5 23t23.5 64q0 67 -71 67q-51 0 -110 -36l-28 117q40 21 86 32.5t91 11.5q85 0 131.5 -44t46.5 -125q0 -58 -25.5 -100t-70.5 -61v-2q52 -14 80 -55.5
t28 -105.5q0 -96 -59 -151.5t-164 -55.5q-44 0 -89 10.5z" />
    <glyph glyph-name="uni0438.loclBGR" horiz-adv-x="492" 
d="M72.5 27.5q-28.5 37.5 -28.5 120.5v195q0 77 -7 112h152v-266q0 -40 10 -55t35 -15q35 0 65 22v202q0 62 -8 112h153v-349q0 -67 7 -106h-131q-5 9 -8.5 24t-4.5 29q-33 -31 -70 -47t-73 -16q-63 0 -91.5 37.5z" />
    <glyph glyph-name="uni0439.loclBGR" horiz-adv-x="492" 
d="M72.5 27.5q-28.5 37.5 -28.5 120.5v195q0 77 -7 112h152v-266q0 -40 10 -55t35 -15q35 0 65 22v202q0 62 -8 112h153v-349q0 -67 7 -106h-131q-5 9 -8.5 24t-4.5 29q-33 -31 -70 -47t-73 -16q-63 0 -91.5 37.5zM174 616.5q-34 13.5 -56 33.5l-21 -91q61 -54 148 -54
q89 0 148 54l-21 91q-21 -20 -55.5 -33.5t-71.5 -13.5t-71 13.5z" />
    <glyph glyph-name="uni045D.loclBGR" horiz-adv-x="492" 
d="M72.5 27.5q-28.5 37.5 -28.5 120.5v195q0 77 -7 112h152v-266q0 -40 10 -55t35 -15q35 0 65 22v202q0 62 -8 112h153v-349q0 -67 7 -106h-131q-5 9 -8.5 24t-4.5 29q-33 -31 -70 -47t-73 -16q-63 0 -91.5 37.5zM165 574l-73 104h149q11 -30 30 -65l52 -99h-120
q-8 18 -38 60z" />
    <glyph glyph-name="uni043A.loclBGR" horiz-adv-x="495" 
d="M191 301h18l70 92q25 34 37 62h169l-148 -203l172 -252h-173q-11 29 -41 74l-65 90q-8 10 -13.5 15t-13.5 5h-12v-76q0 -68 7 -108h-152v602q0 68 -7 108l152 10v-419z" />
    <glyph glyph-name="uni045C.loclBGR" horiz-adv-x="495" 
d="M191 301h18l70 92q25 34 37 62h169l-148 -203l172 -252h-173q-11 29 -41 74l-65 90q-8 10 -13.5 15t-13.5 5h-12v-76q0 -68 7 -108h-152v602q0 68 -7 108l152 10v-419zM276 613q23 47 30 65h148l-72 -104q-26 -35 -38 -60h-121z" />
    <glyph glyph-name="uni043B.loclBGR" horiz-adv-x="468" 
d="M47 146l105 309h170l97 -300q3 -9 13.5 -42.5t21 -61.5t21.5 -51h-160q-17 38 -33 106l-27 117q-15 63 -20 91h-3l-7 -31l-13 -60l-27 -108q-19 -78 -23 -115h-156q13 62 41 146z" />
    <glyph glyph-name="uni043F.loclBGR" horiz-adv-x="495" 
d="M46 347q0 68 -7 108h130q8 -20 12 -55q32 30 69.5 47.5t76.5 17.5q66 0 93.5 -37t27.5 -118v-199q0 -78 8 -111h-153v273q0 34 -10 48.5t-34 14.5q-31 0 -68 -24v-201q0 -75 7 -111h-152v347z" />
    <glyph glyph-name="uni0442.loclBGR" horiz-adv-x="738" 
d="M46 348q0 67 -7 107h130q7 -18 12 -55q33 30 70.5 47.5t71.5 17.5q79 0 104 -66q74 66 147 66q63 0 90 -37.5t27 -120.5v-196q0 -78 8 -111h-153v284q0 28 -9.5 40t-31.5 12q-32 0 -64 -25v-200q0 -76 7 -111h-151v284q0 28 -10 40t-32 12q-30 0 -64 -24v-201
q0 -76 7 -111h-152v348z" />
    <glyph glyph-name="uni0446.loclBGR" horiz-adv-x="529" 
d="M519 118q-1 -8 -3 -32t-2 -58v-160h-145q5 40 5 106v26h-54q-5 8 -8.5 23t-4.5 30q-33 -31 -70 -47t-73 -16q-63 0 -91.5 37.5t-28.5 120.5v195q0 77 -7 112h152v-266q0 -40 10 -55t35 -15q35 0 65 22v202q0 62 -8 112h153v-337h75z" />
    <glyph glyph-name="uni0448.loclBGR" horiz-adv-x="736" 
d="M72 27.5q-28 37.5 -28 120.5v195q0 77 -7 112h152v-266q0 -40 10 -55t34 -15q15 0 31.5 6.5t29.5 16.5v38v163q0 62 -8 112h153v-269q0 -37 10 -52t34 -15q14 0 30 6t30 16v202q0 58 -7 112h152v-349q0 -67 7 -106h-131q-5 9 -8.5 24t-4.5 29q-68 -63 -139 -63
q-80 0 -105 65q-34 -32 -71 -48.5t-74 -16.5q-62 0 -90 37.5z" />
    <glyph glyph-name="uni0449.loclBGR" horiz-adv-x="773" 
d="M763 118q-4 -50 -4 -90v-160h-145q4 48 4 106v26h-54q-5 9 -8.5 24t-4.5 29q-68 -63 -139 -63q-41 0 -66.5 15.5t-38.5 48.5q-70 -64 -145 -64q-62 0 -90 37.5t-28 120.5v195q0 77 -7 112h152v-266q0 -40 10 -55t34 -15q15 0 31.5 6t29.5 17v37v164q0 62 -8 112h153v-266
q0 -40 10 -55t34 -15q14 0 30 6t30 16v202q0 58 -7 112h152v-337h75z" />
    <glyph glyph-name="uni045F.loclBGR" horiz-adv-x="492" 
d="M451 0h-131q-5 9 -8.5 24t-4.5 29q-30 -29 -68 -46v-139h-114q5 60 5 106v19q-45 9 -65.5 46.5t-20.5 108.5v195q0 77 -7 112h152v-266q0 -40 10 -55t35 -15q35 0 65 22v202q0 62 -8 112h153v-349q0 -67 7 -106z" />
    <glyph glyph-name="uni044C.loclBGR" horiz-adv-x="451" 
d="M91 35q-47 45 -47 132v169q0 92 -7 119h151v-137q50 23 97 23q73 0 114 -42t41 -121q0 -90 -53.5 -139t-152.5 -49q-96 0 -143 45zM296 176q0 32 -12.5 46.5t-37.5 14.5q-31 0 -58 -15v-51q0 -33 11.5 -49.5t38.5 -16.5q58 0 58 71z" />
    <glyph glyph-name="uni044A.loclBGR" horiz-adv-x="508" 
d="M148 35q-47 45 -47 132v172h-18q-44 0 -76 -4v120h238v-137q51 23 97 23q73 0 114 -42t41 -121q0 -90 -53.5 -139t-152.5 -49q-96 0 -143 45zM353 176q0 32 -12 46.5t-37 14.5q-30 0 -59 -15v-51q0 -33 12 -49.5t39 -16.5q57 0 57 71z" />
    <glyph glyph-name="uni044B.loclBGR" horiz-adv-x="688" 
d="M91 35q-47 45 -47 132v169q0 92 -7 119h151v-137q50 23 97 23q73 0 114 -42t41 -121q0 -90 -53.5 -139t-152.5 -49q-96 0 -143 45zM296 176q0 32 -12.5 46.5t-37.5 14.5q-31 0 -58 -15v-51q0 -33 11.5 -49.5t38.5 -16.5q58 0 58 71zM497 343q0 67 -7 112h152v-343
q0 -68 7 -112h-152v343z" />
    <glyph glyph-name="uni0459.loclBGR" horiz-adv-x="675" 
d="M623 299q41 -42 41 -121q0 -89 -53.5 -138.5t-151.5 -49.5q-86 0 -125 38t-55 105l-24 90q-15 63 -20 91h-3l-7 -31l-13 -60l-27 -108q-19 -78 -23 -115h-156q13 62 41 146l105 309h170l49 -153q65 39 139 39q72 0 113 -42zM520 176q0 32 -12.5 46.5t-37.5 14.5
q-31 0 -71 -21l15 -58q7 -26 17.5 -39.5t33.5 -13.5q55 0 55 71z" />
    <glyph glyph-name="uni045A.loclBGR" horiz-adv-x="710" 
d="M351.5 30.5q-48.5 40.5 -48.5 120.5v39h-112v-83q0 -66 7 -107h-152v348q0 75 -7 107h152v-149h110v42q0 73 -7 107h152v-137q51 23 98 23q72 0 113 -42t41 -121q0 -89 -53.5 -138.5t-151.5 -49.5q-93 0 -141.5 40.5zM555 176q0 32 -12.5 46.5t-37.5 14.5q-30 0 -59 -15
v-51q0 -33 12 -49.5t39 -16.5q58 0 58 71z" />
    <glyph glyph-name="uni044E.loclBGR" horiz-adv-x="688" 
d="M607 401q58 -64 58 -173q0 -110 -58 -174t-156 -64q-87 0 -142.5 50t-68.5 139h-49v-71q0 -68 7 -108h-152v602q0 68 -7 108l152 10v-425h52q17 80 71.5 125t136.5 45q98 0 156 -64zM520 228q0 111 -69 111t-69 -111q0 -112 69 -112t69 112z" />
    <glyph glyph-name="uni04E3.loclBGR" horiz-adv-x="492" 
d="M72.5 27.5q-28.5 37.5 -28.5 120.5v195q0 77 -7 112h152v-266q0 -40 10 -55t35 -15q35 0 65 22v202q0 62 -8 112h153v-349q0 -67 7 -106h-131q-5 9 -8.5 24t-4.5 29q-33 -31 -70 -47t-73 -16q-63 0 -91.5 37.5zM99 621h196q50 0 96 6v-95h-196q-43 0 -96 -5v94z" />
    <glyph glyph-name="uni0430.sc" horiz-adv-x="495" 
d="M130 411q21 62 26 105h183l169 -516h-166q-3 30 -12 58l-14 46h-131l-14 -46q-11 -38 -12 -58h-167zM296 208l-23 83q-6 30 -18 95h-4q-11 -61 -19 -95l-24 -83h88z" />
    <glyph glyph-name="uni0431.sc" horiz-adv-x="468" 
d="M53 443q0 45 -6 73h362v-122q-27 4 -88 4h-128v-67h46q110 0 161.5 -37t51.5 -114q0 -87 -53 -133.5t-151 -46.5h-195v443zM243 114q37 0 53.5 15t16.5 44q0 25 -18 39t-52 14h-50v-69q0 -32 1 -43h49z" />
    <glyph glyph-name="uni0432.sc" horiz-adv-x="470" 
d="M53 429q0 47 -6 87h198q96 0 141.5 -31t45.5 -96q0 -42 -19 -71.5t-55 -43.5v-2q46 -11 70 -41.5t24 -76.5q0 -154 -197 -154h-202v429zM234 307q33 0 48.5 11.5t15.5 37.5q0 24 -14.5 35t-49.5 11h-41v-95h41zM243 114q36 0 53 13.5t17 41.5q0 49 -70 49h-50v-65
q0 -27 1 -39h49z" />
    <glyph glyph-name="uni0433.sc" horiz-adv-x="393" 
d="M53 436q0 51 -6 80h338v-131q-25 5 -90 5h-99v-316q0 -36 6 -74h-149v436z" />
    <glyph glyph-name="uni0453.sc" horiz-adv-x="393" 
d="M53 436q0 51 -6 80h338v-131q-25 5 -90 5h-99v-316q0 -36 6 -74h-149v436zM168 650q21 44 26 58h142l-61 -88q-22 -32 -33 -53h-117z" />
    <glyph glyph-name="uni0491.sc" horiz-adv-x="398" 
d="M53 436q0 51 -6 80h201v26q0 57 -4 105h141v-152q0 -55 4 -105h-193v-316q0 -36 6 -74h-149v436z" />
    <glyph glyph-name="uni0434.sc" horiz-adv-x="606" 
d="M603 126q-5 -62 -5 -105v-153h-145q5 40 5 106v26h-310v-26q0 -46 5 -106h-145v153q0 63 -5 105h73q14 20 21 47t11 72l24 271h375v-390h96zM234.5 165q-3.5 -22 -11.5 -39h141v255h-108l-14 -153q-4 -41 -7.5 -63z" />
    <glyph glyph-name="uni0435.sc" horiz-adv-x="430" 
d="M53 434q0 38 -6 82h344v-124q-25 5 -86 5h-109v-82h183v-111q-42 4 -88 4h-95v-54q0 -24 1 -35h114q59 0 87 4v-123h-345v434z" />
    <glyph glyph-name="uni0451.sc" horiz-adv-x="430" 
d="M53 434q0 38 -6 82h344v-124q-25 5 -86 5h-109v-82h183v-111q-42 4 -88 4h-95v-54q0 -24 1 -35h114q59 0 87 4v-123h-345v434zM77.5 586.5q-19.5 19.5 -19.5 50.5t19.5 50t50.5 19t51 -19t20 -50t-20 -50.5t-51 -19.5t-50.5 19.5zM258.5 587q-19.5 19 -19.5 50t19.5 50
t50.5 19t50.5 -19t19.5 -50t-19.5 -50t-50.5 -19t-50.5 19z" />
    <glyph glyph-name="uni0436.sc" horiz-adv-x="716" 
d="M126 273l-116 243h173q10 -39 27 -83l50 -114h29v115q0 42 -6 82h145v-197h28l50 114q17 44 27 83h173l-116 -243l142 -273h-182q-8 31 -29 85l-43 88q-6 14 -14 20t-20 6h-16v-117q0 -45 5 -82h-144v199h-17q-12 0 -20 -6t-14 -20l-43 -88q-22 -55 -28 -85h-183z" />
    <glyph glyph-name="uni0437.sc" horiz-adv-x="422" 
d="M84 1q-48 11 -80 32l38 114q26 -15 63.5 -24.5t71.5 -9.5q76 0 76 46q0 24 -18 35t-65 11h-96v105h80q82 0 82 48q0 42 -64 42q-58 0 -124 -32l-25 112q35 20 82 31.5t98 11.5q88 0 136 -33t48 -93q0 -85 -79 -129v-1q50 -17 73 -48t23 -77q0 -72 -55 -112t-161 -40
q-56 0 -104 11z" />
    <glyph glyph-name="uni0438.sc" horiz-adv-x="567" 
d="M53 434q0 44 -6 82h146v-230q0 -43 -7 -103h4q24 62 38 89l124 244h161v-441q0 -37 6 -75h-146v200q0 46 5 98h-4q-17 -37 -45 -89l-114 -209h-162v434z" />
    <glyph glyph-name="uni0439.sc" horiz-adv-x="567" 
d="M53 434q0 44 -6 82h146v-230q0 -43 -7 -103h4q24 62 38 89l124 244h161v-441q0 -37 6 -75h-146v200q0 46 5 98h-4q-17 -37 -45 -89l-114 -209h-162v434zM207 677.5q-34 13.5 -56 33.5l-21 -91q61 -54 148 -54q89 0 148 54l-21 91q-21 -20 -55.5 -33.5t-71.5 -13.5
t-71 13.5z" />
    <glyph glyph-name="uni045D.sc" horiz-adv-x="567" 
d="M53 434q0 44 -6 82h146v-230q0 -43 -7 -103h4q24 62 38 89l124 244h161v-441q0 -37 6 -75h-146v200q0 46 5 98h-4q-17 -37 -45 -89l-114 -209h-162v434zM240 567q-11 21 -33 53l-61 88h142q7 -21 26 -58l42 -83h-116z" />
    <glyph glyph-name="uni043A.sc" horiz-adv-x="506" 
d="M53 434q0 51 -6 82h149v-196h34l68 117q23 46 34 79h171l-139 -243l167 -273h-181q-7 24 -32 67l-66 107q-7 13 -14.5 18.5t-19.5 5.5h-22v-117q0 -46 6 -81h-149v434z" />
    <glyph glyph-name="uni045C.sc" horiz-adv-x="506" 
d="M53 434q0 51 -6 82h149v-196h34l68 117q23 46 34 79h171l-139 -243l167 -273h-181q-7 24 -32 67l-66 107q-7 13 -14.5 18.5t-19.5 5.5h-22v-117q0 -46 6 -81h-149v434zM217 650q21 44 26 58h142l-61 -88q-22 -32 -33 -53h-117z" />
    <glyph glyph-name="uni043B.sc" horiz-adv-x="536" 
d="M340 0v381h-105l-14 -156q-8 -90 -28.5 -140.5t-60 -72.5t-107.5 -22l-24 120q42 0 60 29t25 103l25 274h371v-436q0 -32 6 -80h-148z" />
    <glyph glyph-name="uni043C.sc" horiz-adv-x="717" 
d="M75 414q5 61 4 102h192l62 -220q12 -42 28 -151h3q10 76 29 150l62 221h191q-1 -43 5 -109l38 -407h-149l1 33q0 16 -2 48l-8 120q-2 44 -2 70l1 52h-4l-95 -323h-140l-91 323h-4v-49q0 -51 -2 -77l-9 -114q-2 -18 -2 -48q0 -24 1 -35h-146z" />
    <glyph glyph-name="uni043D.sc" horiz-adv-x="557" 
d="M53 434q0 51 -6 82h149v-186h165v104q0 40 -6 82h149v-435q0 -49 6 -81h-149v196h-165v-115q0 -39 6 -81h-149v434z" />
    <glyph glyph-name="uni043E.sc" horiz-adv-x="564" 
d="M96 61q-67 71 -67 196q0 124 67 195t186 71q117 0 184.5 -71.5t67.5 -194.5q0 -125 -67 -196t-185 -71q-119 0 -186 71zM356.5 161.5q25.5 33.5 25.5 95.5q0 60 -26 93.5t-74 33.5t-74.5 -33.5t-26.5 -93.5q0 -62 26 -95.5t75 -33.5t74.5 33.5z" />
    <glyph glyph-name="uni043F.sc" horiz-adv-x="553" 
d="M357 0v381h-161v-300q0 -39 6 -81h-149v434q0 51 -6 82h453v-435q0 -49 6 -81h-149z" />
    <glyph glyph-name="uni0440.sc" horiz-adv-x="448" 
d="M382 474q56 -42 56 -132q0 -88 -55 -136.5t-152 -48.5h-35v-76q0 -43 6 -81h-149v432q0 44 -6 84h166q113 0 169 -42zM196 402v-125h26q38 0 58.5 17t20.5 50q0 58 -73 58h-32z" />
    <glyph glyph-name="uni0441.sc" horiz-adv-x="484" 
d="M92 60.5q-63 70.5 -63 196.5q0 80 31 140t88 93t135 33q53 0 97.5 -13t74.5 -37l-51 -119q-29 17 -56 24t-58 7q-53 0 -81 -32.5t-28 -94.5q0 -130 102 -130q37 0 67.5 9.5t60.5 30.5l51 -123q-67 -55 -193 -55q-114 0 -177 70.5z" />
    <glyph glyph-name="uni0442.sc" horiz-adv-x="406" 
d="M130 309q0 59 -1 81h-51q-56 0 -80 -5v131h408v-131q-24 5 -81 5h-51v-309q0 -41 5 -81h-149v309z" />
    <glyph glyph-name="uni0443.sc" horiz-adv-x="470" 
d="M71 127h43q26 0 41.5 8.5t24.5 28.5l-114 208l-21 39q-41 78 -59 105h168q22 -32 45 -85l48 -113l43 111q18 42 28 87h157q-5 -32 -53 -139l-115 -264q-27 -60 -59 -86.5t-88 -26.5h-73z" />
    <glyph glyph-name="uni045E.sc" horiz-adv-x="470" 
d="M71 127h43q26 0 41.5 8.5t24.5 28.5l-114 208l-21 39q-41 78 -59 105h168q22 -32 45 -85l48 -113l43 111q18 42 28 87h157q-5 -32 -53 -139l-115 -264q-27 -60 -59 -86.5t-88 -26.5h-73zM170 677.5q-34 13.5 -56 33.5l-21 -91q61 -54 148 -54q89 0 148 54l-21 91
q-21 -20 -55.5 -33.5t-71.5 -13.5t-71 13.5z" />
    <glyph glyph-name="uni0444.sc" horiz-adv-x="694" 
d="M601.5 82q-70.5 -64 -188.5 -75v-16q0 -17 1.5 -37.5t3.5 -35.5h-137v89q-118 12 -188 75.5t-70 173.5t70.5 174t187.5 75v17q0 17 -1.5 40t-3.5 33h137v-90q118 -11 188.5 -75t70.5 -174t-70.5 -174zM491.5 344.5q-28.5 34.5 -80.5 43.5v-263q52 9 80.5 43t28.5 88
t-28.5 88.5zM202.5 168.5q28.5 -34.5 80.5 -43.5v263q-52 -9 -80.5 -43.5t-28.5 -88.5q0 -53 28.5 -87.5z" />
    <glyph glyph-name="uni0445.sc" horiz-adv-x="505" 
d="M43 83l112 176l-104 176q-17 28 -58 81h167q17 -23 41 -65l22 -36l28 -53h2q5 11 28 51l23 39q24 47 29 64h165q-7 -18 -23 -46t-33 -55l-93 -152l109 -178q26 -44 61 -85h-173q-11 14 -21 30.5t-14 23.5l-29 44l-18 31l-12 20h-2q-8 -13 -31 -51l-27 -41
q-24 -42 -31 -57h-168q16 32 50 83z" />
    <glyph glyph-name="uni0447.sc" horiz-adv-x="519" 
d="M323 193q-66 -36 -132 -36q-79 0 -112.5 41t-33.5 124v121q0 20 -1.5 39.5t-4.5 33.5h148v-158q0 -34 14 -49t45 -15q41 0 77 15v126q0 47 -6 81h149v-434q0 -46 6 -82h-149v193z" />
    <glyph glyph-name="uni0446.sc" horiz-adv-x="595" 
d="M587 21v-153h-145q5 60 5 106v26h-394v440q0 36 -6 76h149v-339q0 -35 2 -51h155v312q0 42 -6 78h149v-339q0 -33 2 -51h94q-5 -42 -5 -105z" />
    <glyph glyph-name="uni0448.sc" horiz-adv-x="790" 
d="M53 440q0 36 -6 76h149v-339q0 -33 2 -51h126v314q0 22 -6 76h149v-339q0 -33 2 -51h125v314q0 46 -5 76h148v-383q0 -96 6 -133h-690v440z" />
    <glyph glyph-name="uni0449.sc" horiz-adv-x="836" 
d="M688 -26v26h-635v440q0 36 -6 76h149v-339q0 -33 2 -51h126v314q0 22 -6 76h149v-339q0 -33 2 -51h125v314q0 46 -5 76h148v-339q0 -33 2 -51h94q-5 -62 -5 -104v-154h-144q4 48 4 106z" />
    <glyph glyph-name="uni045F.sc" horiz-adv-x="549" 
d="M345 0v-132h-145q5 60 5 106v26h-152v440q0 36 -6 76h149v-339q0 -35 2 -51h155v312q0 42 -6 78h149v-435q0 -49 6 -81h-157z" />
    <glyph glyph-name="uni044C.sc" horiz-adv-x="462" 
d="M239 343q111 0 162 -37.5t51 -118.5q0 -92 -52.5 -139.5t-151.5 -47.5h-195v443q0 45 -6 73h147l-1 -173h46zM243 114q38 0 54 16t16 49q0 59 -70 59h-50v-81q0 -32 1 -43h49z" />
    <glyph glyph-name="uni044A.sc" horiz-adv-x="507" 
d="M447 305.5q51 -37.5 51 -118.5q0 -92 -52.5 -139.5t-152.5 -47.5h-194v390h-21q-56 0 -80 -5v131h242l-1 -173h46q111 0 162 -37.5zM343 130q16 16 16 49q0 29 -18 44t-52 15h-50v-81q0 -32 1 -43h49q38 0 54 16z" />
    <glyph glyph-name="uni044B.sc" horiz-adv-x="711" 
d="M239 343q111 0 162 -37.5t51 -118.5q0 -92 -52.5 -139.5t-151.5 -47.5h-195v443q0 45 -6 73h147l-1 -173h46zM243 114q38 0 54 16t16 49q0 59 -70 59h-50v-81q0 -32 1 -43h49zM664 0h-149v434q0 52 -6 82h149v-435q0 -42 6 -81z" />
    <glyph glyph-name="uni0459.sc" horiz-adv-x="751" 
d="M690 305.5q51 -37.5 51 -118.5q0 -92 -52.5 -139.5t-151.5 -47.5h-197v381h-105l-14 -156q-8 -90 -28.5 -140.5t-60 -72.5t-107.5 -22l-24 120q42 0 60 29t25 103l25 274h371v-173h47q110 0 161 -37.5zM586 130q16 16 16 49q0 59 -70 59h-50v-81q0 -21 2 -43h48
q38 0 54 16z" />
    <glyph glyph-name="uni045A.sc" horiz-adv-x="772" 
d="M711.5 301.5q51.5 -37.5 51.5 -117.5q0 -90 -53 -137t-152 -47h-197v205h-165v-124q0 -39 6 -81h-149v434q0 51 -6 82h149v-177h165v95q0 40 -6 82h149v-177h46q110 0 161.5 -37.5zM608 129.5q16 15.5 16 46.5q0 27 -18 42t-52 15h-50v-77q0 -31 1 -42h49q38 0 54 15.5z
" />
    <glyph glyph-name="uni0455.sc" horiz-adv-x="434" 
d="M309.5 508q49.5 -15 81.5 -40l-46 -109q-26 20 -56.5 31.5t-58.5 11.5q-20 0 -32.5 -8.5t-12.5 -24.5q0 -18 17.5 -29.5t72.5 -32.5q71 -28 104.5 -64.5t33.5 -95.5q0 -73 -51.5 -115t-140.5 -42q-108 0 -198 55l39 118q33 -21 73 -34.5t74 -13.5q26 0 39.5 9.5
t13.5 27.5t-21 30t-77 30q-66 22 -98.5 59t-32.5 102q0 67 45 108.5t130 41.5q52 0 101.5 -15z" />
    <glyph glyph-name="uni0454.sc" horiz-adv-x="484" 
d="M462 45q-67 -55 -193 -55q-114 0 -177 70.5t-63 196.5q0 80 31 140t88 93t135 33q53 0 97.5 -13t74.5 -37l-48 -112q-53 32 -117 32q-83 0 -103 -81h172v-104q-42 4 -88 4h-87q8 -46 32 -68.5t67 -22.5q74 0 132 39z" />
    <glyph glyph-name="uni044D.sc" horiz-adv-x="484" 
d="M22 45q67 -55 193 -55q114 0 177 70.5t63 196.5q0 80 -31 140t-88 93t-135 33q-53 0 -97.5 -13t-74.5 -37l48 -112q53 32 117 32q83 0 103 -81h-172v-104q42 4 88 4h87q-8 -46 -32 -68.5t-67 -22.5q-74 0 -132 39z" />
    <glyph glyph-name="uni0456.sc" horiz-adv-x="249" 
d="M202 0h-149v434q0 52 -6 82h149v-435q0 -42 6 -81z" />
    <glyph glyph-name="uni0457.sc" horiz-adv-x="249" 
d="M202 0h-149v434q0 52 -6 82h149v-435q0 -42 6 -81zM-16.5 586.5q-19.5 19.5 -19.5 50.5t19.5 50t50.5 19t51 -19t20 -50t-20 -50.5t-51 -19.5t-50.5 19.5zM164.5 587q-19.5 19 -19.5 50t19.5 50t50.5 19t50.5 -19t19.5 -50t-19.5 -50t-50.5 -19t-50.5 19z" />
    <glyph glyph-name="uni0458.sc" horiz-adv-x="258" 
d="M56 516h149v-449q0 -120 -48.5 -171.5t-156.5 -51.5l-25 123q45 -1 66 21t21 79v367q0 40 -6 82z" />
    <glyph glyph-name="uni045B.sc" horiz-adv-x="568" 
d="M521 0h-148v183q0 24 -9.5 34.5t-28.5 10.5q-30 0 -61 -24v-123q0 -41 5 -81h-149v309q0 59 -1 81h-51q-56 0 -80 -5v131h442v-131q-24 5 -81 5h-85v-100q38 24 70 35t67 11q55 0 79.5 -27t24.5 -87v-141q0 -45 6 -81z" />
    <glyph glyph-name="uni044E.sc" horiz-adv-x="771" 
d="M625.5 490.5q55.5 -32.5 85 -92.5t29.5 -141q0 -124 -66 -195.5t-179 -71.5q-100 0 -164 56t-78 155h-57v-119q0 -46 6 -82h-149v434q0 44 -6 82h149v-180h61q20 88 82 137.5t156 49.5q75 0 130.5 -32.5zM564 161.5q25 33.5 25 95.5q0 60 -25 93.5t-69 33.5t-69 -33.5
t-25 -93.5q0 -62 24.5 -95.5t69.5 -33.5q44 0 69 33.5z" />
    <glyph glyph-name="uni044F.sc" horiz-adv-x="471" 
d="M423 516q-6 -42 -6 -83v-433h-148q5 35 5 81v87h-22q-8 0 -13 -4t-10 -14l-47 -84q-21 -38 -28 -66h-164l121 206q-86 43 -86 141q0 81 52 125t160 44h186zM182.5 386.5q-17.5 -15.5 -17.5 -43.5q0 -31 16.5 -46t52.5 -15h40v120h-41q-33 0 -50.5 -15.5z" />
    <glyph glyph-name="uni0452.sc" horiz-adv-x="563" 
d="M515 222v-82q0 -53 -15 -85.5t-52.5 -48.5t-106.5 -16l-21 113q29 0 41 10.5t12 35.5v34q0 24 -9.5 34.5t-28.5 10.5q-30 0 -61 -24v-123q0 -41 5 -81h-149v309q0 59 -1 81h-51q-56 0 -80 -5v131h442v-131q-24 5 -81 5h-85v-100q38 24 70 35t67 11q104 0 104 -114z" />
    <glyph glyph-name="uni04CF.sc" horiz-adv-x="249" 
d="M202 0h-149v434q0 52 -6 82h149v-435q0 -42 6 -81z" />
    <glyph glyph-name="uni04E3.sc" horiz-adv-x="567" 
d="M53 434q0 44 -6 82h146v-230q0 -43 -7 -103h4q24 62 38 89l124 244h161v-441q0 -37 6 -75h-146v200q0 46 5 98h-4q-17 -37 -45 -89l-114 -209h-162v434zM140 668h180q57 0 96 5v-90h-180q-56 0 -96 -5v90z" />
    <glyph glyph-name="uni04EF.sc" horiz-adv-x="470" 
d="M71 127h43q26 0 41.5 8.5t24.5 28.5l-114 208l-21 39q-41 78 -59 105h168q22 -32 45 -85l48 -113l43 111q18 42 28 87h157q-5 -32 -53 -139l-115 -264q-27 -60 -59 -86.5t-88 -26.5h-73zM103 668h180q57 0 96 5v-90h-180q-56 0 -96 -5v90z" />
    <glyph glyph-name="uni0434.loclBGR.sc" horiz-adv-x="585" 
d="M582 126q-5 -42 -5 -105v-153h-145q5 60 5 106v26h-289v-26q0 -46 5 -106h-145v153q0 63 -5 105h76l92 285q22 69 26 105h184l122 -390h79zM358 126l-39 157q-15 63 -22 103h-5q-6 -32 -24 -103l-41 -157h131z" />
    <glyph glyph-name="uni043B.loclBGR.sc" horiz-adv-x="487" 
d="M126 411q22 69 26 105h183l165 -516h-166q-2 19 -12 58l-53 233l-18 95h-4q-6 -32 -19 -95l-57 -233q-11 -38 -12 -58h-167z" />
    <glyph glyph-name="uni0444.loclBGR.sc" horiz-adv-x="694" 
d="M602 70q-70 -67 -189 -78v-17q0 -17 1.5 -37.5t3.5 -35.5h-137v90q-119 12 -188.5 79t-69.5 185q0 119 69.5 186t188.5 79v16q0 17 -1.5 40t-3.5 33h137v-89q119 -11 189 -78.5t70 -186.5t-70 -186zM492.5 356.5q-27.5 37.5 -81.5 46.5v-293q54 9 81.5 46t27.5 100
t-27.5 100.5zM201.5 156q27.5 -37 81.5 -46v293q-54 -9 -81.5 -46.5t-27.5 -100.5t27.5 -100z" />
    <glyph glyph-name="uni0459.loclBGR.sc" horiz-adv-x="712" 
d="M126 411q22 69 26 105h183l55 -173h99q111 0 162 -37.5t51 -118.5q0 -90 -51 -137.5t-147 -49.5h-170q-2 19 -12 58l-53 233l-18 95h-4q-6 -32 -19 -95l-57 -233q-11 -38 -12 -58h-167zM493 114q38 0 54 16t16 49q0 59 -70 59h-70l41 -124h29z" />
    <glyph glyph-name="zero" unicode="0" horiz-adv-x="595" 
d="M108 82.5q-67 92.5 -67 262.5t67 262.5t190 92.5t189.5 -92.5t66.5 -262.5t-66.5 -262.5t-189.5 -92.5t-190 92.5zM370 183q23 52 23 162t-23 162.5t-72 52.5t-72.5 -52.5t-23.5 -162.5t23.5 -162t72.5 -52t72 52z" />
    <glyph glyph-name="one" unicode="1" horiz-adv-x="383" 
d="M321 110q0 -28 2 -59.5t5 -50.5h-161v390q0 54 4 97h-2q-37 -48 -98 -84l-61 125q50 31 102.5 77.5t78.5 84.5h130v-580z" />
    <glyph glyph-name="two" unicode="2" horiz-adv-x="465" 
d="M379.5 656.5q47.5 -43.5 47.5 -121.5q0 -91 -55.5 -187t-157.5 -201v-4q20 1 68 1h53q63 0 99 6v-150h-415v127q123 133 183.5 219.5t60.5 141.5q0 67 -69 67q-31 0 -69 -14t-68 -33l-27 137q98 55 212 55q90 0 137.5 -43.5z" />
    <glyph glyph-name="three" unicode="3" horiz-adv-x="466" 
d="M9 46l43 131q34 -22 67 -32t70 -10q43 0 66 19t23 54q0 39 -24.5 57.5t-79.5 18.5h-69v125h56q47 0 72.5 21.5t25.5 60.5q0 31 -18 48t-53 17q-64 0 -128 -44l-32 133q39 26 92 40.5t107 14.5q92 0 143 -43.5t51 -122.5q0 -52 -25.5 -98t-69.5 -73v-2q56 -21 85.5 -66
t29.5 -103q0 -94 -63 -148t-173 -54q-125 0 -196 56z" />
    <glyph glyph-name="four" unicode="4" horiz-adv-x="541" 
d="M307 153h-297v115l296 422h153v-407h82v-130h-83v-46q0 -68 7 -107h-158v153zM310 394q0 29 5 91h-3l-140 -200v-3q19 1 60 1h78v111z" />
    <glyph glyph-name="five" unicode="5" horiz-adv-x="469" 
d="M100 2q-45 12 -89 40l44 132q31 -20 61.5 -29.5t66.5 -9.5q46 0 73.5 24.5t27.5 67.5q0 48 -32 70.5t-105 22.5h-94l34 370h326l-1 -150q-36 6 -106 6h-94l-10 -113h23q104 0 162.5 -56t58.5 -156q0 -107 -64.5 -169t-175.5 -62q-61 0 -106 12z" />
    <glyph glyph-name="six" unicode="6" horiz-adv-x="532" 
d="M458 669l-41 -134q-50 20 -99 20t-80 -37.5t-40 -105.5h3q20 30 52 45t70 15q81 0 127.5 -57t46.5 -160q0 -129 -58.5 -197t-168.5 -68q-118 0 -173.5 75.5t-55.5 237.5q0 197 66.5 297t196.5 100q90 0 154 -31zM223 315q-19 -28 -19 -73q0 -57 16.5 -83t50.5 -26
q32 0 48.5 28t16.5 84q0 47 -16 72.5t-47 25.5t-50 -28z" />
    <glyph glyph-name="seven" unicode="7" horiz-adv-x="435" 
d="M427 561l-234 -561h-168l182 451q20 50 39 88v3h-137q-73 0 -105 -6v154h423v-129z" />
    <glyph glyph-name="eight" unicode="8" horiz-adv-x="515" 
d="M87.5 39q-59.5 49 -59.5 135q0 57 30 105t85 82q-103 50 -103 160q0 83 58.5 131t158.5 48q101 0 159.5 -47.5t58.5 -129.5q0 -56 -27 -97t-77 -65q55 -27 85.5 -75.5t30.5 -111.5q0 -86 -60.5 -135t-170.5 -49q-109 0 -168.5 49zM304 463.5q15 20.5 15 47.5
q0 28 -16 43.5t-46 15.5q-29 0 -45 -16t-16 -44q0 -26 14.5 -46.5t46.5 -41.5q32 21 47 41.5zM309.5 144q17.5 16 17.5 44q0 30 -19.5 58t-50.5 43q-31 -16 -50.5 -44t-19.5 -57q0 -28 18 -44t52 -16q35 0 52.5 16z" />
    <glyph glyph-name="nine" unicode="9" horiz-adv-x="533" 
d="M136 3q-50 13 -85 35l41 133q27 -17 63 -26.5t73 -9.5q59 0 84 38t27 120h-3q-20 -31 -53.5 -49.5t-70.5 -18.5q-83 0 -130 54t-47 156q0 129 58.5 197t168.5 68q118 0 173.5 -75t55.5 -238q0 -137 -24 -223.5t-80 -130t-150 -43.5q-51 0 -101 13zM309 378q19 27 19 72
q0 56 -16 81.5t-50 25.5q-66 0 -66 -112q0 -94 63 -94q31 0 50 27z" />
    <glyph glyph-name="zero.osf" horiz-adv-x="497" 
d="M83.5 55q-60.5 65 -60.5 178q0 112 60.5 177t164.5 65q105 0 165.5 -65t60.5 -177q0 -113 -60.5 -178t-165.5 -65q-104 0 -164.5 65zM305.5 148q20.5 30 20.5 85q0 54 -20.5 83.5t-57.5 29.5t-57 -29.5t-20 -83.5q0 -55 20 -85t57 -30t57.5 30z" />
    <glyph glyph-name="one.osf" horiz-adv-x="341" 
d="M147 209q0 45 3 81h-2q-12 -13 -39 -29.5t-52 -29.5l-50 108q43 23 90 58.5t71 67.5h124v-362q0 -52 8 -103h-153v209z" />
    <glyph glyph-name="two.osf" horiz-adv-x="394" 
d="M32 102q79 71 127.5 124.5t48.5 91.5q0 37 -45 37q-48 0 -106 -41l-26 112q39 23 86.5 36t97.5 13q69 -1 106.5 -32.5t37.5 -89.5q0 -64 -42.5 -123t-115.5 -116v-3q14 1 42 1h21q54 0 94 6v-118h-327z" />
    <glyph glyph-name="three.osf" horiz-adv-x="403" 
d="M76.5 -191q-45.5 10 -76.5 28l40 129q51 -29 110 -29q38 0 59.5 19.5t21.5 53.5q0 37 -23.5 53t-76.5 16h-63v127h51q43 0 68 20t25 53q0 28 -17 43t-47 15q-52 0 -98 -29l-31 126q35 20 77.5 30.5t87.5 10.5q87 0 135.5 -42t48.5 -115q0 -52 -23.5 -93.5t-69.5 -68.5v-2
q111 -43 111 -161q0 -91 -57.5 -142.5t-156.5 -51.5q-50 0 -95.5 10z" />
    <glyph glyph-name="four.osf" horiz-adv-x="507" 
d="M286 -1h-278v103l260 363h161v-349h73v-117h-73v-83q0 -68 7 -107h-150v190zM170 115q17 1 52 1h64v116q0 30 3 63h-3l-116 -178v-2z" />
    <glyph glyph-name="five.osf" horiz-adv-x="428" 
d="M90.5 -189.5q-43.5 11.5 -83.5 37.5l41 124q30 -19 59 -28.5t62 -9.5q42 0 68.5 24t26.5 64q-1 47 -31 68.5t-98 21.5h-89l32 353h307l-1 -143q-25 6 -100 6h-87l-10 -109h22q98 0 153 -53t55 -149q0 -101 -61 -159.5t-165 -58.5q-57 0 -100.5 11.5z" />
    <glyph glyph-name="six.osf" horiz-adv-x="495" 
d="M83.5 65.5q-54.5 75.5 -54.5 234.5q0 193 64.5 290.5t191.5 97.5q90 0 151 -30l-42 -129q-43 20 -95 20q-48 0 -77.5 -38t-39.5 -108h2q20 30 51.5 44.5t67.5 14.5q79 0 124 -55.5t45 -155.5q0 -126 -57 -193.5t-164 -67.5q-113 0 -167.5 75.5zM299.5 157.5
q16.5 28.5 16.5 84.5q0 47 -15.5 71.5t-46.5 24.5q-30 0 -49 -27.5t-19 -71.5q0 -57 16.5 -83.5t49.5 -26.5q31 0 47.5 28.5z" />
    <glyph glyph-name="seven.osf" horiz-adv-x="423" 
d="M415 346l-215 -537h-157l164 431q17 41 38 83v3h-131q-61 0 -101 -6v145h402v-119z" />
    <glyph glyph-name="eight.osf" horiz-adv-x="510" 
d="M88 38q-59 48 -59 133q0 56 30 102.5t84 81.5q-47 22 -74.5 61t-27.5 96q0 81 57.5 128.5t157.5 47.5q99 0 156.5 -47t57.5 -127q0 -54 -27 -95t-76 -64q54 -27 84 -75t30 -109q0 -85 -59.5 -133t-167.5 -48q-107 0 -166 48zM300.5 455.5q14.5 20.5 14.5 46.5
q0 28 -15.5 42.5t-43.5 14.5q-29 0 -45 -15t-16 -42q0 -26 14 -46t46 -41q31 20 45.5 40.5zM306.5 141.5q17.5 15.5 17.5 43.5q0 29 -19 56.5t-49 42.5q-31 -16 -50 -43.5t-19 -55.5t17.5 -43.5t51.5 -15.5q33 0 50.5 15.5z" />
    <glyph glyph-name="nine.osf" horiz-adv-x="488" 
d="M120 -190q-48 12 -81 34l39 127q26 -16 60.5 -25t69.5 -9q56 0 80 35t26 113h-3q-20 -29 -52 -46.5t-66 -17.5q-79 0 -124.5 52.5t-45.5 150.5q0 122 56 186.5t161 64.5q114 0 166.5 -70t52.5 -227q0 -132 -23 -215t-76 -124t-143 -41q-49 0 -97 12zM285 168.5
q18 26.5 19 69.5q0 51 -15.5 75t-47.5 24q-63 0 -63 -104q0 -44 15.5 -67.5t44.5 -23.5t47 26.5z" />
    <glyph glyph-name="zero.tf" horiz-adv-x="540" 
d="M41 345q0 355 229 355t229 -355t-229 -355t-229 355zM325 181.5q16 50.5 16 163.5t-16 164t-55 51t-55 -51t-16 -164t16 -163.5t55 -50.5t55 50.5z" />
    <glyph glyph-name="one.tf" horiz-adv-x="540" 
d="M492 150v-150h-345q-63 0 -99 -6v150h151v246q0 54 4 97h-2q-15 -21 -39.5 -41.5t-48.5 -35.5l-61 124q49 30 97 73.5t74 82.5h130v-546h41q62 0 98 6z" />
    <glyph glyph-name="two.tf" horiz-adv-x="540" 
d="M486 535q0 -61 -32 -124.5t-83 -124t-128 -139.5v-4q20 1 67 1h83q63 0 99 6v-150h-445v127l49 53q119 126 172 193.5t53 114.5q0 34 -20.5 50.5t-61.5 16.5q-39 0 -81.5 -14.5t-73.5 -34.5l-27 137q101 57 231 57q198 0 198 -165z" />
    <glyph glyph-name="three.tf" horiz-adv-x="540" 
d="M130.5 4q-50.5 14 -88.5 42l43 131q34 -23 68.5 -32.5t81.5 -9.5q45 0 68.5 18.5t23.5 54.5q0 40 -24.5 58t-81.5 18h-83v125h70q49 0 74.5 21.5t25.5 60.5q0 31 -18.5 48t-55.5 17q-42 0 -76 -11t-65 -33l-33 133q42 25 96.5 40t115.5 15q96 0 147.5 -43.5t51.5 -122.5
q0 -52 -25.5 -98t-69.5 -73v-2q56 -21 85 -66t29 -103q0 -95 -63 -148.5t-175 -53.5q-71 0 -121.5 14z" />
    <glyph glyph-name="four.tf" horiz-adv-x="540" 
d="M303 153h-270v115l269 422h146v-407h61v-130h-62v-46q0 -68 7 -107h-151v153zM305 394q0 18 4 66l2 25h-3l-114 -200v-3q20 1 60 1h51v111z" />
    <glyph glyph-name="five.tf" horiz-adv-x="540" 
d="M142 2q-46 12 -90 40l44 132q31 -21 62.5 -30.5t69.5 -9.5q48 0 76 25t28 68q0 48 -31 70.5t-99 22.5h-108l33 370h334v-150q-38 6 -107 6h-101l-11 -113h31q104 0 163 -56t59 -156q0 -107 -65.5 -169t-179.5 -62q-62 0 -108 12z" />
    <glyph glyph-name="six.tf" horiz-adv-x="540" 
d="M458 669l-41 -134q-50 20 -99 20t-79.5 -37.5t-40.5 -105.5h3q20 30 52 45t70 15q81 0 127.5 -57t46.5 -160q0 -129 -58.5 -197t-168.5 -68q-118 0 -173.5 75.5t-55.5 237.5q0 197 66.5 297t196.5 100q90 0 154 -31zM223 315q-19 -28 -19 -73q0 -57 16.5 -83t50.5 -26
q32 0 48.5 28t16.5 84q0 47 -16 72.5t-47 25.5t-50 -28z" />
    <glyph glyph-name="seven.tf" horiz-adv-x="540" 
d="M494 561l-240 -561h-168l188 451q20 50 39 88v3h-163q-74 0 -105 -6v154h449v-129z" />
    </font>
</defs>
</svg>
